SplineFontDB: 3.2
FontName: Kilroy3-8ptRegular
FullName: Kilroy3 8pt Regular
FamilyName: Kilroy3 8pt
Weight: Regular
Copyright: Copyright 2020 The Roboto Serif Project Authors (https://github.com/googlefonts/RobotoSerif) OFL
Version: 1.008
ItalicAngle: 0
UnderlinePosition: -200
UnderlineWidth: 100
Ascent: 800
Descent: 200
InvalidEm: 0
sfntRevision: 0x0001020c
LayerCount: 2
Layer: 0 1 "Back" 1
Layer: 1 1 "Fore" 0
XUID: [1021 1018 -1064020043 26811]
StyleMap: 0x0040
FSType: 0
OS2Version: 4
OS2_WeightWidthSlopeOnly: 0
OS2_UseTypoMetrics: 1
CreationTime: 1586430965
ModificationTime: 1751860689
PfmFamily: 81
TTFWeight: 450
TTFWidth: 5
LineGap: 0
VLineGap: 0
Panose: 0 0 0 0 0 0 0 0 0 0
OS2TypoAscent: 927
OS2TypoAOffset: 0
OS2TypoDescent: -244
OS2TypoDOffset: 0
OS2TypoLinegap: 0
OS2WinAscent: 1048
OS2WinAOffset: 0
OS2WinDescent: 251
OS2WinDOffset: 0
HheadAscent: 927
HheadAOffset: 0
HheadDescent: -244
HheadDOffset: 0
OS2SubXSize: 650
OS2SubYSize: 600
OS2SubXOff: 0
OS2SubYOff: 75
OS2SupXSize: 650
OS2SupYSize: 600
OS2SupXOff: 0
OS2SupYOff: 350
OS2StrikeYSize: 100
OS2StrikeYPos: 311
OS2CapHeight: 710
OS2XHeight: 518
OS2Vendor: 'COMM'
OS2CodePages: 20000193.00000000
OS2UnicodeRanges: a10000ef.4000267a.00000000.00000000
Lookup: 5 0 0 "'locl' Localized Forms in Latin lookup 0" { "'locl' Localized Forms in Latin lookup 0 subtable"  } ['locl' ('latn' <'AZE ' 'CRT ' 'TRK ' > ) ]
Lookup: 1 0 0 "Single Substitution lookup 1" { "Single Substitution lookup 1 subtable"  } []
Lookup: 5 0 0 "'locl' Localized Forms in Latin lookup 2" { "'locl' Localized Forms in Latin lookup 2 subtable"  } ['locl' ('latn' <'PLK ' > ) ]
Lookup: 1 0 0 "Single Substitution lookup 3" { "Single Substitution lookup 3 subtable"  } []
Lookup: 6 0 0 "'locl' Localized Forms in Latin lookup 4" { "'locl' Localized Forms in Latin lookup 4 subtable"  } ['locl' ('latn' <'CAT ' > ) ]
Lookup: 4 0 0 "Ligature Substitution lookup 5" { "Ligature Substitution lookup 5 subtable"  } []

StartChar: .notdef
Encoding: 65536 -1 0
Width: 400
GlyphClass: 1
Flags: W
LayerCount: 2
Fore
SplineSet
0 0 m 1,0,-1
 0 700 l 1,1,-1
 400 700 l 1,2,-1
 400 0 l 1,3,-1
 0 0 l 1,0,-1
50 650 m 1,4,-1
 50 50 l 1,5,-1
 350 50 l 1,6,-1
 350 650 l 1,7,-1
 50 650 l 1,4,-1
EndSplineSet
EndChar

StartChar: A
Encoding: 65 65 6
Width: 736
GlyphClass: 2
Flags: W
AnchorPoint: "Anchor-2" 582 0 basechar 0
AnchorPoint: "Anchor-1" 367 0 basechar 0
AnchorPoint: "Anchor-0" 367 721 basechar 0
LayerCount: 2
Fore
SplineSet
215 303 m 1,0,-1
 487 303 l 1,1,-1
 504 217 l 1,2,-1
 197 217 l 1,3,-1
 215 303 l 1,0,-1
337 676 m 1,4,-1
 370 669 l 1,5,-1
 184 110 l 2,6,7
 184 104 184 104 193.5 98.5 c 128,-1,8
 203 93 203 93 220 90 c 128,-1,9
 237 87 237 87 259 87 c 2,10,-1
 269 87 l 1,11,-1
 269 0 l 1,12,-1
 21 0 l 1,13,-1
 21 87 l 1,14,-1
 27 87 l 2,15,16
 49 87 49 87 69 99.5 c 128,-1,17
 89 112 89 112 101 151 c 2,18,-1
 292 721 l 1,19,-1
 435 721 l 1,20,-1
 628 151 l 2,21,22
 642 112 642 112 662 99.5 c 128,-1,23
 682 87 682 87 710 87 c 2,24,-1
 715 87 l 1,25,-1
 715 0 l 1,26,-1
 438 0 l 1,27,-1
 438 87 l 1,28,-1
 448 87 l 2,29,30
 473 87 473 87 491 88.5 c 128,-1,31
 509 90 509 90 519 92.5 c 128,-1,32
 529 95 529 95 529 98 c 2,33,-1
 337 676 l 1,4,-1
EndSplineSet
EndChar

StartChar: Aogonek
Encoding: 260 260 15
Width: 736
GlyphClass: 1
Flags: W
LayerCount: 2
Fore
SplineSet
215 303 m 1,0,-1
 486 303 l 1,1,-1
 504 221 l 1,2,-1
 196 221 l 1,3,-1
 215 303 l 1,0,-1
580 41 m 1,4,-1
 611 4 l 1,5,6
 564 -35 564 -35 538 -59 c 128,-1,7
 512 -83 512 -83 502 -100.5 c 128,-1,8
 492 -118 492 -118 492 -139 c 0,9,10
 492 -158 492 -158 503 -170 c 128,-1,11
 514 -182 514 -182 538 -182 c 0,12,13
 566 -182 566 -182 587 -168 c 128,-1,14
 608 -154 608 -154 621 -135 c 1,15,-1
 668 -178 l 1,16,17
 641 -211 641 -211 604.5 -231.5 c 128,-1,18
 568 -252 568 -252 514 -252 c 0,19,20
 455 -252 455 -252 415 -230 c 128,-1,21
 375 -208 375 -208 375 -155 c 0,22,23
 375 -127 375 -127 384 -106.5 c 128,-1,24
 393 -86 393 -86 415 -66 c 128,-1,25
 437 -46 437 -46 477.5 -21 c 128,-1,26
 518 4 518 4 580 41 c 1,4,-1
715 0 m 1,27,-1
 562 0 l 1,28,-1
 336 677 l 1,29,-1
 366 649 l 1,30,-1
 187 110 l 2,31,32
 187 104 187 104 196.5 98.5 c 128,-1,33
 206 93 206 93 222.5 90 c 128,-1,34
 239 87 239 87 262 87 c 2,35,-1
 271 87 l 1,36,-1
 271 0 l 1,37,-1
 21 0 l 1,38,-1
 21 87 l 1,39,-1
 27 87 l 2,40,41
 49 87 49 87 69 99.5 c 128,-1,42
 89 112 89 112 101 152 c 2,43,-1
 292 722 l 1,44,-1
 435 722 l 1,45,-1
 628 151 l 2,46,47
 642 112 642 112 662 99.5 c 128,-1,48
 682 87 682 87 709 87 c 2,49,-1
 715 87 l 1,50,-1
 715 0 l 1,27,-1
EndSplineSet
EndChar

StartChar: Acaron
Encoding: 461 461 16
Width: 736
GlyphClass: 1
Flags: W
LayerCount: 2
Fore
SplineSet
314 803 m 1,0,-1
 396 803 l 1,1,-1
 532 958 l 1,2,-1
 532 983 l 1,3,-1
 474 983 l 1,4,-1
 289 844 l 1,5,-1
 427 848 l 1,6,-1
 245 983 l 1,7,-1
 177 983 l 1,8,-1
 177 958 l 1,9,-1
 314 803 l 1,0,-1
215 303 m 1,10,-1
 487 303 l 1,11,-1
 504 217 l 1,12,-1
 197 217 l 1,13,-1
 215 303 l 1,10,-1
337 676 m 1,14,-1
 370 669 l 1,15,-1
 184 110 l 2,16,17
 184 104 184 104 193.5 98.5 c 128,-1,18
 203 93 203 93 220 90 c 128,-1,19
 237 87 237 87 259 87 c 2,20,-1
 269 87 l 1,21,-1
 269 0 l 1,22,-1
 21 0 l 1,23,-1
 21 87 l 1,24,-1
 27 87 l 2,25,26
 49 87 49 87 69 99.5 c 128,-1,27
 89 112 89 112 101 151 c 2,28,-1
 292 721 l 1,29,-1
 435 721 l 1,30,-1
 628 151 l 2,31,32
 642 112 642 112 662 99.5 c 128,-1,33
 682 87 682 87 709 87 c 2,34,-1
 715 87 l 1,35,-1
 715 0 l 1,36,-1
 438 0 l 1,37,-1
 438 87 l 1,38,-1
 448 87 l 2,39,40
 473 87 473 87 491 88.5 c 128,-1,41
 509 90 509 90 519 92.5 c 128,-1,42
 529 95 529 95 529 98 c 2,43,-1
 337 676 l 1,14,-1
EndSplineSet
EndChar

StartChar: Adblgrave
Encoding: 512 512 18
Width: 736
GlyphClass: 1
Flags: W
LayerCount: 2
Fore
SplineSet
469 931 m 2,0,-1
 515 830 l 1,1,-1
 515 792 l 1,2,-1
 466 792 l 1,3,-1
 393 850 l 2,4,5
 369 867 369 867 356.5 886 c 128,-1,6
 344 905 344 905 344 929 c 0,7,8
 344 948 344 948 359 962 c 128,-1,9
 374 976 374 976 399 976 c 0,10,11
 417 976 417 976 430.5 970 c 128,-1,12
 444 964 444 964 453.5 953.5 c 128,-1,13
 463 943 463 943 469 931 c 2,0,-1
264 931 m 2,14,-1
 308 830 l 1,15,-1
 308 792 l 1,16,-1
 259 792 l 1,17,-1
 186 850 l 2,18,19
 162 867 162 867 149.5 886 c 128,-1,20
 137 905 137 905 137 929 c 0,21,22
 137 948 137 948 152 962 c 128,-1,23
 167 976 167 976 192 976 c 0,24,25
 210 976 210 976 224.5 970 c 128,-1,26
 239 964 239 964 249 953.5 c 128,-1,27
 259 943 259 943 264 931 c 2,14,-1
215 303 m 1,28,-1
 487 303 l 1,29,-1
 504 217 l 1,30,-1
 197 217 l 1,31,-1
 215 303 l 1,28,-1
337 676 m 1,32,-1
 370 669 l 1,33,-1
 184 110 l 2,34,35
 184 104 184 104 193.5 98.5 c 128,-1,36
 203 93 203 93 220 90 c 128,-1,37
 237 87 237 87 259 87 c 2,38,-1
 269 87 l 1,39,-1
 269 0 l 1,40,-1
 21 0 l 1,41,-1
 21 87 l 1,42,-1
 27 87 l 2,43,44
 49 87 49 87 69 99.5 c 128,-1,45
 89 112 89 112 101 151 c 2,46,-1
 292 721 l 1,47,-1
 435 721 l 1,48,-1
 628 151 l 2,49,50
 642 112 642 112 662 99.5 c 128,-1,51
 682 87 682 87 709 87 c 2,52,-1
 715 87 l 1,53,-1
 715 0 l 1,54,-1
 438 0 l 1,55,-1
 438 87 l 1,56,-1
 448 87 l 2,57,58
 473 87 473 87 491 88.5 c 128,-1,59
 509 90 509 90 519 92.5 c 128,-1,60
 529 95 529 95 529 98 c 2,61,-1
 337 676 l 1,32,-1
EndSplineSet
EndChar

StartChar: Ainvertedbreve
Encoding: 514 514 19
Width: 736
GlyphClass: 1
Flags: W
LayerCount: 2
Fore
SplineSet
365 935 m 0,0,1
 305 935 305 935 263.5 917 c 128,-1,2
 222 899 222 899 200.5 860.5 c 128,-1,3
 179 822 179 822 178 759 c 1,4,-1
 262 759 l 1,5,6
 264 795 264 795 273.5 813.5 c 128,-1,7
 283 832 283 832 305 839 c 128,-1,8
 327 846 327 846 365 846 c 0,9,10
 400 846 400 846 421 839 c 128,-1,11
 442 832 442 832 452 813.5 c 128,-1,12
 462 795 462 795 463 759 c 1,13,-1
 552 759 l 1,14,15
 552 822 552 822 529 860.5 c 128,-1,16
 506 899 506 899 464.5 917 c 128,-1,17
 423 935 423 935 365 935 c 0,0,1
215 303 m 1,18,-1
 487 303 l 1,19,-1
 504 217 l 1,20,-1
 197 217 l 1,21,-1
 215 303 l 1,18,-1
337 676 m 1,22,-1
 370 669 l 1,23,-1
 184 110 l 2,24,25
 184 104 184 104 193.5 98.5 c 128,-1,26
 203 93 203 93 220 90 c 128,-1,27
 237 87 237 87 259 87 c 2,28,-1
 269 87 l 1,29,-1
 269 0 l 1,30,-1
 21 0 l 1,31,-1
 21 87 l 1,32,-1
 27 87 l 2,33,34
 49 87 49 87 69 99.5 c 128,-1,35
 89 112 89 112 101 151 c 2,36,-1
 292 721 l 1,37,-1
 435 721 l 1,38,-1
 628 151 l 2,39,40
 642 112 642 112 662 99.5 c 128,-1,41
 682 87 682 87 709 87 c 2,42,-1
 715 87 l 1,43,-1
 715 0 l 1,44,-1
 438 0 l 1,45,-1
 438 87 l 1,46,-1
 448 87 l 2,47,48
 473 87 473 87 491 88.5 c 128,-1,49
 509 90 509 90 519 92.5 c 128,-1,50
 529 95 529 95 529 98 c 2,51,-1
 337 676 l 1,22,-1
EndSplineSet
EndChar

StartChar: B
Encoding: 66 66 32
Width: 731
GlyphClass: 2
Flags: W
AnchorPoint: "Anchor-0" 319 741 basechar 0
LayerCount: 2
Fore
SplineSet
410 710 m 2,0,1
 464 710 464 710 505.5 699 c 128,-1,2
 547 688 547 688 575.5 666 c 128,-1,3
 604 644 604 644 618.5 610.5 c 128,-1,4
 633 577 633 577 633 532 c 0,5,6
 633 486 633 486 611.5 451 c 128,-1,7
 590 416 590 416 547 396 c 128,-1,8
 504 376 504 376 439 376 c 1,9,-1
 449 394 l 1,10,-1
 449 348 l 1,11,-1
 439 371 l 1,12,13
 513 367 513 367 562.5 346 c 128,-1,14
 612 325 612 325 637.5 288 c 128,-1,15
 663 251 663 251 663 199 c 0,16,17
 663 148 663 148 647 110.5 c 128,-1,18
 631 73 631 73 599.5 49 c 128,-1,19
 568 25 568 25 523 12.5 c 128,-1,20
 478 0 478 0 420 0 c 2,21,-1
 58 0 l 1,22,-1
 58 87 l 1,23,-1
 69 87 l 2,24,25
 97 87 97 87 119 94 c 128,-1,26
 141 101 141 101 141 123 c 2,27,-1
 141 587 l 2,28,29
 141 609 141 609 119 616 c 128,-1,30
 97 623 97 623 69 623 c 2,31,-1
 58 623 l 1,32,-1
 58 710 l 1,33,-1
 410 710 l 2,0,1
213 414 m 1,34,-1
 400 414 l 2,35,36
 442 414 442 414 466.5 426 c 128,-1,37
 491 438 491 438 502.5 462 c 128,-1,38
 514 486 514 486 514 524 c 0,39,40
 514 555 514 555 503 577 c 128,-1,41
 492 599 492 599 467.5 611 c 128,-1,42
 443 623 443 623 402 623 c 2,43,-1
 257 623 l 1,44,-1
 257 87 l 1,45,-1
 411 87 l 2,46,47
 458 87 458 87 486.5 101 c 128,-1,48
 515 115 515 115 528.5 141.5 c 128,-1,49
 542 168 542 168 542 207 c 0,50,51
 542 245 542 245 527.5 272.5 c 128,-1,52
 513 300 513 300 481.5 315 c 128,-1,53
 450 330 450 330 400 330 c 2,54,-1
 213 330 l 1,55,-1
 213 414 l 1,34,-1
EndSplineSet
EndChar

StartChar: C
Encoding: 67 67 33
Width: 792
GlyphClass: 2
Flags: W
AnchorPoint: "Anchor-1" 419 0 basechar 0
AnchorPoint: "Anchor-0" 419 741 basechar 0
LayerCount: 2
Fore
SplineSet
405 645 m 0,0,1
 347 645 347 645 305.5 628.5 c 128,-1,2
 264 612 264 612 237 577 c 128,-1,3
 210 542 210 542 196.5 487 c 128,-1,4
 183 432 183 432 183 355 c 256,5,6
 183 278 183 278 197 222.5 c 128,-1,7
 211 167 211 167 239.5 131.5 c 128,-1,8
 268 96 268 96 311.5 79.5 c 128,-1,9
 355 63 355 63 416 63 c 0,10,11
 488 63 488 63 534.5 88.5 c 128,-1,12
 581 114 581 114 609 156.5 c 128,-1,13
 637 199 637 199 654 247 c 1,14,-1
 735 216 l 1,15,16
 712 140 712 140 668 86.5 c 128,-1,17
 624 33 624 33 559.5 4 c 128,-1,18
 495 -25 495 -25 409 -25 c 0,19,20
 330 -25 330 -25 266 -1 c 128,-1,21
 202 23 202 23 155.5 71 c 128,-1,22
 109 119 109 119 84.5 190 c 128,-1,23
 60 261 60 261 60 355 c 0,24,25
 60 451 60 451 85 522 c 128,-1,26
 110 593 110 593 155.5 640 c 128,-1,27
 201 687 201 687 263.5 711 c 128,-1,28
 326 735 326 735 401 735 c 0,29,30
 470 735 470 735 522 708 c 128,-1,31
 574 681 574 681 605.5 628 c 128,-1,32
 637 575 637 575 644 496 c 1,33,-1
 622 547 l 1,34,-1
 637 720 l 1,35,-1
 720 720 l 1,36,-1
 720 458 l 1,37,-1
 627 458 l 1,38,39
 612 513 612 513 583 555 c 128,-1,40
 554 597 554 597 510 621 c 128,-1,41
 466 645 466 645 405 645 c 0,0,1
EndSplineSet
EndChar

StartChar: Ccaron
Encoding: 268 268 38
Width: 792
GlyphClass: 1
Flags: W
LayerCount: 2
Fore
SplineSet
360 803 m 1,0,-1
 441 803 l 1,1,-1
 578 958 l 1,2,-1
 578 983 l 1,3,-1
 519 983 l 1,4,-1
 334 844 l 1,5,-1
 473 848 l 1,6,-1
 291 983 l 1,7,-1
 222 983 l 1,8,-1
 222 958 l 1,9,-1
 360 803 l 1,0,-1
405 645 m 0,10,11
 347 645 347 645 305.5 628.5 c 128,-1,12
 264 612 264 612 237 577 c 128,-1,13
 210 542 210 542 196.5 487 c 128,-1,14
 183 432 183 432 183 355 c 256,15,16
 183 278 183 278 197 222.5 c 128,-1,17
 211 167 211 167 239.5 131.5 c 128,-1,18
 268 96 268 96 311.5 79.5 c 128,-1,19
 355 63 355 63 416 63 c 0,20,21
 488 63 488 63 534.5 88.5 c 128,-1,22
 581 114 581 114 609 156.5 c 128,-1,23
 637 199 637 199 654 247 c 1,24,-1
 735 216 l 1,25,26
 712 140 712 140 668 86.5 c 128,-1,27
 624 33 624 33 559.5 4 c 128,-1,28
 495 -25 495 -25 409 -25 c 0,29,30
 330 -25 330 -25 266 -1 c 128,-1,31
 202 23 202 23 155.5 71 c 128,-1,32
 109 119 109 119 84.5 190 c 128,-1,33
 60 261 60 261 60 355 c 0,34,35
 60 451 60 451 85 522 c 128,-1,36
 110 593 110 593 155.5 640 c 128,-1,37
 201 687 201 687 263.5 711 c 128,-1,38
 326 735 326 735 401 735 c 0,39,40
 470 735 470 735 522 708 c 128,-1,41
 574 681 574 681 605.5 628 c 128,-1,42
 637 575 637 575 644 496 c 1,43,-1
 622 547 l 1,44,-1
 637 720 l 1,45,-1
 720 720 l 1,46,-1
 720 458 l 1,47,-1
 627 458 l 1,48,49
 612 513 612 513 583 555 c 128,-1,50
 554 597 554 597 510 621 c 128,-1,51
 466 645 466 645 405 645 c 0,10,11
EndSplineSet
EndChar

StartChar: D
Encoding: 68 68 40
Width: 819
GlyphClass: 2
Flags: W
AnchorPoint: "Anchor-1" 412 0 basechar 0
AnchorPoint: "Anchor-0" 412 741 basechar 0
LayerCount: 2
Fore
SplineSet
58 623 m 1,0,-1
 58 710 l 1,1,-1
 377 710 l 2,2,3
 467 710 467 710 538 688.5 c 128,-1,4
 609 667 609 667 658 623.5 c 128,-1,5
 707 580 707 580 733 514 c 128,-1,6
 759 448 759 448 759 359 c 0,7,8
 759 271 759 271 733 203.5 c 128,-1,9
 707 136 707 136 658 91 c 128,-1,10
 609 46 609 46 538 23 c 128,-1,11
 467 0 467 0 377 0 c 2,12,-1
 58 0 l 1,13,-1
 58 87 l 1,14,-1
 69 87 l 2,15,16
 97 87 97 87 119 94 c 128,-1,17
 141 101 141 101 141 123 c 2,18,-1
 141 587 l 2,19,20
 141 609 141 609 119 616 c 128,-1,21
 97 623 97 623 69 623 c 2,22,-1
 58 623 l 1,0,-1
374 623 m 2,23,-1
 257 623 l 1,24,-1
 257 87 l 1,25,-1
 374 87 l 2,26,27
 441 87 441 87 490 103.5 c 128,-1,28
 539 120 539 120 571.5 154 c 128,-1,29
 604 188 604 188 619.5 239 c 128,-1,30
 635 290 635 290 635 359 c 256,31,32
 635 428 635 428 619.5 477.5 c 128,-1,33
 604 527 604 527 571.5 559.5 c 128,-1,34
 539 592 539 592 490 607.5 c 128,-1,35
 441 623 441 623 374 623 c 2,23,-1
EndSplineSet
EndChar

StartChar: Dcaron
Encoding: 270 270 41
Width: 819
GlyphClass: 1
Flags: W
LayerCount: 2
Fore
SplineSet
360 803 m 1,0,-1
 442 803 l 1,1,-1
 579 958 l 1,2,-1
 579 983 l 1,3,-1
 520 983 l 1,4,-1
 335 844 l 1,5,-1
 474 848 l 1,6,-1
 292 983 l 1,7,-1
 223 983 l 1,8,-1
 223 958 l 1,9,-1
 360 803 l 1,0,-1
58 623 m 1,10,-1
 58 710 l 1,11,-1
 377 710 l 2,12,13
 467 710 467 710 538 688.5 c 128,-1,14
 609 667 609 667 658 623.5 c 128,-1,15
 707 580 707 580 733 514 c 128,-1,16
 759 448 759 448 759 359 c 0,17,18
 759 271 759 271 733 203.5 c 128,-1,19
 707 136 707 136 658 91 c 128,-1,20
 609 46 609 46 538 23 c 128,-1,21
 467 0 467 0 377 0 c 2,22,-1
 58 0 l 1,23,-1
 58 87 l 1,24,-1
 69 87 l 2,25,26
 97 87 97 87 119 94 c 128,-1,27
 141 101 141 101 141 123 c 2,28,-1
 141 587 l 2,29,30
 141 609 141 609 119 616 c 128,-1,31
 97 623 97 623 69 623 c 2,32,-1
 58 623 l 1,10,-1
374 623 m 2,33,-1
 257 623 l 1,34,-1
 257 87 l 1,35,-1
 374 87 l 2,36,37
 441 87 441 87 490 103.5 c 128,-1,38
 539 120 539 120 571.5 154 c 128,-1,39
 604 188 604 188 619.5 239 c 128,-1,40
 635 290 635 290 635 359 c 256,41,42
 635 428 635 428 619.5 477.5 c 128,-1,43
 604 527 604 527 571.5 559.5 c 128,-1,44
 539 592 539 592 490 607.5 c 128,-1,45
 441 623 441 623 374 623 c 2,33,-1
EndSplineSet
EndChar

StartChar: E
Encoding: 69 69 44
Width: 720
GlyphClass: 2
Flags: W
AnchorPoint: "Anchor-2" 498 0 basechar 0
AnchorPoint: "Anchor-1" 425 0 basechar 0
AnchorPoint: "Anchor-0" 425 741 basechar 0
LayerCount: 2
Fore
SplineSet
647 227 m 1,0,-1
 647 0 l 1,1,-1
 58 0 l 1,2,-1
 58 87 l 1,3,-1
 69 87 l 2,4,5
 97 87 97 87 119 94 c 128,-1,6
 141 101 141 101 141 123 c 2,7,-1
 141 587 l 2,8,9
 141 609 141 609 119 616 c 128,-1,10
 97 623 97 623 69 623 c 2,11,-1
 58 623 l 1,12,-1
 58 710 l 1,13,-1
 629 710 l 1,14,-1
 629 508 l 1,15,-1
 544 508 l 1,16,-1
 532 578 l 2,17,18
 529 596 529 596 516.5 605.5 c 128,-1,19
 504 615 504 615 479 619 c 128,-1,20
 454 623 454 623 413 623 c 2,21,-1
 257 623 l 1,22,-1
 257 87 l 1,23,-1
 426 87 l 2,24,25
 457 87 457 87 479 89 c 128,-1,26
 501 91 501 91 515.5 96.5 c 128,-1,27
 530 102 530 102 537 110.5 c 128,-1,28
 544 119 544 119 546 132 c 2,29,-1
 561 227 l 1,30,-1
 647 227 l 1,0,-1
240 406 m 1,31,32
 289 409 289 409 337 411.5 c 128,-1,33
 385 414 385 414 433 417 c 128,-1,34
 481 420 481 420 529 422 c 1,35,-1
 529 308 l 1,36,37
 481 311 481 311 433 314 c 128,-1,38
 385 317 385 317 337 319.5 c 128,-1,39
 289 322 289 322 240 324 c 1,40,-1
 240 406 l 1,31,32
EndSplineSet
Substitution2: "'ss01' Style Set 1 lookup 61 subtable" E.alt
EndChar

StartChar: Ecaron
Encoding: 282 282 53
Width: 720
GlyphClass: 1
Flags: W
LayerCount: 2
Fore
SplineSet
331 803 m 1,0,-1
 412 803 l 1,1,-1
 549 958 l 1,2,-1
 549 983 l 1,3,-1
 490 983 l 1,4,-1
 305 844 l 1,5,-1
 444 848 l 1,6,-1
 262 983 l 1,7,-1
 193 983 l 1,8,-1
 193 958 l 1,9,-1
 331 803 l 1,0,-1
647 227 m 1,10,-1
 647 0 l 1,11,-1
 58 0 l 1,12,-1
 58 87 l 1,13,-1
 69 87 l 2,14,15
 97 87 97 87 119 94 c 128,-1,16
 141 101 141 101 141 123 c 2,17,-1
 141 587 l 2,18,19
 141 609 141 609 119 616 c 128,-1,20
 97 623 97 623 69 623 c 2,21,-1
 58 623 l 1,22,-1
 58 710 l 1,23,-1
 629 710 l 1,24,-1
 629 508 l 1,25,-1
 544 508 l 1,26,-1
 532 578 l 2,27,28
 529 596 529 596 516.5 605.5 c 128,-1,29
 504 615 504 615 479 619 c 128,-1,30
 454 623 454 623 413 623 c 2,31,-1
 257 623 l 1,32,-1
 257 87 l 1,33,-1
 426 87 l 2,34,35
 457 87 457 87 479 89 c 128,-1,36
 501 91 501 91 515.5 96.5 c 128,-1,37
 530 102 530 102 537 110.5 c 128,-1,38
 544 119 544 119 546 132 c 2,39,-1
 561 227 l 1,40,-1
 647 227 l 1,10,-1
240 406 m 1,41,42
 289 409 289 409 337 411.5 c 128,-1,43
 385 414 385 414 433 417 c 128,-1,44
 481 420 481 420 529 422 c 1,45,-1
 529 308 l 1,46,47
 481 311 481 311 433 314 c 128,-1,48
 385 317 385 317 337 319.5 c 128,-1,49
 289 322 289 322 240 324 c 1,50,-1
 240 406 l 1,41,42
EndSplineSet
Substitution2: "'ss01' Style Set 1 lookup 61 subtable" Ecaron.alt
EndChar

StartChar: Edblgrave
Encoding: 516 516 54
Width: 720
GlyphClass: 1
Flags: W
LayerCount: 2
Fore
SplineSet
455 931 m 2,0,-1
 501 830 l 1,1,-1
 501 792 l 1,2,-1
 453 792 l 1,3,-1
 379 850 l 2,4,5
 356 867 356 867 343 886 c 128,-1,6
 330 905 330 905 330 929 c 0,7,8
 330 948 330 948 345.5 962 c 128,-1,9
 361 976 361 976 386 976 c 0,10,11
 404 976 404 976 417.5 970 c 128,-1,12
 431 964 431 964 440.5 953.5 c 128,-1,13
 450 943 450 943 455 931 c 2,0,-1
251 931 m 2,14,-1
 294 830 l 1,15,-1
 294 792 l 1,16,-1
 246 792 l 1,17,-1
 172 850 l 2,18,19
 149 867 149 867 136 886 c 128,-1,20
 123 905 123 905 123 929 c 0,21,22
 123 948 123 948 138.5 962 c 128,-1,23
 154 976 154 976 179 976 c 0,24,25
 197 976 197 976 211.5 970 c 128,-1,26
 226 964 226 964 235.5 953.5 c 128,-1,27
 245 943 245 943 251 931 c 2,14,-1
647 227 m 1,28,-1
 647 0 l 1,29,-1
 58 0 l 1,30,-1
 58 87 l 1,31,-1
 69 87 l 2,32,33
 97 87 97 87 119 94 c 128,-1,34
 141 101 141 101 141 123 c 2,35,-1
 141 587 l 2,36,37
 141 609 141 609 119 616 c 128,-1,38
 97 623 97 623 69 623 c 2,39,-1
 58 623 l 1,40,-1
 58 710 l 1,41,-1
 629 710 l 1,42,-1
 629 508 l 1,43,-1
 544 508 l 1,44,-1
 532 578 l 2,45,46
 529 596 529 596 516.5 605.5 c 128,-1,47
 504 615 504 615 479 619 c 128,-1,48
 454 623 454 623 413 623 c 2,49,-1
 257 623 l 1,50,-1
 257 87 l 1,51,-1
 426 87 l 2,52,53
 457 87 457 87 479 89 c 128,-1,54
 501 91 501 91 515.5 96 c 128,-1,55
 530 101 530 101 537 110 c 128,-1,56
 544 119 544 119 546 132 c 2,57,-1
 561 227 l 1,58,-1
 647 227 l 1,28,-1
240 406 m 1,59,60
 289 409 289 409 337 411.5 c 128,-1,61
 385 414 385 414 433.5 417 c 128,-1,62
 482 420 482 420 529 422 c 1,63,-1
 529 308 l 1,64,65
 482 311 482 311 433.5 314 c 128,-1,66
 385 317 385 317 337 319.5 c 128,-1,67
 289 322 289 322 240 324 c 1,68,-1
 240 406 l 1,59,60
EndSplineSet
Substitution2: "'ss01' Style Set 1 lookup 61 subtable" Edblgrave.alt
EndChar

StartChar: Einvertedbreve
Encoding: 518 518 55
Width: 720
GlyphClass: 1
Flags: W
LayerCount: 2
Fore
SplineSet
353 935 m 0,0,1
 292 935 292 935 251 917 c 128,-1,2
 210 899 210 899 188.5 860.5 c 128,-1,3
 167 822 167 822 166 759 c 1,4,-1
 250 759 l 1,5,6
 252 795 252 795 261.5 813.5 c 128,-1,7
 271 832 271 832 292.5 839 c 128,-1,8
 314 846 314 846 352 846 c 0,9,10
 388 846 388 846 409 839 c 128,-1,11
 430 832 430 832 439.5 813.5 c 128,-1,12
 449 795 449 795 451 759 c 1,13,-1
 540 759 l 1,14,15
 539 822 539 822 516.5 860.5 c 128,-1,16
 494 899 494 899 452.5 917 c 128,-1,17
 411 935 411 935 353 935 c 0,0,1
647 227 m 1,18,-1
 647 0 l 1,19,-1
 58 0 l 1,20,-1
 58 87 l 1,21,-1
 69 87 l 2,22,23
 97 87 97 87 119 94 c 128,-1,24
 141 101 141 101 141 123 c 2,25,-1
 141 587 l 2,26,27
 141 609 141 609 119 616 c 128,-1,28
 97 623 97 623 69 623 c 2,29,-1
 58 623 l 1,30,-1
 58 710 l 1,31,-1
 629 710 l 1,32,-1
 629 508 l 1,33,-1
 544 508 l 1,34,-1
 532 578 l 2,35,36
 529 596 529 596 516.5 605.5 c 128,-1,37
 504 615 504 615 479 619 c 128,-1,38
 454 623 454 623 413 623 c 2,39,-1
 257 623 l 1,40,-1
 257 87 l 1,41,-1
 426 87 l 2,42,43
 457 87 457 87 479 89 c 128,-1,44
 501 91 501 91 515.5 96 c 128,-1,45
 530 101 530 101 537 110 c 128,-1,46
 544 119 544 119 546 132 c 2,47,-1
 561 227 l 1,48,-1
 647 227 l 1,18,-1
240 406 m 1,49,50
 289 409 289 409 337 411.5 c 128,-1,51
 385 414 385 414 433.5 417 c 128,-1,52
 482 420 482 420 529 422 c 1,53,-1
 529 308 l 1,54,55
 482 311 482 311 433.5 314 c 128,-1,56
 385 317 385 317 337 319.5 c 128,-1,57
 289 322 289 322 240 324 c 1,58,-1
 240 406 l 1,49,50
EndSplineSet
Substitution2: "'ss01' Style Set 1 lookup 61 subtable" Einvertedbreve.alt
EndChar

StartChar: F
Encoding: 70 70 67
Width: 692
GlyphClass: 2
Flags: W
AnchorPoint: "Anchor-0" 312 741 basechar 0
LayerCount: 2
Fore
SplineSet
257 623 m 1,0,-1
 257 97 l 2,1,2
 257 95 257 95 265 93 c 128,-1,3
 273 91 273 91 286 89.5 c 128,-1,4
 299 88 299 88 315 87.5 c 128,-1,5
 331 87 331 87 349 87 c 2,6,-1
 369 87 l 1,7,-1
 369 0 l 1,8,-1
 58 0 l 1,9,-1
 58 87 l 1,10,-1
 69 87 l 2,11,12
 97 87 97 87 119 94 c 128,-1,13
 141 101 141 101 141 123 c 2,14,-1
 141 587 l 2,15,16
 141 609 141 609 119 616 c 128,-1,17
 97 623 97 623 69 623 c 2,18,-1
 58 623 l 1,19,-1
 58 710 l 1,20,-1
 629 710 l 1,21,-1
 629 505 l 1,22,-1
 544 505 l 1,23,-1
 531 578 l 2,24,25
 528 596 528 596 515.5 605.5 c 128,-1,26
 503 615 503 615 477.5 619 c 128,-1,27
 452 623 452 623 412 623 c 2,28,-1
 257 623 l 1,0,-1
240 395 m 1,29,30
 289 398 289 398 337 401 c 128,-1,31
 385 404 385 404 433 406.5 c 128,-1,32
 481 409 481 409 529 411 c 1,33,-1
 529 297 l 1,34,35
 482 300 482 300 433.5 303 c 128,-1,36
 385 306 385 306 337 308.5 c 128,-1,37
 289 311 289 311 240 313 c 1,38,-1
 240 395 l 1,29,30
EndSplineSet
Substitution2: "'ss01' Style Set 1 lookup 61 subtable" F.alt
EndChar

StartChar: G
Encoding: 71 71 68
Width: 845
GlyphClass: 2
Flags: W
AnchorPoint: "Anchor-1" 431 0 basechar 0
AnchorPoint: "Anchor-0" 431 741 basechar 0
LayerCount: 2
Fore
SplineSet
714 223 m 2,0,-1
 714 102 l 1,1,2
 699 83 699 83 672 61 c 128,-1,3
 645 39 645 39 606.5 19.5 c 128,-1,4
 568 0 568 0 520 -12.5 c 128,-1,5
 472 -25 472 -25 415 -25 c 0,6,7
 334 -25 334 -25 268.5 -1 c 128,-1,8
 203 23 203 23 156.5 71 c 128,-1,9
 110 119 110 119 85 190 c 128,-1,10
 60 261 60 261 60 355 c 0,11,12
 60 450 60 450 86.5 521 c 128,-1,13
 113 592 113 592 160.5 639.5 c 128,-1,14
 208 687 208 687 271.5 711 c 128,-1,15
 335 735 335 735 408 735 c 0,16,17
 476 735 476 735 525 710.5 c 128,-1,18
 574 686 574 686 603 639 c 128,-1,19
 632 592 632 592 642 523 c 1,20,-1
 621 574 l 1,21,-1
 635 720 l 1,22,-1
 718 720 l 1,23,-1
 718 485 l 1,24,-1
 632 485 l 1,25,26
 615 529 615 529 585 565.5 c 128,-1,27
 555 602 555 602 512 624.5 c 128,-1,28
 469 647 469 647 412 647 c 0,29,30
 357 647 357 647 314.5 630 c 128,-1,31
 272 613 272 613 243 577 c 128,-1,32
 214 541 214 541 198.5 486 c 128,-1,33
 183 431 183 431 183 355 c 256,34,35
 183 279 183 279 198.5 223.5 c 128,-1,36
 214 168 214 168 243.5 132.5 c 128,-1,37
 273 97 273 97 317 80 c 128,-1,38
 361 63 361 63 418 63 c 0,39,40
 474 63 474 63 510.5 75.5 c 128,-1,41
 547 88 547 88 569.5 104.5 c 128,-1,42
 592 121 592 121 603 132 c 1,43,-1
 603 223 l 2,44,45
 603 248 603 248 575.5 255.5 c 128,-1,46
 548 263 548 263 511 263 c 2,47,-1
 480 263 l 1,48,-1
 480 350 l 1,49,-1
 811 350 l 1,50,-1
 811 263 l 1,51,-1
 786 263 l 2,52,53
 750 263 750 263 732 255.5 c 128,-1,54
 714 248 714 248 714 223 c 2,0,-1
EndSplineSet
EndChar

StartChar: Gcaron
Encoding: 486 486 73
Width: 845
GlyphClass: 1
Flags: W
LayerCount: 2
Fore
SplineSet
379 803 m 1,0,-1
 461 803 l 1,1,-1
 598 958 l 1,2,-1
 598 983 l 1,3,-1
 539 983 l 1,4,-1
 354 844 l 1,5,-1
 493 848 l 1,6,-1
 311 983 l 1,7,-1
 242 983 l 1,8,-1
 242 958 l 1,9,-1
 379 803 l 1,0,-1
714 223 m 2,10,-1
 714 102 l 1,11,12
 699 83 699 83 672 61 c 128,-1,13
 645 39 645 39 606.5 19.5 c 128,-1,14
 568 0 568 0 520 -12.5 c 128,-1,15
 472 -25 472 -25 415 -25 c 0,16,17
 334 -25 334 -25 268.5 -1 c 128,-1,18
 203 23 203 23 156.5 71 c 128,-1,19
 110 119 110 119 85 190 c 128,-1,20
 60 261 60 261 60 355 c 0,21,22
 60 450 60 450 86.5 521 c 128,-1,23
 113 592 113 592 160.5 639.5 c 128,-1,24
 208 687 208 687 271.5 711 c 128,-1,25
 335 735 335 735 408 735 c 0,26,27
 476 735 476 735 525 710.5 c 128,-1,28
 574 686 574 686 603 639 c 128,-1,29
 632 592 632 592 642 523 c 1,30,-1
 621 574 l 1,31,-1
 635 720 l 1,32,-1
 718 720 l 1,33,-1
 718 485 l 1,34,-1
 632 485 l 1,35,36
 615 529 615 529 585 565.5 c 128,-1,37
 555 602 555 602 512 624.5 c 128,-1,38
 469 647 469 647 412 647 c 0,39,40
 357 647 357 647 314.5 630 c 128,-1,41
 272 613 272 613 243 577 c 128,-1,42
 214 541 214 541 198.5 486 c 128,-1,43
 183 431 183 431 183 355 c 256,44,45
 183 279 183 279 198.5 223.5 c 128,-1,46
 214 168 214 168 243.5 132.5 c 128,-1,47
 273 97 273 97 317 80 c 128,-1,48
 361 63 361 63 418 63 c 0,49,50
 474 63 474 63 510.5 75.5 c 128,-1,51
 547 88 547 88 569.5 104.5 c 128,-1,52
 592 121 592 121 603 132 c 1,53,-1
 603 223 l 2,54,55
 603 248 603 248 575.5 255.5 c 128,-1,56
 548 263 548 263 511 263 c 2,57,-1
 480 263 l 1,58,-1
 480 350 l 1,59,-1
 811 350 l 1,60,-1
 811 263 l 1,61,-1
 786 263 l 2,62,63
 750 263 750 263 732 255.5 c 128,-1,64
 714 248 714 248 714 223 c 2,10,-1
EndSplineSet
EndChar

StartChar: H
Encoding: 72 72 75
Width: 871
GlyphClass: 2
Flags: W
AnchorPoint: "Anchor-1" 436 0 basechar 0
AnchorPoint: "Anchor-0" 436 741 basechar 0
LayerCount: 2
Fore
SplineSet
226 410 m 1,0,-1
 641 410 l 1,1,-1
 641 322 l 1,2,-1
 226 322 l 1,3,-1
 226 410 l 1,0,-1
58 0 m 1,4,-1
 58 87 l 1,5,-1
 69 87 l 2,6,7
 97 87 97 87 119 94 c 128,-1,8
 141 101 141 101 141 123 c 2,9,-1
 141 587 l 2,10,11
 141 609 141 609 119 616 c 128,-1,12
 97 623 97 623 69 623 c 2,13,-1
 58 623 l 1,14,-1
 58 710 l 1,15,-1
 349 710 l 1,16,-1
 349 623 l 1,17,-1
 340 623 l 2,18,19
 327 623 327 623 312 622.5 c 128,-1,20
 297 622 297 622 284.5 620.5 c 128,-1,21
 272 619 272 619 264.5 617.5 c 128,-1,22
 257 616 257 616 257 613 c 2,23,-1
 257 97 l 2,24,25
 257 94 257 94 264.5 92.5 c 128,-1,26
 272 91 272 91 284.5 89.5 c 128,-1,27
 297 88 297 88 312 87.5 c 128,-1,28
 327 87 327 87 340 87 c 2,29,-1
 349 87 l 1,30,-1
 349 0 l 1,31,-1
 58 0 l 1,4,-1
523 0 m 1,32,-1
 523 87 l 1,33,-1
 531 87 l 2,34,35
 545 87 545 87 559.5 87.5 c 128,-1,36
 574 88 574 88 586.5 89.5 c 128,-1,37
 599 91 599 91 606.5 92.5 c 128,-1,38
 614 94 614 94 614 97 c 2,39,-1
 614 613 l 2,40,41
 614 616 614 616 606.5 617.5 c 128,-1,42
 599 619 599 619 586.5 620.5 c 128,-1,43
 574 622 574 622 559.5 622.5 c 128,-1,44
 545 623 545 623 531 623 c 2,45,-1
 523 623 l 1,46,-1
 523 710 l 1,47,-1
 814 710 l 1,48,-1
 814 623 l 1,49,-1
 803 623 l 2,50,51
 774 623 774 623 752 616 c 128,-1,52
 730 609 730 609 730 587 c 2,53,-1
 730 123 l 2,54,55
 730 101 730 101 752 94 c 128,-1,56
 774 87 774 87 803 87 c 2,57,-1
 814 87 l 1,58,-1
 814 0 l 1,59,-1
 523 0 l 1,32,-1
EndSplineSet
EndChar

StartChar: I
Encoding: 73 73 79
Width: 425
GlyphClass: 2
Flags: W
AnchorPoint: "Anchor-2" 280 0 basechar 0
AnchorPoint: "Anchor-1" 213 0 basechar 0
AnchorPoint: "Anchor-0" 213 741 basechar 0
LayerCount: 2
Fore
SplineSet
155 123 m 2,0,-1
 155 587 l 2,1,2
 155 609 155 609 132 616 c 128,-1,3
 109 623 109 623 78 623 c 2,4,-1
 58 623 l 1,5,-1
 58 710 l 1,6,-1
 368 710 l 1,7,-1
 368 623 l 1,8,-1
 348 623 l 2,9,10
 316 623 316 623 293.5 616 c 128,-1,11
 271 609 271 609 271 587 c 2,12,-1
 271 123 l 2,13,14
 271 101 271 101 293.5 94 c 128,-1,15
 316 87 316 87 348 87 c 2,16,-1
 368 87 l 1,17,-1
 368 0 l 1,18,-1
 58 0 l 1,19,-1
 58 87 l 1,20,-1
 78 87 l 2,21,22
 109 87 109 87 132 94 c 128,-1,23
 155 101 155 101 155 123 c 2,0,-1
EndSplineSet
EndChar

StartChar: Icaron
Encoding: 463 463 89
Width: 425
GlyphClass: 1
Flags: W
LayerCount: 2
Fore
SplineSet
172 803 m 1,0,-1
 254 803 l 1,1,-1
 390 958 l 1,2,-1
 390 983 l 1,3,-1
 332 983 l 1,4,-1
 147 844 l 1,5,-1
 285 848 l 1,6,-1
 103 983 l 1,7,-1
 35 983 l 1,8,-1
 35 958 l 1,9,-1
 172 803 l 1,0,-1
155 123 m 2,10,-1
 155 587 l 2,11,12
 155 609 155 609 132 616 c 128,-1,13
 109 623 109 623 78 623 c 2,14,-1
 58 623 l 1,15,-1
 58 710 l 1,16,-1
 368 710 l 1,17,-1
 368 623 l 1,18,-1
 348 623 l 2,19,20
 316 623 316 623 293.5 616 c 128,-1,21
 271 609 271 609 271 587 c 2,22,-1
 271 123 l 2,23,24
 271 101 271 101 293.5 94 c 128,-1,25
 316 87 316 87 348 87 c 2,26,-1
 368 87 l 1,27,-1
 368 0 l 1,28,-1
 58 0 l 1,29,-1
 58 87 l 1,30,-1
 78 87 l 2,31,32
 109 87 109 87 132 94 c 128,-1,33
 155 101 155 101 155 123 c 2,10,-1
EndSplineSet
EndChar

StartChar: Idblgrave
Encoding: 520 520 90
Width: 425
GlyphClass: 1
Flags: W
LayerCount: 2
Fore
SplineSet
314 931 m 2,0,-1
 360 830 l 1,1,-1
 360 792 l 1,2,-1
 311 792 l 1,3,-1
 238 850 l 2,4,5
 214 867 214 867 201.5 886 c 128,-1,6
 189 905 189 905 189 929 c 0,7,8
 189 948 189 948 204 962 c 128,-1,9
 219 976 219 976 244 976 c 0,10,11
 263 976 263 976 276.5 970 c 128,-1,12
 290 964 290 964 299 953.5 c 128,-1,13
 308 943 308 943 314 931 c 2,0,-1
110 931 m 2,14,-1
 153 830 l 1,15,-1
 153 792 l 1,16,-1
 104 792 l 1,17,-1
 31 850 l 2,18,19
 7 867 7 867 -5.5 886 c 128,-1,20
 -18 905 -18 905 -18 929 c 0,21,22
 -18 948 -18 948 -3 962 c 128,-1,23
 12 976 12 976 37 976 c 0,24,25
 56 976 56 976 70 970 c 128,-1,26
 84 964 84 964 94 953.5 c 128,-1,27
 104 943 104 943 110 931 c 2,14,-1
155 123 m 2,28,-1
 155 587 l 2,29,30
 155 609 155 609 132 616 c 128,-1,31
 109 623 109 623 78 623 c 2,32,-1
 58 623 l 1,33,-1
 58 710 l 1,34,-1
 368 710 l 1,35,-1
 368 623 l 1,36,-1
 348 623 l 2,37,38
 316 623 316 623 293.5 616 c 128,-1,39
 271 609 271 609 271 587 c 2,40,-1
 271 123 l 2,41,42
 271 101 271 101 293.5 94 c 128,-1,43
 316 87 316 87 348 87 c 2,44,-1
 368 87 l 1,45,-1
 368 0 l 1,46,-1
 58 0 l 1,47,-1
 58 87 l 1,48,-1
 78 87 l 2,49,50
 109 87 109 87 132 94 c 128,-1,51
 155 101 155 101 155 123 c 2,28,-1
EndSplineSet
EndChar

StartChar: Iinvertedbreve
Encoding: 522 522 91
Width: 425
GlyphClass: 1
Flags: W
LayerCount: 2
Fore
SplineSet
213 935 m 0,0,1
 153 935 153 935 111.5 917 c 128,-1,2
 70 899 70 899 48.5 860.5 c 128,-1,3
 27 822 27 822 26 759 c 1,4,-1
 110 759 l 1,5,6
 112 795 112 795 121.5 813.5 c 128,-1,7
 131 832 131 832 153 839 c 128,-1,8
 175 846 175 846 213 846 c 0,9,10
 248 846 248 846 269 839 c 128,-1,11
 290 832 290 832 300 813.5 c 128,-1,12
 310 795 310 795 311 759 c 1,13,-1
 400 759 l 1,14,15
 400 822 400 822 377 860.5 c 128,-1,16
 354 899 354 899 312.5 917 c 128,-1,17
 271 935 271 935 213 935 c 0,0,1
155 123 m 2,18,-1
 155 587 l 2,19,20
 155 609 155 609 132 616 c 128,-1,21
 109 623 109 623 78 623 c 2,22,-1
 58 623 l 1,23,-1
 58 710 l 1,24,-1
 368 710 l 1,25,-1
 368 623 l 1,26,-1
 348 623 l 2,27,28
 316 623 316 623 293.5 616 c 128,-1,29
 271 609 271 609 271 587 c 2,30,-1
 271 123 l 2,31,32
 271 101 271 101 293.5 94 c 128,-1,33
 316 87 316 87 348 87 c 2,34,-1
 368 87 l 1,35,-1
 368 0 l 1,36,-1
 58 0 l 1,37,-1
 58 87 l 1,38,-1
 78 87 l 2,39,40
 109 87 109 87 132 94 c 128,-1,41
 155 101 155 101 155 123 c 2,18,-1
EndSplineSet
EndChar

StartChar: J
Encoding: 74 74 94
Width: 677
GlyphClass: 2
Flags: W
AnchorPoint: "Anchor-0" 455 741 basechar 0
LayerCount: 2
Fore
SplineSet
314 710 m 1,0,-1
 630 710 l 1,1,-1
 630 623 l 1,2,-1
 610 623 l 2,3,4
 581 623 581 623 559.5 616 c 128,-1,5
 538 609 538 609 538 587 c 2,6,-1
 538 213 l 2,7,8
 538 149 538 149 518.5 103.5 c 128,-1,9
 499 58 499 58 463.5 29.5 c 128,-1,10
 428 1 428 1 380.5 -12 c 128,-1,11
 333 -25 333 -25 277 -25 c 0,12,13
 218 -25 218 -25 174 -11.5 c 128,-1,14
 130 2 130 2 100.5 20 c 128,-1,15
 71 38 71 38 53 53 c 1,16,-1
 53 231 l 1,17,-1
 181 231 l 1,18,-1
 181 46 l 1,19,20
 163 51 163 51 149 62 c 128,-1,21
 135 73 135 73 127.5 85 c 128,-1,22
 120 97 120 97 120 106 c 128,-1,23
 120 115 120 115 130 115 c 1,24,25
 144 104 144 104 164.5 92 c 128,-1,26
 185 80 185 80 212.5 71.5 c 128,-1,27
 240 63 240 63 276 63 c 0,28,29
 323 63 323 63 355.5 76 c 128,-1,30
 388 89 388 89 404.5 122.5 c 128,-1,31
 421 156 421 156 421 216 c 2,32,-1
 421 587 l 2,33,34
 421 602 421 602 410.5 609.5 c 128,-1,35
 400 617 400 617 381 620 c 128,-1,36
 362 623 362 623 339 623 c 2,37,-1
 314 623 l 1,38,-1
 314 710 l 1,0,-1
EndSplineSet
EndChar

StartChar: K
Encoding: 75 75 96
Width: 802
GlyphClass: 2
Flags: W
AnchorPoint: "Anchor-1" 413 0 basechar 0
AnchorPoint: "Anchor-0" 413 741 basechar 0
LayerCount: 2
Fore
SplineSet
58 0 m 1,0,-1
 58 87 l 1,1,-1
 69 87 l 2,2,3
 97 87 97 87 119 94 c 128,-1,4
 141 101 141 101 141 123 c 2,5,-1
 141 587 l 2,6,7
 141 609 141 609 119 616 c 128,-1,8
 97 623 97 623 69 623 c 2,9,-1
 58 623 l 1,10,-1
 58 710 l 1,11,-1
 346 710 l 1,12,-1
 346 623 l 1,13,-1
 336 623 l 2,14,15
 324 623 324 623 310 622.5 c 128,-1,16
 296 622 296 622 284 620.5 c 128,-1,17
 272 619 272 619 264.5 617.5 c 128,-1,18
 257 616 257 616 257 613 c 2,19,-1
 257 97 l 2,20,21
 257 94 257 94 264.5 92.5 c 128,-1,22
 272 91 272 91 284 89.5 c 128,-1,23
 296 88 296 88 309.5 87.5 c 128,-1,24
 323 87 323 87 335 87 c 2,25,-1
 343 87 l 1,26,-1
 343 0 l 1,27,-1
 58 0 l 1,0,-1
464 0 m 1,28,-1
 464 87 l 1,29,-1
 474 87 l 2,30,31
 493 87 493 87 511 88 c 128,-1,32
 529 89 529 89 540 91.5 c 128,-1,33
 551 94 551 94 551 97 c 2,34,-1
 305 344 l 1,35,-1
 305 373 l 1,36,-1
 563 612 l 2,37,38
 563 616 563 616 552.5 618 c 128,-1,39
 542 620 542 620 525 621.5 c 128,-1,40
 508 623 508 623 490 623 c 2,41,-1
 480 623 l 1,42,-1
 480 710 l 1,43,-1
 745 710 l 1,44,-1
 745 623 l 1,45,-1
 721 623 l 2,46,47
 711 623 711 623 700.5 620 c 128,-1,48
 690 617 690 617 678.5 611 c 128,-1,49
 667 605 667 605 655 593 c 2,50,-1
 396 356 l 1,51,-1
 395 406 l 1,52,-1
 693 108 l 2,53,54
 703 100 703 100 712.5 95 c 128,-1,55
 722 90 722 90 733 88.5 c 128,-1,56
 744 87 744 87 755 87 c 2,57,-1
 772 87 l 1,58,-1
 772 0 l 1,59,-1
 464 0 l 1,28,-1
EndSplineSet
EndChar

StartChar: L
Encoding: 76 76 98
Width: 669
GlyphClass: 2
Flags: W
AnchorPoint: "Anchor-2" 509 710 basechar 0
AnchorPoint: "Anchor-1" 410 0 basechar 0
AnchorPoint: "Anchor-0" 410 741 basechar 0
LayerCount: 2
Fore
SplineSet
361 710 m 1,0,-1
 58 710 l 1,1,-1
 58 623 l 1,2,-1
 69 623 l 2,3,4
 97 623 97 623 119 616 c 128,-1,5
 141 609 141 609 141 587 c 2,6,-1
 141 123 l 2,7,8
 141 101 141 101 119 94 c 128,-1,9
 97 87 97 87 69 87 c 2,10,-1
 58 87 l 1,11,-1
 58 0 l 1,12,-1
 620 0 l 1,13,-1
 620 240 l 1,14,-1
 533 240 l 1,15,-1
 518 132 l 2,16,17
 516 114 516 114 504 104 c 128,-1,18
 492 94 492 94 466 90.5 c 128,-1,19
 440 87 440 87 398 87 c 2,20,-1
 257 87 l 1,21,-1
 257 587 l 2,22,23
 257 609 257 609 282 616 c 128,-1,24
 307 623 307 623 345 623 c 2,25,-1
 361 623 l 1,26,-1
 361 710 l 1,0,-1
EndSplineSet
EndChar

StartChar: M
Encoding: 77 77 104
Width: 1008
GlyphClass: 2
Flags: W
AnchorPoint: "Anchor-1" 492 0 basechar 0
LayerCount: 2
Fore
SplineSet
59 0 m 1,0,-1
 59 87 l 1,1,-1
 70 87 l 2,2,3
 89 87 89 87 104.5 90 c 128,-1,4
 120 93 120 93 130.5 101 c 128,-1,5
 141 109 141 109 141 123 c 2,6,-1
 141 587 l 2,7,8
 141 602 141 602 130.5 609.5 c 128,-1,9
 120 617 120 617 104.5 620 c 128,-1,10
 89 623 89 623 70 623 c 2,11,-1
 59 623 l 1,12,-1
 59 710 l 1,13,-1
 331 710 l 1,14,-1
 522 128 l 1,15,-1
 474 110 l 1,16,-1
 683 710 l 1,17,-1
 948 710 l 1,18,-1
 948 623 l 1,19,-1
 937 623 l 2,20,21
 910 623 910 623 887.5 616 c 128,-1,22
 865 609 865 609 865 587 c 2,23,-1
 865 123 l 2,24,25
 865 101 865 101 887.5 94 c 128,-1,26
 910 87 910 87 937 87 c 2,27,-1
 948 87 l 1,28,-1
 948 0 l 1,29,-1
 667 0 l 1,30,-1
 667 87 l 1,31,-1
 676 87 l 2,32,33
 691 87 691 87 708 88 c 128,-1,34
 725 89 725 89 738 91.5 c 128,-1,35
 751 94 751 94 751 97 c 2,36,-1
 751 691 l 1,37,-1
 773 700 l 1,38,-1
 523 -3 l 1,39,-1
 453 -3 l 1,40,-1
 215 699 l 1,41,-1
 236 689 l 1,42,-1
 236 97 l 2,43,44
 236 94 236 94 247.5 91.5 c 128,-1,45
 259 89 259 89 273 88 c 128,-1,46
 287 87 287 87 294 87 c 2,47,-1
 298 87 l 1,48,-1
 298 0 l 1,49,-1
 59 0 l 1,0,-1
EndSplineSet
EndChar

StartChar: N
Encoding: 78 78 106
Width: 846
GlyphClass: 2
Flags: W
AnchorPoint: "Anchor-1" 433 0 basechar 0
AnchorPoint: "Anchor-0" 433 741 basechar 0
LayerCount: 2
Fore
SplineSet
59 0 m 1,0,-1
 59 87 l 1,1,-1
 70 87 l 2,2,3
 90 87 90 87 106 90 c 128,-1,4
 122 93 122 93 132 101 c 128,-1,5
 142 109 142 109 142 123 c 2,6,-1
 142 587 l 2,7,8
 142 602 142 602 132 609.5 c 128,-1,9
 122 617 122 617 106 620 c 128,-1,10
 90 623 90 623 70 623 c 2,11,-1
 59 623 l 1,12,-1
 59 710 l 1,13,-1
 299 710 l 1,14,-1
 655 101 l 1,15,-1
 620 96 l 1,16,-1
 620 613 l 2,17,18
 620 617 620 617 608 619 c 128,-1,19
 596 621 596 621 580.5 622 c 128,-1,20
 565 623 565 623 553 623 c 2,21,-1
 539 623 l 1,22,-1
 539 710 l 1,23,-1
 797 710 l 1,24,-1
 797 623 l 1,25,-1
 786 623 l 2,26,27
 768 623 768 623 751.5 619.5 c 128,-1,28
 735 616 735 616 725.5 609 c 128,-1,29
 716 602 716 602 716 587 c 2,30,-1
 716 0 l 1,31,-1
 589 0 l 1,32,-1
 198 666 l 1,33,-1
 237 667 l 1,34,-1
 237 97 l 2,35,36
 237 94 237 94 249 91.5 c 128,-1,37
 261 89 261 89 277 88 c 128,-1,38
 293 87 293 87 304 87 c 2,39,-1
 318 87 l 1,40,-1
 318 0 l 1,41,-1
 59 0 l 1,0,-1
EndSplineSet
EndChar

StartChar: Ncaron
Encoding: 327 327 110
Width: 846
GlyphClass: 1
Flags: W
LayerCount: 2
Fore
SplineSet
392 803 m 1,0,-1
 474 803 l 1,1,-1
 610 958 l 1,2,-1
 610 983 l 1,3,-1
 552 983 l 1,4,-1
 367 844 l 1,5,-1
 505 848 l 1,6,-1
 323 983 l 1,7,-1
 255 983 l 1,8,-1
 255 958 l 1,9,-1
 392 803 l 1,0,-1
59 0 m 1,10,-1
 59 87 l 1,11,-1
 70 87 l 2,12,13
 90 87 90 87 106 90 c 128,-1,14
 122 93 122 93 132 101 c 128,-1,15
 142 109 142 109 142 123 c 2,16,-1
 142 587 l 2,17,18
 142 602 142 602 132 609.5 c 128,-1,19
 122 617 122 617 106 620 c 128,-1,20
 90 623 90 623 70 623 c 2,21,-1
 59 623 l 1,22,-1
 59 710 l 1,23,-1
 299 710 l 1,24,-1
 655 101 l 1,25,-1
 620 96 l 1,26,-1
 620 613 l 2,27,28
 620 617 620 617 608 619 c 128,-1,29
 596 621 596 621 580.5 622 c 128,-1,30
 565 623 565 623 553 623 c 2,31,-1
 539 623 l 1,32,-1
 539 710 l 1,33,-1
 797 710 l 1,34,-1
 797 623 l 1,35,-1
 786 623 l 2,36,37
 768 623 768 623 751.5 619.5 c 128,-1,38
 735 616 735 616 725.5 609 c 128,-1,39
 716 602 716 602 716 587 c 2,40,-1
 716 0 l 1,41,-1
 589 0 l 1,42,-1
 198 666 l 1,43,-1
 237 667 l 1,44,-1
 237 97 l 2,45,46
 237 94 237 94 249 91.5 c 128,-1,47
 261 89 261 89 277 88 c 128,-1,48
 293 87 293 87 304 87 c 2,49,-1
 318 87 l 1,50,-1
 318 0 l 1,51,-1
 59 0 l 1,10,-1
EndSplineSet
EndChar

StartChar: O
Encoding: 79 79 114
Width: 833
GlyphClass: 2
Flags: W
AnchorPoint: "Anchor-2" 458 0 basechar 0
AnchorPoint: "Anchor-1" 416 0 basechar 0
AnchorPoint: "Anchor-0" 416 741 basechar 0
LayerCount: 2
Fore
SplineSet
416 -25 m 0,0,1
 337 -25 337 -25 271.5 0 c 128,-1,2
 206 25 206 25 158.5 73 c 128,-1,3
 111 121 111 121 85.5 192 c 128,-1,4
 60 263 60 263 60 355 c 0,5,6
 60 448 60 448 85.5 518.5 c 128,-1,7
 111 589 111 589 158.5 637.5 c 128,-1,8
 206 686 206 686 271.5 710.5 c 128,-1,9
 337 735 337 735 416 735 c 0,10,11
 497 735 497 735 562.5 710.5 c 128,-1,12
 628 686 628 686 675 637.5 c 128,-1,13
 722 589 722 589 747.5 518.5 c 128,-1,14
 773 448 773 448 773 355 c 0,15,16
 773 263 773 263 747.5 192 c 128,-1,17
 722 121 722 121 675 73 c 128,-1,18
 628 25 628 25 562.5 0 c 128,-1,19
 497 -25 497 -25 416 -25 c 0,0,1
416 65 m 0,20,21
 474 65 474 65 518 82 c 128,-1,22
 562 99 562 99 591 134.5 c 128,-1,23
 620 170 620 170 635 224.5 c 128,-1,24
 650 279 650 279 650 355 c 256,25,26
 650 431 650 431 635 485.5 c 128,-1,27
 620 540 620 540 591 575.5 c 128,-1,28
 562 611 562 611 518 628 c 128,-1,29
 474 645 474 645 416 645 c 0,30,31
 359 645 359 645 315 628 c 128,-1,32
 271 611 271 611 242 575.5 c 128,-1,33
 213 540 213 540 198 485.5 c 128,-1,34
 183 431 183 431 183 355 c 256,35,36
 183 279 183 279 198 224.5 c 128,-1,37
 213 170 213 170 242.5 134.5 c 128,-1,38
 272 99 272 99 315.5 82 c 128,-1,39
 359 65 359 65 416 65 c 0,20,21
EndSplineSet
EndChar

StartChar: Ohorn
Encoding: 416 416 123
Width: 889
GlyphClass: 2
Flags: W
AnchorPoint: "Anchor-1" 441 -35 basechar 0
AnchorPoint: "Anchor-0" 441 742 basechar 0
LayerCount: 2
Fore
SplineSet
416 65 m 0,0,1
 475 65 475 65 519 81.5 c 128,-1,2
 563 98 563 98 592 133 c 128,-1,3
 621 168 621 168 635.5 223 c 128,-1,4
 650 278 650 278 650 355 c 256,5,6
 650 432 650 432 635.5 487 c 128,-1,7
 621 542 621 542 592 577 c 128,-1,8
 563 612 563 612 519 628.5 c 128,-1,9
 475 645 475 645 416 645 c 0,10,11
 358 645 358 645 314 628.5 c 128,-1,12
 270 612 270 612 241 577 c 128,-1,13
 212 542 212 542 197.5 487 c 128,-1,14
 183 432 183 432 183 355 c 256,15,16
 183 278 183 278 197.5 223 c 128,-1,17
 212 168 212 168 241 133 c 128,-1,18
 270 98 270 98 314 81.5 c 128,-1,19
 358 65 358 65 416 65 c 0,0,1
624 618 m 1,20,-1
 588 660 l 1,21,22
 628 640 628 640 661.5 611.5 c 128,-1,23
 695 583 695 583 720 546 c 128,-1,24
 745 509 745 509 759 461.5 c 128,-1,25
 773 414 773 414 773 354 c 0,26,27
 773 262 773 262 747.5 191.5 c 128,-1,28
 722 121 722 121 675 72.5 c 128,-1,29
 628 24 628 24 562.5 -0.5 c 128,-1,30
 497 -25 497 -25 416 -25 c 0,31,32
 337 -25 337 -25 271.5 -0.5 c 128,-1,33
 206 24 206 24 158.5 72.5 c 128,-1,34
 111 121 111 121 85.5 192 c 128,-1,35
 60 263 60 263 60 355 c 0,36,37
 60 448 60 448 85.5 518.5 c 128,-1,38
 111 589 111 589 158.5 637.5 c 128,-1,39
 206 686 206 686 271.5 710.5 c 128,-1,40
 337 735 337 735 416 735 c 0,41,42
 467 735 467 735 504.5 729.5 c 128,-1,43
 542 724 542 724 571.5 717 c 128,-1,44
 601 710 601 710 626.5 704.5 c 128,-1,45
 652 699 652 699 680 699 c 0,46,47
 710 699 710 699 731 711.5 c 128,-1,48
 752 724 752 724 766 749 c 128,-1,49
 780 774 780 774 788 811.5 c 128,-1,50
 796 849 796 849 799 898 c 1,51,-1
 906 898 l 1,52,53
 903 824 903 824 888 770 c 128,-1,54
 873 716 873 716 847.5 680 c 128,-1,55
 822 644 822 644 791 626.5 c 128,-1,56
 760 609 760 609 727 609 c 0,57,58
 708 609 708 609 689.5 612.5 c 128,-1,59
 671 616 671 616 653 622.5 c 128,-1,60
 635 629 635 629 616.5 637.5 c 128,-1,61
 598 646 598 646 577 656 c 1,62,-1
 624 654 l 1,63,-1
 624 618 l 1,20,-1
EndSplineSet
EndChar

StartChar: Ocaron
Encoding: 465 465 124
Width: 832
GlyphClass: 1
Flags: W
LayerCount: 2
Fore
SplineSet
375 803 m 1,0,-1
 457 803 l 1,1,-1
 593 958 l 1,2,-1
 593 983 l 1,3,-1
 535 983 l 1,4,-1
 350 844 l 1,5,-1
 488 848 l 1,6,-1
 306 983 l 1,7,-1
 238 983 l 1,8,-1
 238 958 l 1,9,-1
 375 803 l 1,0,-1
416 -25 m 0,10,11
 337 -25 337 -25 271.5 0 c 128,-1,12
 206 25 206 25 158.5 73 c 128,-1,13
 111 121 111 121 85.5 192 c 128,-1,14
 60 263 60 263 60 355 c 0,15,16
 60 448 60 448 85.5 518.5 c 128,-1,17
 111 589 111 589 158.5 637.5 c 128,-1,18
 206 686 206 686 271.5 710.5 c 128,-1,19
 337 735 337 735 416 735 c 0,20,21
 497 735 497 735 562.5 710.5 c 128,-1,22
 628 686 628 686 675 637.5 c 128,-1,23
 722 589 722 589 747.5 518.5 c 128,-1,24
 773 448 773 448 773 355 c 0,25,26
 773 263 773 263 747.5 192 c 128,-1,27
 722 121 722 121 675 73 c 128,-1,28
 628 25 628 25 562.5 0 c 128,-1,29
 497 -25 497 -25 416 -25 c 0,10,11
416 65 m 0,30,31
 474 65 474 65 518 82 c 128,-1,32
 562 99 562 99 591 134.5 c 128,-1,33
 620 170 620 170 635 224.5 c 128,-1,34
 650 279 650 279 650 355 c 256,35,36
 650 431 650 431 635 485.5 c 128,-1,37
 620 540 620 540 591 575.5 c 128,-1,38
 562 611 562 611 518 628 c 128,-1,39
 474 645 474 645 416 645 c 0,40,41
 359 645 359 645 315 628 c 128,-1,42
 271 611 271 611 242 575.5 c 128,-1,43
 213 540 213 540 198 485.5 c 128,-1,44
 183 431 183 431 183 355 c 256,45,46
 183 279 183 279 198 224.5 c 128,-1,47
 213 170 213 170 242.5 134.5 c 128,-1,48
 272 99 272 99 315.5 82 c 128,-1,49
 359 65 359 65 416 65 c 0,30,31
EndSplineSet
EndChar

StartChar: Oogonek
Encoding: 490 490 125
Width: 833
GlyphClass: 1
Flags: W
LayerCount: 2
Fore
SplineSet
416 65 m 0,0,1
 476 65 476 65 519.5 81.5 c 128,-1,2
 563 98 563 98 592 133 c 128,-1,3
 621 168 621 168 635.5 223 c 128,-1,4
 650 278 650 278 650 355 c 256,5,6
 650 432 650 432 635.5 487 c 128,-1,7
 621 542 621 542 592 577 c 128,-1,8
 563 612 563 612 519.5 628.5 c 128,-1,9
 476 645 476 645 416 645 c 0,10,11
 358 645 358 645 314.5 628.5 c 128,-1,12
 271 612 271 612 242 577 c 128,-1,13
 213 542 213 542 198 487 c 128,-1,14
 183 432 183 432 183 355 c 256,15,16
 183 278 183 278 198 223 c 128,-1,17
 213 168 213 168 242 133 c 128,-1,18
 271 98 271 98 314.5 81.5 c 128,-1,19
 358 65 358 65 416 65 c 0,0,1
671 71 m 0,20,21
 650 51 650 51 623 29.5 c 128,-1,22
 596 8 596 8 568.5 -14 c 128,-1,23
 541 -36 541 -36 517 -58.5 c 128,-1,24
 493 -81 493 -81 478.5 -103 c 128,-1,25
 464 -125 464 -125 464 -146 c 0,26,27
 464 -162 464 -162 475 -172 c 128,-1,28
 486 -182 486 -182 510 -182 c 0,29,30
 538 -182 538 -182 558 -167.5 c 128,-1,31
 578 -153 578 -153 591 -138 c 1,32,-1
 638 -182 l 1,33,34
 621 -202 621 -202 599 -218 c 128,-1,35
 577 -234 577 -234 549 -243 c 128,-1,36
 521 -252 521 -252 483 -252 c 0,37,38
 442 -252 442 -252 410 -242 c 128,-1,39
 378 -232 378 -232 360 -211.5 c 128,-1,40
 342 -191 342 -191 342 -160 c 0,41,42
 342 -136 342 -136 352 -116 c 128,-1,43
 362 -96 362 -96 386 -75 c 128,-1,44
 410 -54 410 -54 451 -27.5 c 128,-1,45
 492 -1 492 -1 556 37 c 1,46,-1
 543 -7 l 1,47,48
 523 -13 523 -13 503 -17 c 128,-1,49
 483 -21 483 -21 461.5 -23 c 128,-1,50
 440 -25 440 -25 416 -25 c 0,51,52
 337 -25 337 -25 271.5 -0.5 c 128,-1,53
 206 24 206 24 158.5 72.5 c 128,-1,54
 111 121 111 121 85.5 192 c 128,-1,55
 60 263 60 263 60 355 c 0,56,57
 60 448 60 448 85.5 518.5 c 128,-1,58
 111 589 111 589 158.5 637.5 c 128,-1,59
 206 686 206 686 271.5 710.5 c 128,-1,60
 337 735 337 735 416 735 c 0,61,62
 497 735 497 735 562.5 710.5 c 128,-1,63
 628 686 628 686 675 637.5 c 128,-1,64
 722 589 722 589 747.5 518.5 c 128,-1,65
 773 448 773 448 773 355 c 0,66,67
 773 295 773 295 761 242.5 c 128,-1,68
 749 190 749 190 726 147 c 128,-1,69
 703 104 703 104 671 71 c 0,20,21
EndSplineSet
EndChar

StartChar: Odblgrave
Encoding: 524 524 126
Width: 833
GlyphClass: 1
Flags: W
LayerCount: 2
Fore
SplineSet
518 931 m 2,0,-1
 564 830 l 1,1,-1
 564 792 l 1,2,-1
 516 792 l 1,3,-1
 442 850 l 2,4,5
 419 867 419 867 406 886 c 128,-1,6
 393 905 393 905 393 929 c 0,7,8
 393 948 393 948 408.5 962 c 128,-1,9
 424 976 424 976 449 976 c 0,10,11
 467 976 467 976 480.5 970 c 128,-1,12
 494 964 494 964 503.5 953.5 c 128,-1,13
 513 943 513 943 518 931 c 2,0,-1
314 931 m 2,14,-1
 357 830 l 1,15,-1
 357 792 l 1,16,-1
 309 792 l 1,17,-1
 235 850 l 2,18,19
 212 867 212 867 199 886 c 128,-1,20
 186 905 186 905 186 929 c 0,21,22
 186 948 186 948 201.5 962 c 128,-1,23
 217 976 217 976 242 976 c 0,24,25
 260 976 260 976 274.5 970 c 128,-1,26
 289 964 289 964 298.5 953.5 c 128,-1,27
 308 943 308 943 314 931 c 2,14,-1
416 -25 m 0,28,29
 337 -25 337 -25 271.5 0 c 128,-1,30
 206 25 206 25 158.5 73 c 128,-1,31
 111 121 111 121 85.5 192 c 128,-1,32
 60 263 60 263 60 355 c 0,33,34
 60 448 60 448 85.5 518.5 c 128,-1,35
 111 589 111 589 158.5 637.5 c 128,-1,36
 206 686 206 686 271.5 710.5 c 128,-1,37
 337 735 337 735 416 735 c 0,38,39
 497 735 497 735 562.5 710.5 c 128,-1,40
 628 686 628 686 675 637.5 c 128,-1,41
 722 589 722 589 747.5 518.5 c 128,-1,42
 773 448 773 448 773 355 c 0,43,44
 773 263 773 263 747.5 192 c 128,-1,45
 722 121 722 121 675 73 c 128,-1,46
 628 25 628 25 562.5 0 c 128,-1,47
 497 -25 497 -25 416 -25 c 0,28,29
416 65 m 0,48,49
 474 65 474 65 518 82 c 128,-1,50
 562 99 562 99 591 134.5 c 128,-1,51
 620 170 620 170 635 224.5 c 128,-1,52
 650 279 650 279 650 355 c 256,53,54
 650 431 650 431 635 485.5 c 128,-1,55
 620 540 620 540 591 575.5 c 128,-1,56
 562 611 562 611 518 628 c 128,-1,57
 474 645 474 645 416 645 c 0,58,59
 359 645 359 645 315 628 c 128,-1,60
 271 611 271 611 242 575.5 c 128,-1,61
 213 540 213 540 198 485.5 c 128,-1,62
 183 431 183 431 183 355 c 256,63,64
 183 279 183 279 198 224.5 c 128,-1,65
 213 170 213 170 242.5 134.5 c 128,-1,66
 272 99 272 99 315.5 82 c 128,-1,67
 359 65 359 65 416 65 c 0,48,49
EndSplineSet
EndChar

StartChar: Oinvertedbreve
Encoding: 526 526 127
Width: 833
GlyphClass: 1
Flags: W
LayerCount: 2
Fore
SplineSet
416 935 m 0,0,1
 356 935 356 935 315 917 c 128,-1,2
 274 899 274 899 252.5 860.5 c 128,-1,3
 231 822 231 822 230 759 c 1,4,-1
 314 759 l 1,5,6
 316 795 316 795 325 813.5 c 128,-1,7
 334 832 334 832 356 839 c 128,-1,8
 378 846 378 846 416 846 c 0,9,10
 451 846 451 846 472 839 c 128,-1,11
 493 832 493 832 503 813.5 c 128,-1,12
 513 795 513 795 515 759 c 1,13,-1
 604 759 l 1,14,15
 603 822 603 822 580 860.5 c 128,-1,16
 557 899 557 899 515.5 917 c 128,-1,17
 474 935 474 935 416 935 c 0,0,1
416 -25 m 0,18,19
 337 -25 337 -25 271.5 0 c 128,-1,20
 206 25 206 25 158.5 73 c 128,-1,21
 111 121 111 121 85.5 192 c 128,-1,22
 60 263 60 263 60 355 c 0,23,24
 60 448 60 448 85.5 518.5 c 128,-1,25
 111 589 111 589 158.5 637.5 c 128,-1,26
 206 686 206 686 271.5 710.5 c 128,-1,27
 337 735 337 735 416 735 c 0,28,29
 497 735 497 735 562.5 710.5 c 128,-1,30
 628 686 628 686 675 637.5 c 128,-1,31
 722 589 722 589 747.5 518.5 c 128,-1,32
 773 448 773 448 773 355 c 0,33,34
 773 263 773 263 747.5 192 c 128,-1,35
 722 121 722 121 675 73 c 128,-1,36
 628 25 628 25 562.5 0 c 128,-1,37
 497 -25 497 -25 416 -25 c 0,18,19
416 65 m 0,38,39
 474 65 474 65 518 82 c 128,-1,40
 562 99 562 99 591 134.5 c 128,-1,41
 620 170 620 170 635 224.5 c 128,-1,42
 650 279 650 279 650 355 c 256,43,44
 650 431 650 431 635 485.5 c 128,-1,45
 620 540 620 540 591 575.5 c 128,-1,46
 562 611 562 611 518 628 c 128,-1,47
 474 645 474 645 416 645 c 0,48,49
 359 645 359 645 315 628 c 128,-1,50
 271 611 271 611 242 575.5 c 128,-1,51
 213 540 213 540 198 485.5 c 128,-1,52
 183 431 183 431 183 355 c 256,53,54
 183 279 183 279 198 224.5 c 128,-1,55
 213 170 213 170 242.5 134.5 c 128,-1,56
 272 99 272 99 315.5 82 c 128,-1,57
 359 65 359 65 416 65 c 0,38,39
EndSplineSet
EndChar

StartChar: P
Encoding: 80 80 147
Width: 707
GlyphClass: 2
Flags: W
AnchorPoint: "Anchor-0" 319 741 basechar 0
LayerCount: 2
Fore
SplineSet
257 97 m 2,0,-1
 257 623 l 1,1,-1
 399 623 l 2,2,3
 445 623 445 623 474 608 c 128,-1,4
 503 593 503 593 516.5 564 c 128,-1,5
 530 535 530 535 530 492 c 0,6,7
 530 450 530 450 516.5 419.5 c 128,-1,8
 503 389 503 389 474 374 c 128,-1,9
 445 359 445 359 399 359 c 2,10,-1
 240 359 l 1,11,-1
 240 272 l 1,12,-1
 404 272 l 2,13,14
 478 272 478 272 533 296.5 c 128,-1,15
 588 321 588 321 619.5 371.5 c 128,-1,16
 651 422 651 422 651 498 c 0,17,18
 651 607 651 607 585.5 658.5 c 128,-1,19
 520 710 520 710 405 710 c 2,20,-1
 58 710 l 1,21,-1
 58 624 l 1,22,-1
 69 624 l 2,23,24
 97 624 97 624 119 617 c 128,-1,25
 141 610 141 610 141 588 c 2,26,-1
 141 122 l 2,27,28
 141 100 141 100 119 93 c 128,-1,29
 97 86 97 86 69 86 c 2,30,-1
 58 86 l 1,31,-1
 58 0 l 1,32,-1
 368 0 l 1,33,-1
 368 87 l 1,34,-1
 348 87 l 2,35,36
 331 87 331 87 314.5 87.5 c 128,-1,37
 298 88 298 88 285.5 89.5 c 128,-1,38
 273 91 273 91 265 92.5 c 128,-1,39
 257 94 257 94 257 97 c 2,0,-1
EndSplineSet
EndChar

StartChar: Q
Encoding: 81 81 148
Width: 833
GlyphClass: 1
Flags: W
LayerCount: 2
Fore
SplineSet
369 -3 m 1,0,-1
 461 12 l 1,1,2
 463 -47 463 -47 477.5 -81.5 c 128,-1,3
 492 -116 492 -116 523 -130.5 c 128,-1,4
 554 -145 554 -145 605 -145 c 0,5,6
 638 -145 638 -145 667 -141 c 128,-1,7
 696 -137 696 -137 722.5 -130.5 c 128,-1,8
 749 -124 749 -124 772 -118 c 1,9,-1
 772 -229 l 1,10,11
 741 -235 741 -235 698 -239.5 c 128,-1,12
 655 -244 655 -244 613 -244 c 0,13,14
 531 -244 531 -244 476.5 -217 c 128,-1,15
 422 -190 422 -190 395.5 -136 c 128,-1,16
 369 -82 369 -82 369 -3 c 1,0,-1
416 -25 m 0,17,18
 337 -25 337 -25 271.5 0 c 128,-1,19
 206 25 206 25 158.5 73 c 128,-1,20
 111 121 111 121 85.5 192 c 128,-1,21
 60 263 60 263 60 355 c 0,22,23
 60 448 60 448 85.5 518.5 c 128,-1,24
 111 589 111 589 158.5 637.5 c 128,-1,25
 206 686 206 686 271.5 710.5 c 128,-1,26
 337 735 337 735 416 735 c 0,27,28
 497 735 497 735 562.5 710.5 c 128,-1,29
 628 686 628 686 675 637.5 c 128,-1,30
 722 589 722 589 747.5 518.5 c 128,-1,31
 773 448 773 448 773 355 c 0,32,33
 773 263 773 263 747.5 192 c 128,-1,34
 722 121 722 121 675 73 c 128,-1,35
 628 25 628 25 562.5 0 c 128,-1,36
 497 -25 497 -25 416 -25 c 0,17,18
416 65 m 0,37,38
 474 65 474 65 519 82 c 128,-1,39
 564 99 564 99 594.5 134.5 c 128,-1,40
 625 170 625 170 641.5 224.5 c 128,-1,41
 658 279 658 279 659 355 c 256,42,43
 660 431 660 431 644 485.5 c 128,-1,44
 628 540 628 540 597 575.5 c 128,-1,45
 566 611 566 611 520 628 c 128,-1,46
 474 645 474 645 416 645 c 0,47,48
 359 645 359 645 315 628 c 128,-1,49
 271 611 271 611 242 575.5 c 128,-1,50
 213 540 213 540 198 485.5 c 128,-1,51
 183 431 183 431 183 355 c 256,52,53
 183 279 183 279 198 224.5 c 128,-1,54
 213 170 213 170 242.5 134.5 c 128,-1,55
 272 99 272 99 315.5 82 c 128,-1,56
 359 65 359 65 416 65 c 0,37,38
EndSplineSet
EndChar

StartChar: R
Encoding: 82 82 149
Width: 777
GlyphClass: 2
Flags: W
AnchorPoint: "Anchor-1" 435 0 basechar 0
AnchorPoint: "Anchor-0" 435 741 basechar 0
LayerCount: 2
Fore
SplineSet
398 321 m 1,0,-1
 578 0 l 1,1,-1
 743 0 l 1,2,-1
 743 87 l 1,3,-1
 733 87 l 2,4,5
 710 87 710 87 692 91.5 c 128,-1,6
 674 96 674 96 658.5 109.5 c 128,-1,7
 643 123 643 123 627 148 c 2,8,-1
 495 371 l 1,9,-1
 398 321 l 1,0,-1
257 97 m 2,10,-1
 257 623 l 1,11,-1
 401 623 l 2,12,13
 449 623 449 623 480 610 c 128,-1,14
 511 597 511 597 525.5 571.5 c 128,-1,15
 540 546 540 546 540 508 c 0,16,17
 540 468 540 468 524.5 437.5 c 128,-1,18
 509 407 509 407 477.5 389.5 c 128,-1,19
 446 372 446 372 395 372 c 2,20,-1
 244 372 l 1,21,-1
 244 288 l 1,22,-1
 440 288 l 2,23,24
 444 289 444 289 446.5 292 c 128,-1,25
 449 295 449 295 453.5 299.5 c 128,-1,26
 458 304 458 304 464 309 c 0,27,28
 521 323 521 323 563.5 350 c 128,-1,29
 606 377 606 377 629.5 419.5 c 128,-1,30
 653 462 653 462 653 519 c 0,31,32
 653 582 653 582 624 624.5 c 128,-1,33
 595 667 595 667 540.5 688.5 c 128,-1,34
 486 710 486 710 408 710 c 2,35,-1
 58 710 l 1,36,-1
 58 623 l 1,37,-1
 69 623 l 2,38,39
 97 623 97 623 119 616 c 128,-1,40
 141 609 141 609 141 587 c 2,41,-1
 141 123 l 2,42,43
 141 101 141 101 119 94 c 128,-1,44
 97 87 97 87 69 87 c 2,45,-1
 58 87 l 1,46,-1
 58 0 l 1,47,-1
 367 0 l 1,48,-1
 367 87 l 1,49,-1
 348 87 l 2,50,51
 331 87 331 87 314.5 87.5 c 128,-1,52
 298 88 298 88 285 89.5 c 128,-1,53
 272 91 272 91 264.5 92.5 c 128,-1,54
 257 94 257 94 257 97 c 2,10,-1
EndSplineSet
EndChar

StartChar: Rcaron
Encoding: 344 344 152
Width: 777
GlyphClass: 1
Flags: W
LayerCount: 2
Fore
SplineSet
334 803 m 1,0,-1
 416 803 l 1,1,-1
 552 958 l 1,2,-1
 552 983 l 1,3,-1
 494 983 l 1,4,-1
 309 844 l 1,5,-1
 447 848 l 1,6,-1
 265 983 l 1,7,-1
 197 983 l 1,8,-1
 197 958 l 1,9,-1
 334 803 l 1,0,-1
398 321 m 1,10,-1
 578 0 l 1,11,-1
 743 0 l 1,12,-1
 743 87 l 1,13,-1
 733 87 l 2,14,15
 710 87 710 87 692 91.5 c 128,-1,16
 674 96 674 96 658.5 109.5 c 128,-1,17
 643 123 643 123 627 148 c 2,18,-1
 495 371 l 1,19,-1
 398 321 l 1,10,-1
257 97 m 2,20,-1
 257 623 l 1,21,-1
 401 623 l 2,22,23
 449 623 449 623 480 610 c 128,-1,24
 511 597 511 597 525.5 571.5 c 128,-1,25
 540 546 540 546 540 508 c 0,26,27
 540 468 540 468 524.5 437.5 c 128,-1,28
 509 407 509 407 477.5 389.5 c 128,-1,29
 446 372 446 372 395 372 c 2,30,-1
 244 372 l 1,31,-1
 244 288 l 1,32,-1
 440 288 l 2,33,34
 444 289 444 289 446.5 292 c 128,-1,35
 449 295 449 295 453.5 299.5 c 128,-1,36
 458 304 458 304 464 309 c 0,37,38
 521 323 521 323 563.5 350 c 128,-1,39
 606 377 606 377 629.5 419.5 c 128,-1,40
 653 462 653 462 653 519 c 0,41,42
 653 582 653 582 624 624.5 c 128,-1,43
 595 667 595 667 540.5 688.5 c 128,-1,44
 486 710 486 710 408 710 c 2,45,-1
 58 710 l 1,46,-1
 58 623 l 1,47,-1
 69 623 l 2,48,49
 97 623 97 623 119 616 c 128,-1,50
 141 609 141 609 141 587 c 2,51,-1
 141 123 l 2,52,53
 141 101 141 101 119 94 c 128,-1,54
 97 87 97 87 69 87 c 2,55,-1
 58 87 l 1,56,-1
 58 0 l 1,57,-1
 367 0 l 1,58,-1
 367 87 l 1,59,-1
 348 87 l 2,60,61
 330 87 330 87 314 87.5 c 128,-1,62
 298 88 298 88 285 89.5 c 128,-1,63
 272 91 272 91 264.5 92.5 c 128,-1,64
 257 94 257 94 257 97 c 2,20,-1
EndSplineSet
EndChar

StartChar: Rdblgrave
Encoding: 528 528 153
Width: 777
GlyphClass: 1
Flags: W
LayerCount: 2
Fore
SplineSet
479 931 m 2,0,-1
 525 830 l 1,1,-1
 525 792 l 1,2,-1
 477 792 l 1,3,-1
 403 850 l 2,4,5
 380 867 380 867 367 886 c 128,-1,6
 354 905 354 905 354 929 c 0,7,8
 354 948 354 948 369 962 c 128,-1,9
 384 976 384 976 409 976 c 0,10,11
 428 976 428 976 441.5 970 c 128,-1,12
 455 964 455 964 464 953.5 c 128,-1,13
 473 943 473 943 479 931 c 2,0,-1
275 931 m 2,14,-1
 318 830 l 1,15,-1
 318 792 l 1,16,-1
 270 792 l 1,17,-1
 196 850 l 2,18,19
 173 867 173 867 160 886 c 128,-1,20
 147 905 147 905 147 929 c 0,21,22
 147 948 147 948 162 962 c 128,-1,23
 177 976 177 976 202 976 c 0,24,25
 221 976 221 976 235.5 970 c 128,-1,26
 250 964 250 964 259.5 953.5 c 128,-1,27
 269 943 269 943 275 931 c 2,14,-1
398 321 m 1,28,-1
 578 0 l 1,29,-1
 743 0 l 1,30,-1
 743 87 l 1,31,-1
 733 87 l 2,32,33
 710 87 710 87 692 91.5 c 128,-1,34
 674 96 674 96 658.5 109.5 c 128,-1,35
 643 123 643 123 627 148 c 2,36,-1
 495 371 l 1,37,-1
 398 321 l 1,28,-1
257 97 m 2,38,-1
 257 623 l 1,39,-1
 401 623 l 2,40,41
 449 623 449 623 480 610 c 128,-1,42
 511 597 511 597 525.5 571.5 c 128,-1,43
 540 546 540 546 540 508 c 0,44,45
 540 468 540 468 524.5 437.5 c 128,-1,46
 509 407 509 407 477.5 389.5 c 128,-1,47
 446 372 446 372 395 372 c 2,48,-1
 244 372 l 1,49,-1
 244 288 l 1,50,-1
 440 288 l 2,51,52
 444 289 444 289 446.5 292 c 128,-1,53
 449 295 449 295 453.5 299.5 c 128,-1,54
 458 304 458 304 464 309 c 0,55,56
 521 323 521 323 563.5 350 c 128,-1,57
 606 377 606 377 629.5 419.5 c 128,-1,58
 653 462 653 462 653 519 c 0,59,60
 653 582 653 582 624 624.5 c 128,-1,61
 595 667 595 667 540.5 688.5 c 128,-1,62
 486 710 486 710 408 710 c 2,63,-1
 58 710 l 1,64,-1
 58 623 l 1,65,-1
 69 623 l 2,66,67
 97 623 97 623 119 616 c 128,-1,68
 141 609 141 609 141 587 c 2,69,-1
 141 123 l 2,70,71
 141 101 141 101 119 94 c 128,-1,72
 97 87 97 87 69 87 c 2,73,-1
 58 87 l 1,74,-1
 58 0 l 1,75,-1
 367 0 l 1,76,-1
 367 87 l 1,77,-1
 348 87 l 2,78,79
 330 87 330 87 314 87.5 c 128,-1,80
 298 88 298 88 285 89.5 c 128,-1,81
 272 91 272 91 264.5 92.5 c 128,-1,82
 257 94 257 94 257 97 c 2,38,-1
EndSplineSet
EndChar

StartChar: Rinvertedbreve
Encoding: 530 530 154
Width: 777
GlyphClass: 1
Flags: W
LayerCount: 2
Fore
SplineSet
376 935 m 0,0,1
 315 935 315 935 274 917 c 128,-1,2
 233 899 233 899 211.5 860.5 c 128,-1,3
 190 822 190 822 189 759 c 1,4,-1
 273 759 l 1,5,6
 275 795 275 795 284.5 813.5 c 128,-1,7
 294 832 294 832 315.5 839 c 128,-1,8
 337 846 337 846 375 846 c 0,9,10
 411 846 411 846 431.5 839 c 128,-1,11
 452 832 452 832 462 813.5 c 128,-1,12
 472 795 472 795 474 759 c 1,13,-1
 563 759 l 1,14,15
 562 822 562 822 539 860.5 c 128,-1,16
 516 899 516 899 474.5 917 c 128,-1,17
 433 935 433 935 376 935 c 0,0,1
398 321 m 1,18,-1
 578 0 l 1,19,-1
 743 0 l 1,20,-1
 743 87 l 1,21,-1
 733 87 l 2,22,23
 710 87 710 87 692 91.5 c 128,-1,24
 674 96 674 96 658.5 109.5 c 128,-1,25
 643 123 643 123 627 148 c 2,26,-1
 495 371 l 1,27,-1
 398 321 l 1,18,-1
257 97 m 2,28,-1
 257 623 l 1,29,-1
 401 623 l 2,30,31
 449 623 449 623 480 610 c 128,-1,32
 511 597 511 597 525.5 571.5 c 128,-1,33
 540 546 540 546 540 508 c 0,34,35
 540 468 540 468 524.5 437.5 c 128,-1,36
 509 407 509 407 477.5 389.5 c 128,-1,37
 446 372 446 372 395 372 c 2,38,-1
 244 372 l 1,39,-1
 244 288 l 1,40,-1
 440 288 l 2,41,42
 444 289 444 289 446.5 292 c 128,-1,43
 449 295 449 295 453.5 299.5 c 128,-1,44
 458 304 458 304 464 309 c 0,45,46
 521 323 521 323 563.5 350 c 128,-1,47
 606 377 606 377 629.5 419.5 c 128,-1,48
 653 462 653 462 653 519 c 0,49,50
 653 582 653 582 624 624.5 c 128,-1,51
 595 667 595 667 540.5 688.5 c 128,-1,52
 486 710 486 710 408 710 c 2,53,-1
 58 710 l 1,54,-1
 58 623 l 1,55,-1
 69 623 l 2,56,57
 97 623 97 623 119 616 c 128,-1,58
 141 609 141 609 141 587 c 2,59,-1
 141 123 l 2,60,61
 141 101 141 101 119 94 c 128,-1,62
 97 87 97 87 69 87 c 2,63,-1
 58 87 l 1,64,-1
 58 0 l 1,65,-1
 367 0 l 1,66,-1
 367 87 l 1,67,-1
 348 87 l 2,68,69
 330 87 330 87 314 87.5 c 128,-1,70
 298 88 298 88 285 89.5 c 128,-1,71
 272 91 272 91 264.5 92.5 c 128,-1,72
 257 94 257 94 257 97 c 2,28,-1
EndSplineSet
EndChar

StartChar: S
Encoding: 83 83 157
Width: 675
GlyphClass: 2
Flags: W
AnchorPoint: "Anchor-1" 370 0 basechar 0
AnchorPoint: "Anchor-0" 370 741 basechar 0
LayerCount: 2
Fore
SplineSet
372 60 m 0,0,1
 424 60 424 60 455 70 c 128,-1,2
 486 80 486 80 500 104 c 128,-1,3
 514 128 514 128 514 171 c 0,4,5
 514 207 514 207 498 231 c 128,-1,6
 482 255 482 255 454 270 c 128,-1,7
 426 285 426 285 390.5 295.5 c 128,-1,8
 355 306 355 306 315 315 c 0,9,10
 267 327 267 327 225 340.5 c 128,-1,11
 183 354 183 354 151 377 c 128,-1,12
 119 400 119 400 101 438.5 c 128,-1,13
 83 477 83 477 83 539 c 256,14,15
 83 601 83 601 108.5 645 c 128,-1,16
 134 689 134 689 185 712 c 128,-1,17
 236 735 236 735 313 735 c 0,18,19
 376 735 376 735 419.5 715.5 c 128,-1,20
 463 696 463 696 486.5 652.5 c 128,-1,21
 510 609 510 609 512 537 c 1,22,-1
 490 588 l 1,23,-1
 505 720 l 1,24,-1
 586 720 l 1,25,-1
 586 499 l 1,26,-1
 501 499 l 1,27,28
 488 546 488 546 465 580.5 c 128,-1,29
 442 615 442 615 406 633.5 c 128,-1,30
 370 652 370 652 315 652 c 0,31,32
 268 652 268 652 240 639.5 c 128,-1,33
 212 627 212 627 200.5 604.5 c 128,-1,34
 189 582 189 582 189 548 c 256,35,36
 189 514 189 514 201.5 493 c 128,-1,37
 214 472 214 472 239 459.5 c 128,-1,38
 264 447 264 447 299 438 c 128,-1,39
 334 429 334 429 379 417 c 0,40,41
 423 406 423 406 466.5 392.5 c 128,-1,42
 510 379 510 379 546 355.5 c 128,-1,43
 582 332 582 332 603 293.5 c 128,-1,44
 624 255 624 255 624 194 c 0,45,46
 624 116 624 116 593 67.5 c 128,-1,47
 562 19 562 19 506 -3 c 128,-1,48
 450 -25 450 -25 375 -25 c 0,49,50
 305 -25 305 -25 253 -4.5 c 128,-1,51
 201 16 201 16 171 65.5 c 128,-1,52
 141 115 141 115 135 200 c 1,53,-1
 160 146 l 1,54,-1
 145 -9 l 1,55,-1
 65 -9 l 1,56,-1
 65 239 l 1,57,-1
 153 239 l 1,58,59
 168 177 168 177 195 137.5 c 128,-1,60
 222 98 222 98 265.5 79 c 128,-1,61
 309 60 309 60 372 60 c 0,0,1
EndSplineSet
EndChar

StartChar: Scaron
Encoding: 352 352 161
Width: 675
GlyphClass: 1
Flags: W
LayerCount: 2
Fore
SplineSet
304 803 m 1,0,-1
 386 803 l 1,1,-1
 522 958 l 1,2,-1
 522 983 l 1,3,-1
 463 983 l 1,4,-1
 279 844 l 1,5,-1
 417 848 l 1,6,-1
 235 983 l 1,7,-1
 167 983 l 1,8,-1
 167 958 l 1,9,-1
 304 803 l 1,0,-1
372 60 m 0,10,11
 424 60 424 60 455 70 c 128,-1,12
 486 80 486 80 500 104 c 128,-1,13
 514 128 514 128 514 171 c 0,14,15
 514 207 514 207 498 231 c 128,-1,16
 482 255 482 255 454 270 c 128,-1,17
 426 285 426 285 390.5 295.5 c 128,-1,18
 355 306 355 306 315 315 c 0,19,20
 267 327 267 327 225 340.5 c 128,-1,21
 183 354 183 354 151 377 c 128,-1,22
 119 400 119 400 101 438.5 c 128,-1,23
 83 477 83 477 83 539 c 256,24,25
 83 601 83 601 108.5 645 c 128,-1,26
 134 689 134 689 185 712 c 128,-1,27
 236 735 236 735 313 735 c 0,28,29
 376 735 376 735 419.5 715.5 c 128,-1,30
 463 696 463 696 486.5 652.5 c 128,-1,31
 510 609 510 609 512 537 c 1,32,-1
 490 588 l 1,33,-1
 505 720 l 1,34,-1
 586 720 l 1,35,-1
 586 499 l 1,36,-1
 501 499 l 1,37,38
 488 546 488 546 465 580.5 c 128,-1,39
 442 615 442 615 406 633.5 c 128,-1,40
 370 652 370 652 315 652 c 0,41,42
 268 652 268 652 240 639.5 c 128,-1,43
 212 627 212 627 200.5 604.5 c 128,-1,44
 189 582 189 582 189 548 c 256,45,46
 189 514 189 514 201.5 493 c 128,-1,47
 214 472 214 472 239 459.5 c 128,-1,48
 264 447 264 447 299 438 c 128,-1,49
 334 429 334 429 379 417 c 0,50,51
 423 406 423 406 466.5 392.5 c 128,-1,52
 510 379 510 379 546 355.5 c 128,-1,53
 582 332 582 332 603 293.5 c 128,-1,54
 624 255 624 255 624 194 c 0,55,56
 624 116 624 116 593 67.5 c 128,-1,57
 562 19 562 19 506 -3 c 128,-1,58
 450 -25 450 -25 375 -25 c 0,59,60
 305 -25 305 -25 253 -4.5 c 128,-1,61
 201 16 201 16 171 65.5 c 128,-1,62
 141 115 141 115 135 200 c 1,63,-1
 160 146 l 1,64,-1
 145 -9 l 1,65,-1
 65 -9 l 1,66,-1
 65 239 l 1,67,-1
 153 239 l 1,68,69
 168 177 168 177 195 137.5 c 128,-1,70
 222 98 222 98 265.5 79 c 128,-1,71
 309 60 309 60 372 60 c 0,10,11
EndSplineSet
EndChar

StartChar: Scarondotaccent
Encoding: 7782 7782 166
Width: 675
GlyphClass: 1
Flags: W
LayerCount: 2
Fore
SplineSet
300 803 m 1,0,-1
 381 803 l 1,1,-1
 518 958 l 1,2,-1
 518 983 l 1,3,-1
 459 983 l 1,4,-1
 274 844 l 1,5,-1
 413 848 l 1,6,-1
 231 983 l 1,7,-1
 162 983 l 1,8,-1
 162 958 l 1,9,-1
 300 803 l 1,0,-1
372 60 m 0,10,11
 424 60 424 60 455 70 c 128,-1,12
 486 80 486 80 500 104 c 128,-1,13
 514 128 514 128 514 171 c 0,14,15
 514 207 514 207 498 231 c 128,-1,16
 482 255 482 255 454 270 c 128,-1,17
 426 285 426 285 390.5 295.5 c 128,-1,18
 355 306 355 306 315 315 c 0,19,20
 267 327 267 327 225 340.5 c 128,-1,21
 183 354 183 354 151 377 c 128,-1,22
 119 400 119 400 101 438.5 c 128,-1,23
 83 477 83 477 83 539 c 256,24,25
 83 601 83 601 108.5 645 c 128,-1,26
 134 689 134 689 185 712 c 128,-1,27
 236 735 236 735 313 735 c 0,28,29
 376 735 376 735 419.5 715.5 c 128,-1,30
 463 696 463 696 486.5 652.5 c 128,-1,31
 510 609 510 609 512 537 c 1,32,-1
 490 588 l 1,33,-1
 505 720 l 1,34,-1
 586 720 l 1,35,-1
 586 499 l 1,36,-1
 501 499 l 1,37,38
 488 546 488 546 465 580.5 c 128,-1,39
 442 615 442 615 406 633.5 c 128,-1,40
 370 652 370 652 315 652 c 0,41,42
 268 652 268 652 240 639.5 c 128,-1,43
 212 627 212 627 200.5 604.5 c 128,-1,44
 189 582 189 582 189 548 c 256,45,46
 189 514 189 514 201.5 493 c 128,-1,47
 214 472 214 472 239 459.5 c 128,-1,48
 264 447 264 447 299 438 c 128,-1,49
 334 429 334 429 379 417 c 0,50,51
 423 406 423 406 466.5 392.5 c 128,-1,52
 510 379 510 379 546 355.5 c 128,-1,53
 582 332 582 332 603 293.5 c 128,-1,54
 624 255 624 255 624 194 c 0,55,56
 624 116 624 116 593 67.5 c 128,-1,57
 562 19 562 19 506 -3 c 128,-1,58
 450 -25 450 -25 375 -25 c 0,59,60
 305 -25 305 -25 253 -4.5 c 128,-1,61
 201 16 201 16 171 65.5 c 128,-1,62
 141 115 141 115 135 200 c 1,63,-1
 160 146 l 1,64,-1
 145 -9 l 1,65,-1
 65 -9 l 1,66,-1
 65 239 l 1,67,-1
 153 239 l 1,68,69
 168 177 168 177 195 137.5 c 128,-1,70
 222 98 222 98 265.5 79 c 128,-1,71
 309 60 309 60 372 60 c 0,10,11
340 1003 m 0,72,73
 300 1003 300 1003 278 1023.5 c 128,-1,74
 256 1044 256 1044 256 1083 c 0,75,76
 256 1120 256 1120 278 1141 c 128,-1,77
 300 1162 300 1162 340 1162 c 0,78,79
 381 1162 381 1162 402.5 1141 c 128,-1,80
 424 1120 424 1120 424 1083 c 0,81,82
 424 1044 424 1044 402.5 1023.5 c 128,-1,83
 381 1003 381 1003 340 1003 c 0,72,73
EndSplineSet
EndChar

StartChar: T
Encoding: 84 84 168
Width: 744
GlyphClass: 2
Flags: W
AnchorPoint: "Anchor-1" 377 0 basechar 0
AnchorPoint: "Anchor-0" 377 741 basechar 0
LayerCount: 2
Fore
SplineSet
314 123 m 2,0,-1
 314 622 l 1,1,-1
 251 622 l 2,2,3
 209 622 209 622 188 616 c 128,-1,4
 167 610 167 610 159 597.5 c 128,-1,5
 151 585 151 585 149 565 c 2,6,-1
 138 463 l 1,7,-1
 53 463 l 1,8,-1
 53 710 l 1,9,-1
 691 710 l 1,10,-1
 691 463 l 1,11,-1
 606 463 l 1,12,-1
 595 565 l 2,13,14
 593 585 593 585 585.5 597.5 c 128,-1,15
 578 610 578 610 556.5 616 c 128,-1,16
 535 622 535 622 493 622 c 2,17,-1
 430 622 l 1,18,-1
 430 123 l 2,19,20
 430 101 430 101 455 94 c 128,-1,21
 480 87 480 87 512 87 c 2,22,-1
 532 87 l 1,23,-1
 532 0 l 1,24,-1
 212 0 l 1,25,-1
 212 87 l 1,26,-1
 232 87 l 2,27,28
 264 87 264 87 289 94 c 128,-1,29
 314 101 314 101 314 123 c 2,0,-1
EndSplineSet
EndChar

StartChar: Tcaron
Encoding: 356 356 170
Width: 744
GlyphClass: 1
Flags: W
LayerCount: 2
Fore
SplineSet
325 803 m 1,0,-1
 406 803 l 1,1,-1
 543 958 l 1,2,-1
 543 983 l 1,3,-1
 484 983 l 1,4,-1
 299 844 l 1,5,-1
 438 848 l 1,6,-1
 256 983 l 1,7,-1
 187 983 l 1,8,-1
 187 958 l 1,9,-1
 325 803 l 1,0,-1
314 123 m 2,10,-1
 314 622 l 1,11,-1
 251 622 l 2,12,13
 209 622 209 622 188 616 c 128,-1,14
 167 610 167 610 159 597.5 c 128,-1,15
 151 585 151 585 149 565 c 2,16,-1
 138 463 l 1,17,-1
 53 463 l 1,18,-1
 53 710 l 1,19,-1
 691 710 l 1,20,-1
 691 463 l 1,21,-1
 606 463 l 1,22,-1
 595 565 l 2,23,24
 593 585 593 585 585.5 597.5 c 128,-1,25
 578 610 578 610 556.5 616 c 128,-1,26
 535 622 535 622 493 622 c 2,27,-1
 430 622 l 1,28,-1
 430 123 l 2,29,30
 430 101 430 101 455 94 c 128,-1,31
 480 87 480 87 512 87 c 2,32,-1
 532 87 l 1,33,-1
 532 0 l 1,34,-1
 212 0 l 1,35,-1
 212 87 l 1,36,-1
 232 87 l 2,37,38
 264 87 264 87 289 94 c 128,-1,39
 314 101 314 101 314 123 c 2,10,-1
EndSplineSet
EndChar

StartChar: U
Encoding: 85 85 174
Width: 828
GlyphClass: 2
Flags: W
AnchorPoint: "Anchor-2" 475 0 basechar 0
AnchorPoint: "Anchor-1" 419 0 basechar 0
AnchorPoint: "Anchor-0" 419 741 basechar 0
LayerCount: 2
Fore
SplineSet
249 275 m 2,0,1
 249 218 249 218 262.5 178.5 c 128,-1,2
 276 139 276 139 300 115.5 c 128,-1,3
 324 92 324 92 356.5 81.5 c 128,-1,4
 389 71 389 71 428 71 c 0,5,6
 468 71 468 71 500.5 81.5 c 128,-1,7
 533 92 533 92 556 116 c 128,-1,8
 579 140 579 140 591 179 c 128,-1,9
 603 218 603 218 603 275 c 2,10,-1
 603 604 l 2,11,12
 603 609 603 609 595.5 612.5 c 128,-1,13
 588 616 588 616 576.5 618 c 128,-1,14
 565 620 565 620 552 621.5 c 128,-1,15
 539 623 539 623 528 623 c 2,16,-1
 519 623 l 1,17,-1
 519 710 l 1,18,-1
 778 710 l 1,19,-1
 778 623 l 1,20,-1
 768 623 l 2,21,22
 749 623 749 623 733 619 c 128,-1,23
 717 615 717 615 707 605 c 128,-1,24
 697 595 697 595 697 578 c 2,25,-1
 697 256 l 2,26,27
 697 181 697 181 675 127.5 c 128,-1,28
 653 74 653 74 614 40 c 128,-1,29
 575 6 575 6 525.5 -9.5 c 128,-1,30
 476 -25 476 -25 421 -25 c 0,31,32
 360 -25 360 -25 307.5 -9 c 128,-1,33
 255 7 255 7 216 40.5 c 128,-1,34
 177 74 177 74 155.5 128 c 128,-1,35
 134 182 134 182 134 257 c 2,36,-1
 134 587 l 2,37,38
 134 609 134 609 111.5 616 c 128,-1,39
 89 623 89 623 61 623 c 2,40,-1
 50 623 l 1,41,-1
 50 710 l 1,42,-1
 342 710 l 1,43,-1
 342 623 l 1,44,-1
 333 623 l 2,45,46
 319 623 319 623 304.5 622.5 c 128,-1,47
 290 622 290 622 277.5 620.5 c 128,-1,48
 265 619 265 619 257 617.5 c 128,-1,49
 249 616 249 616 249 613 c 2,50,-1
 249 275 l 2,0,1
EndSplineSet
EndChar

StartChar: Uogonek
Encoding: 370 370 184
Width: 828
GlyphClass: 1
Flags: W
LayerCount: 2
Fore
SplineSet
535 40 m 1,0,-1
 535 -5 l 1,1,2
 509 -15 509 -15 481 -20 c 128,-1,3
 453 -25 453 -25 421 -25 c 0,4,5
 358 -25 358 -25 306 -9 c 128,-1,6
 254 7 254 7 214.5 40.5 c 128,-1,7
 175 74 175 74 154.5 128 c 128,-1,8
 134 182 134 182 134 257 c 2,9,-1
 134 587 l 2,10,11
 134 609 134 609 115.5 616 c 128,-1,12
 97 623 97 623 61 623 c 2,13,-1
 50 623 l 1,14,-1
 50 710 l 1,15,-1
 342 710 l 1,16,-1
 342 623 l 1,17,-1
 333 623 l 2,18,19
 319 623 319 623 304.5 622.5 c 128,-1,20
 290 622 290 622 277.5 620.5 c 128,-1,21
 265 619 265 619 257 617.5 c 128,-1,22
 249 616 249 616 249 613 c 2,23,-1
 249 262 l 2,24,25
 249 209 249 209 262.5 172.5 c 128,-1,26
 276 136 276 136 300 114 c 128,-1,27
 324 92 324 92 357.5 82.5 c 128,-1,28
 391 73 391 73 431 73 c 256,29,30
 471 73 471 73 503 82.5 c 128,-1,31
 535 92 535 92 557 113.5 c 128,-1,32
 579 135 579 135 591 172 c 128,-1,33
 603 209 603 209 603 262 c 2,34,-1
 603 604 l 2,35,36
 603 609 603 609 596.5 612.5 c 128,-1,37
 590 616 590 616 579.5 618 c 128,-1,38
 569 620 569 620 555.5 621.5 c 128,-1,39
 542 623 542 623 528 623 c 2,40,-1
 519 623 l 1,41,-1
 519 710 l 1,42,-1
 778 710 l 1,43,-1
 778 623 l 1,44,-1
 768 623 l 2,45,46
 745 623 745 623 729 619 c 128,-1,47
 713 615 713 615 705 605 c 128,-1,48
 697 595 697 595 697 578 c 2,49,-1
 697 256 l 2,50,51
 697 207 697 207 686 166 c 128,-1,52
 675 125 675 125 656.5 93.5 c 128,-1,53
 638 62 638 62 615 39 c 0,54,55
 595 19 595 19 566.5 -1.5 c 128,-1,56
 538 -22 538 -22 511.5 -44 c 128,-1,57
 485 -66 485 -66 467 -92 c 128,-1,58
 449 -118 449 -118 449 -146 c 0,59,60
 449 -157 449 -157 457.5 -167 c 128,-1,61
 466 -177 466 -177 490 -177 c 0,62,63
 521 -177 521 -177 540 -164.5 c 128,-1,64
 559 -152 559 -152 572 -136 c 1,65,-1
 617 -182 l 1,66,67
 591 -213 591 -213 555.5 -232.5 c 128,-1,68
 520 -252 520 -252 462 -252 c 0,69,70
 425 -252 425 -252 394.5 -242.5 c 128,-1,71
 364 -233 364 -233 346.5 -212.5 c 128,-1,72
 329 -192 329 -192 329 -160 c 0,73,74
 329 -136 329 -136 338 -116 c 128,-1,75
 347 -96 347 -96 369.5 -75 c 128,-1,76
 392 -54 392 -54 432.5 -26.5 c 128,-1,77
 473 1 473 1 535 40 c 1,0,-1
EndSplineSet
EndChar

StartChar: Uhorn
Encoding: 431 431 185
Width: 945
GlyphClass: 2
Flags: W
AnchorPoint: "Anchor-1" 476 -35 basechar 0
AnchorPoint: "Anchor-0" 476 663 basechar 0
LayerCount: 2
Fore
SplineSet
134 257 m 2,0,-1
 134 587 l 2,1,2
 134 609 134 609 115.5 616 c 128,-1,3
 97 623 97 623 61 623 c 2,4,-1
 50 623 l 1,5,-1
 50 710 l 1,6,-1
 342 710 l 1,7,-1
 342 623 l 1,8,-1
 333 623 l 2,9,10
 319 623 319 623 304.5 622.5 c 128,-1,11
 290 622 290 622 277.5 620.5 c 128,-1,12
 265 619 265 619 257 617.5 c 128,-1,13
 249 616 249 616 249 613 c 2,14,-1
 249 262 l 2,15,16
 249 208 249 208 262.5 171.5 c 128,-1,17
 276 135 276 135 300 113 c 128,-1,18
 324 91 324 91 357.5 81.5 c 128,-1,19
 391 72 391 72 431 72 c 0,20,21
 482 72 482 72 520.5 89.5 c 128,-1,22
 559 107 559 107 581 149 c 128,-1,23
 603 191 603 191 603 262 c 2,24,-1
 603 604 l 2,25,26
 603 609 603 609 596.5 612.5 c 128,-1,27
 590 616 590 616 579.5 618 c 128,-1,28
 569 620 569 620 555.5 621.5 c 128,-1,29
 542 623 542 623 528 623 c 2,30,-1
 519 623 l 1,31,-1
 519 710 l 1,32,-1
 745 710 l 2,33,34
 781 710 781 710 806 722 c 128,-1,35
 831 734 831 734 846 757.5 c 128,-1,36
 861 781 861 781 868.5 816.5 c 128,-1,37
 876 852 876 852 879 898 c 1,38,-1
 983 898 l 1,39,40
 981 843 981 843 973 801 c 128,-1,41
 965 759 965 759 949.5 727.5 c 128,-1,42
 934 696 934 696 908.5 675 c 128,-1,43
 883 654 883 654 846.5 641 c 128,-1,44
 810 628 810 628 760 623 c 0,45,46
 741 622 741 622 727 617.5 c 128,-1,47
 713 613 713 613 705 604 c 128,-1,48
 697 595 697 595 697 579 c 2,49,-1
 697 256 l 2,50,51
 697 181 697 181 676 127.5 c 128,-1,52
 655 74 655 74 617 40 c 128,-1,53
 579 6 579 6 528.5 -9.5 c 128,-1,54
 478 -25 478 -25 421 -25 c 0,55,56
 358 -25 358 -25 306 -9 c 128,-1,57
 254 7 254 7 214.5 40.5 c 128,-1,58
 175 74 175 74 154.5 128 c 128,-1,59
 134 182 134 182 134 257 c 2,0,-1
EndSplineSet
EndChar

StartChar: Ucaron
Encoding: 467 467 186
Width: 828
GlyphClass: 1
Flags: W
LayerCount: 2
Fore
SplineSet
387 803 m 1,0,-1
 468 803 l 1,1,-1
 605 958 l 1,2,-1
 605 983 l 1,3,-1
 546 983 l 1,4,-1
 361 844 l 1,5,-1
 500 848 l 1,6,-1
 318 983 l 1,7,-1
 249 983 l 1,8,-1
 249 958 l 1,9,-1
 387 803 l 1,0,-1
249 275 m 2,10,11
 249 218 249 218 262.5 178.5 c 128,-1,12
 276 139 276 139 300 115.5 c 128,-1,13
 324 92 324 92 356.5 81.5 c 128,-1,14
 389 71 389 71 428 71 c 0,15,16
 468 71 468 71 500.5 81.5 c 128,-1,17
 533 92 533 92 556 116 c 128,-1,18
 579 140 579 140 591 179 c 128,-1,19
 603 218 603 218 603 275 c 2,20,-1
 603 604 l 2,21,22
 603 609 603 609 595.5 612.5 c 128,-1,23
 588 616 588 616 576.5 618 c 128,-1,24
 565 620 565 620 552 621.5 c 128,-1,25
 539 623 539 623 528 623 c 2,26,-1
 519 623 l 1,27,-1
 519 710 l 1,28,-1
 778 710 l 1,29,-1
 778 623 l 1,30,-1
 768 623 l 2,31,32
 750 623 750 623 733.5 619 c 128,-1,33
 717 615 717 615 707 605 c 128,-1,34
 697 595 697 595 697 578 c 2,35,-1
 697 256 l 2,36,37
 697 181 697 181 675 127.5 c 128,-1,38
 653 74 653 74 614 40 c 128,-1,39
 575 6 575 6 525.5 -9.5 c 128,-1,40
 476 -25 476 -25 421 -25 c 0,41,42
 360 -25 360 -25 307.5 -9 c 128,-1,43
 255 7 255 7 216 40.5 c 128,-1,44
 177 74 177 74 155.5 128 c 128,-1,45
 134 182 134 182 134 257 c 2,46,-1
 134 587 l 2,47,48
 134 609 134 609 111.5 616 c 128,-1,49
 89 623 89 623 61 623 c 2,50,-1
 50 623 l 1,51,-1
 50 710 l 1,52,-1
 342 710 l 1,53,-1
 342 623 l 1,54,-1
 333 623 l 2,55,56
 319 623 319 623 304.5 622.5 c 128,-1,57
 290 622 290 622 277.5 620.5 c 128,-1,58
 265 619 265 619 257 617.5 c 128,-1,59
 249 616 249 616 249 613 c 2,60,-1
 249 275 l 2,10,11
EndSplineSet
EndChar

StartChar: Udieresiscaron
Encoding: 473 473 187
Width: 834
GlyphClass: 1
Flags: W
LayerCount: 2
Fore
SplineSet
391 998 m 1,0,-1
 472 998 l 1,1,-1
 609 1153 l 1,2,-1
 609 1178 l 1,3,-1
 550 1178 l 1,4,-1
 366 1038 l 1,5,-1
 504 1043 l 1,6,-1
 322 1178 l 1,7,-1
 254 1178 l 1,8,-1
 254 1153 l 1,9,-1
 391 998 l 1,0,-1
249 275 m 2,10,11
 249 218 249 218 262.5 178.5 c 128,-1,12
 276 139 276 139 300 115.5 c 128,-1,13
 324 92 324 92 356.5 81.5 c 128,-1,14
 389 71 389 71 428 71 c 0,15,16
 468 71 468 71 500.5 81.5 c 128,-1,17
 533 92 533 92 556 116 c 128,-1,18
 579 140 579 140 591 179 c 128,-1,19
 603 218 603 218 603 275 c 2,20,-1
 603 604 l 2,21,22
 603 609 603 609 595.5 612.5 c 128,-1,23
 588 616 588 616 576.5 618 c 128,-1,24
 565 620 565 620 552 621.5 c 128,-1,25
 539 623 539 623 528 623 c 2,26,-1
 519 623 l 1,27,-1
 519 710 l 1,28,-1
 778 710 l 1,29,-1
 778 623 l 1,30,-1
 768 623 l 2,31,32
 750 623 750 623 733.5 619 c 128,-1,33
 717 615 717 615 707 605 c 128,-1,34
 697 595 697 595 697 578 c 2,35,-1
 697 256 l 2,36,37
 697 181 697 181 675 127.5 c 128,-1,38
 653 74 653 74 614 40 c 128,-1,39
 575 6 575 6 525.5 -9.5 c 128,-1,40
 476 -25 476 -25 421 -25 c 0,41,42
 360 -25 360 -25 307.5 -9 c 128,-1,43
 255 7 255 7 216 40.5 c 128,-1,44
 177 74 177 74 155.5 128 c 128,-1,45
 134 182 134 182 134 257 c 2,46,-1
 134 587 l 2,47,48
 134 609 134 609 111.5 616 c 128,-1,49
 89 623 89 623 61 623 c 2,50,-1
 50 623 l 1,51,-1
 50 710 l 1,52,-1
 342 710 l 1,53,-1
 342 623 l 1,54,-1
 333 623 l 2,55,56
 319 623 319 623 304.5 622.5 c 128,-1,57
 290 622 290 622 277.5 620.5 c 128,-1,58
 265 619 265 619 257 617.5 c 128,-1,59
 249 616 249 616 249 613 c 2,60,-1
 249 275 l 2,10,11
377 889 m 0,61,62
 377 851 377 851 355.5 833 c 128,-1,63
 334 815 334 815 297 815 c 0,64,65
 261 815 261 815 239.5 833 c 128,-1,66
 218 851 218 851 218 889 c 0,67,68
 218 928 218 928 239.5 946 c 128,-1,69
 261 964 261 964 297 964 c 0,70,71
 334 964 334 964 355.5 946 c 128,-1,72
 377 928 377 928 377 889 c 0,61,62
643 889 m 0,73,74
 643 851 643 851 621 833 c 128,-1,75
 599 815 599 815 563 815 c 0,76,77
 528 815 528 815 506 833 c 128,-1,78
 484 851 484 851 484 889 c 0,79,80
 484 928 484 928 506 946 c 128,-1,81
 528 964 528 964 563 964 c 0,82,83
 599 964 599 964 621 946 c 128,-1,84
 643 928 643 928 643 889 c 0,73,74
EndSplineSet
EndChar

StartChar: Udblgrave
Encoding: 532 532 188
Width: 828
GlyphClass: 1
Flags: W
LayerCount: 2
Fore
SplineSet
517 931 m 2,0,-1
 563 830 l 1,1,-1
 563 792 l 1,2,-1
 515 792 l 1,3,-1
 441 850 l 2,4,5
 418 867 418 867 405 886 c 128,-1,6
 392 905 392 905 392 929 c 0,7,8
 392 948 392 948 407.5 962 c 128,-1,9
 423 976 423 976 448 976 c 0,10,11
 466 976 466 976 479.5 970 c 128,-1,12
 493 964 493 964 502.5 953.5 c 128,-1,13
 512 943 512 943 517 931 c 2,0,-1
313 931 m 2,14,-1
 356 830 l 1,15,-1
 356 792 l 1,16,-1
 308 792 l 1,17,-1
 234 850 l 2,18,19
 211 867 211 867 198 886 c 128,-1,20
 185 905 185 905 185 929 c 0,21,22
 185 948 185 948 200.5 962 c 128,-1,23
 216 976 216 976 241 976 c 0,24,25
 259 976 259 976 273.5 970 c 128,-1,26
 288 964 288 964 297.5 953.5 c 128,-1,27
 307 943 307 943 313 931 c 2,14,-1
249 275 m 2,28,29
 249 218 249 218 262.5 178.5 c 128,-1,30
 276 139 276 139 300 115.5 c 128,-1,31
 324 92 324 92 356.5 81.5 c 128,-1,32
 389 71 389 71 428 71 c 0,33,34
 468 71 468 71 500.5 81.5 c 128,-1,35
 533 92 533 92 556 116 c 128,-1,36
 579 140 579 140 591 179 c 128,-1,37
 603 218 603 218 603 275 c 2,38,-1
 603 604 l 2,39,40
 603 609 603 609 595.5 612.5 c 128,-1,41
 588 616 588 616 576.5 618 c 128,-1,42
 565 620 565 620 552 621.5 c 128,-1,43
 539 623 539 623 528 623 c 2,44,-1
 519 623 l 1,45,-1
 519 710 l 1,46,-1
 778 710 l 1,47,-1
 778 623 l 1,48,-1
 768 623 l 2,49,50
 750 623 750 623 733.5 619 c 128,-1,51
 717 615 717 615 707 605 c 128,-1,52
 697 595 697 595 697 578 c 2,53,-1
 697 256 l 2,54,55
 697 181 697 181 675 127.5 c 128,-1,56
 653 74 653 74 614 40 c 128,-1,57
 575 6 575 6 525.5 -9.5 c 128,-1,58
 476 -25 476 -25 421 -25 c 0,59,60
 360 -25 360 -25 307.5 -9 c 128,-1,61
 255 7 255 7 216 40.5 c 128,-1,62
 177 74 177 74 155.5 128 c 128,-1,63
 134 182 134 182 134 257 c 2,64,-1
 134 587 l 2,65,66
 134 609 134 609 111.5 616 c 128,-1,67
 89 623 89 623 61 623 c 2,68,-1
 50 623 l 1,69,-1
 50 710 l 1,70,-1
 342 710 l 1,71,-1
 342 623 l 1,72,-1
 333 623 l 2,73,74
 319 623 319 623 304.5 622.5 c 128,-1,75
 290 622 290 622 277.5 620.5 c 128,-1,76
 265 619 265 619 257 617.5 c 128,-1,77
 249 616 249 616 249 613 c 2,78,-1
 249 275 l 2,28,29
EndSplineSet
EndChar

StartChar: Uinvertedbreve
Encoding: 534 534 189
Width: 828
GlyphClass: 1
Flags: W
LayerCount: 2
Fore
SplineSet
419 935 m 0,0,1
 359 935 359 935 318 917 c 128,-1,2
 277 899 277 899 255 860.5 c 128,-1,3
 233 822 233 822 233 759 c 1,4,-1
 316 759 l 1,5,6
 318 795 318 795 327.5 813.5 c 128,-1,7
 337 832 337 832 359 839 c 128,-1,8
 381 846 381 846 419 846 c 0,9,10
 454 846 454 846 475 839 c 128,-1,11
 496 832 496 832 506 813.5 c 128,-1,12
 516 795 516 795 518 759 c 1,13,-1
 607 759 l 1,14,15
 606 822 606 822 583 860.5 c 128,-1,16
 560 899 560 899 518.5 917 c 128,-1,17
 477 935 477 935 419 935 c 0,0,1
249 275 m 2,18,19
 249 218 249 218 262.5 178.5 c 128,-1,20
 276 139 276 139 300 115.5 c 128,-1,21
 324 92 324 92 356.5 81.5 c 128,-1,22
 389 71 389 71 428 71 c 0,23,24
 468 71 468 71 500.5 81.5 c 128,-1,25
 533 92 533 92 556 116 c 128,-1,26
 579 140 579 140 591 179 c 128,-1,27
 603 218 603 218 603 275 c 2,28,-1
 603 604 l 2,29,30
 603 609 603 609 595.5 612.5 c 128,-1,31
 588 616 588 616 576.5 618 c 128,-1,32
 565 620 565 620 552 621.5 c 128,-1,33
 539 623 539 623 528 623 c 2,34,-1
 519 623 l 1,35,-1
 519 710 l 1,36,-1
 778 710 l 1,37,-1
 778 623 l 1,38,-1
 768 623 l 2,39,40
 750 623 750 623 733.5 619 c 128,-1,41
 717 615 717 615 707 605 c 128,-1,42
 697 595 697 595 697 578 c 2,43,-1
 697 256 l 2,44,45
 697 181 697 181 675 127.5 c 128,-1,46
 653 74 653 74 614 40 c 128,-1,47
 575 6 575 6 525.5 -9.5 c 128,-1,48
 476 -25 476 -25 421 -25 c 0,49,50
 360 -25 360 -25 307.5 -9 c 128,-1,51
 255 7 255 7 216 40.5 c 128,-1,52
 177 74 177 74 155.5 128 c 128,-1,53
 134 182 134 182 134 257 c 2,54,-1
 134 587 l 2,55,56
 134 609 134 609 111.5 616 c 128,-1,57
 89 623 89 623 61 623 c 2,58,-1
 50 623 l 1,59,-1
 50 710 l 1,60,-1
 342 710 l 1,61,-1
 342 623 l 1,62,-1
 333 623 l 2,63,64
 319 623 319 623 304.5 622.5 c 128,-1,65
 290 622 290 622 277.5 620.5 c 128,-1,66
 265 619 265 619 257 617.5 c 128,-1,67
 249 616 249 616 249 613 c 2,68,-1
 249 275 l 2,18,19
EndSplineSet
EndChar

StartChar: V
Encoding: 86 86 199
Width: 757
GlyphClass: 2
Flags: W
AnchorPoint: "Anchor-0" 360 741 basechar 0
LayerCount: 2
Fore
SplineSet
406 34 m 1,0,-1
 378 47 l 1,1,-1
 573 600 l 2,2,3
 573 607 573 607 563.5 612 c 128,-1,4
 554 617 554 617 536.5 620 c 128,-1,5
 519 623 519 623 496 623 c 2,6,-1
 484 623 l 1,7,-1
 484 710 l 1,8,-1
 737 710 l 1,9,-1
 737 623 l 1,10,-1
 731 623 l 2,11,12
 708 623 708 623 689 610.5 c 128,-1,13
 670 598 670 598 656 559 c 2,14,-1
 454 -11 l 1,15,-1
 308 -11 l 1,16,-1
 103 559 l 2,17,18
 89 598 89 598 69 610.5 c 128,-1,19
 49 623 49 623 26 623 c 2,20,-1
 20 623 l 1,21,-1
 20 710 l 1,22,-1
 300 710 l 1,23,-1
 300 623 l 1,24,-1
 288 623 l 2,25,26
 261 623 261 623 242 621.5 c 128,-1,27
 223 620 223 620 213 618 c 128,-1,28
 203 616 203 616 203 612 c 2,29,-1
 406 34 l 1,0,-1
EndSplineSet
EndChar

StartChar: W
Encoding: 87 87 200
Width: 1058
GlyphClass: 2
Flags: W
AnchorPoint: "Anchor-0" 544 741 basechar 0
LayerCount: 2
Fore
SplineSet
20 710 m 1,0,-1
 285 710 l 1,1,-1
 285 623 l 1,2,-1
 269 623 l 2,3,4
 257 623 257 623 241 621.5 c 128,-1,5
 225 620 225 620 213.5 618 c 128,-1,6
 202 616 202 616 202 612 c 2,7,-1
 348 60 l 1,8,-1
 305 62 l 1,9,-1
 482 710 l 1,10,-1
 608 710 l 1,11,-1
 784 63 l 1,12,-1
 743 62 l 1,13,-1
 888 599 l 2,14,15
 888 606 888 606 878.5 611.5 c 128,-1,16
 869 617 869 617 855.5 620 c 128,-1,17
 842 623 842 623 830 623 c 2,18,-1
 815 623 l 1,19,-1
 815 710 l 1,20,-1
 1038 710 l 1,21,-1
 1038 623 l 1,22,-1
 1031 623 l 2,23,24
 1010 623 1010 623 993.5 612 c 128,-1,25
 977 601 977 601 970 578 c 2,26,-1
 815 0 l 1,27,-1
 692 0 l 1,28,-1
 512 646 l 1,29,-1
 553 645 l 1,30,-1
 380 0 l 1,31,-1
 255 0 l 1,32,-1
 91 590 l 2,33,34
 84 614 84 614 68 618.5 c 128,-1,35
 52 623 52 623 27 623 c 2,36,-1
 20 623 l 1,37,-1
 20 710 l 1,0,-1
EndSplineSet
EndChar

StartChar: X
Encoding: 88 88 205
Width: 772
GlyphClass: 2
Flags: W
AnchorPoint: "Anchor-1" 355 0 basechar 0
AnchorPoint: "Anchor-0" 378 741 basechar 0
LayerCount: 2
Fore
SplineSet
42 623 m 1,0,-1
 42 710 l 1,1,-1
 333 710 l 1,2,-1
 333 623 l 1,3,-1
 316 623 l 2,4,5
 299 623 299 623 283.5 622 c 128,-1,6
 268 621 268 621 258.5 619 c 128,-1,7
 249 617 249 617 249 613 c 2,8,-1
 426 392 l 1,9,-1
 440 389 l 1,10,-1
 651 122 l 2,11,12
 669 99 669 99 686 93 c 128,-1,13
 703 87 703 87 723 87 c 2,14,-1
 743 87 l 1,15,-1
 743 0 l 1,16,-1
 446 0 l 1,17,-1
 446 87 l 1,18,-1
 463 87 l 2,19,20
 480 87 480 87 495.5 88 c 128,-1,21
 511 89 511 89 520.5 91.5 c 128,-1,22
 530 94 530 94 530 97 c 2,23,-1
 340 337 l 1,24,-1
 326 341 l 1,25,-1
 130 588 l 2,26,27
 112 611 112 611 94.5 617 c 128,-1,28
 77 623 77 623 56 623 c 2,29,-1
 42 623 l 1,0,-1
30 0 m 1,30,-1
 30 87 l 1,31,-1
 49 87 l 2,32,33
 68 87 68 87 85 96.5 c 128,-1,34
 102 106 102 106 123 133 c 2,35,-1
 316 381 l 1,36,-1
 389 336 l 1,37,-1
 209 104 l 2,38,39
 209 100 209 100 219 96 c 128,-1,40
 229 92 229 92 244 89.5 c 128,-1,41
 259 87 259 87 271 87 c 2,42,-1
 289 87 l 1,43,-1
 289 0 l 1,44,-1
 30 0 l 1,30,-1
451 352 m 1,45,-1
 381 398 l 1,46,-1
 549 605 l 2,47,48
 549 611 549 611 538.5 615 c 128,-1,49
 528 619 528 619 513 621 c 128,-1,50
 498 623 498 623 485 623 c 2,51,-1
 471 623 l 1,52,-1
 471 710 l 1,53,-1
 726 710 l 1,54,-1
 726 623 l 1,55,-1
 712 623 l 2,56,57
 693 623 693 623 675.5 614 c 128,-1,58
 658 605 658 605 635 578 c 2,59,-1
 451 352 l 1,45,-1
EndSplineSet
EndChar

StartChar: Y
Encoding: 89 89 206
Width: 725
GlyphClass: 2
Flags: W
AnchorPoint: "Anchor-1" 366 0 basechar 0
AnchorPoint: "Anchor-0" 366 741 basechar 0
LayerCount: 2
Fore
SplineSet
308 306 m 1,0,-1
 316 261 l 1,1,-1
 109 586 l 2,2,3
 99 601 99 601 89 609.5 c 128,-1,4
 79 618 79 618 67.5 620.5 c 128,-1,5
 56 623 56 623 42 623 c 2,6,-1
 29 623 l 1,7,-1
 29 710 l 1,8,-1
 292 710 l 1,9,-1
 292 623 l 1,10,-1
 276 623 l 2,11,12
 261 623 261 623 247 621.5 c 128,-1,13
 233 620 233 620 224 618 c 128,-1,14
 215 616 215 616 215 612 c 2,15,-1
 401 306 l 1,16,-1
 356 305 l 1,17,-1
 529 600 l 2,18,19
 529 607 529 607 519.5 612 c 128,-1,20
 510 617 510 617 497.5 620 c 128,-1,21
 485 623 485 623 476 623 c 2,22,-1
 464 623 l 1,23,-1
 464 710 l 1,24,-1
 695 710 l 1,25,-1
 695 623 l 1,26,-1
 683 623 l 2,27,28
 671 623 671 623 659 618 c 128,-1,29
 647 613 647 613 635.5 603 c 128,-1,30
 624 593 624 593 612 574 c 2,31,-1
 415 259 l 1,32,-1
 424 306 l 1,33,-1
 424 123 l 2,34,35
 424 101 424 101 447.5 94 c 128,-1,36
 471 87 471 87 504 87 c 2,37,-1
 525 87 l 1,38,-1
 525 0 l 1,39,-1
 207 0 l 1,40,-1
 207 87 l 1,41,-1
 228 87 l 2,42,43
 262 87 262 87 285 94 c 128,-1,44
 308 101 308 101 308 123 c 2,45,-1
 308 306 l 1,0,-1
EndSplineSet
EndChar

StartChar: Z
Encoding: 90 90 216
Width: 687
GlyphClass: 2
Flags: W
AnchorPoint: "Anchor-1" 363 0 basechar 0
AnchorPoint: "Anchor-0" 363 741 basechar 0
LayerCount: 2
Fore
SplineSet
274 623 m 2,0,1
 244 623 244 623 225 621 c 128,-1,2
 206 619 206 619 196 614 c 128,-1,3
 186 609 186 609 181 600.5 c 128,-1,4
 176 592 176 592 174 578 c 2,5,-1
 162 499 l 1,6,-1
 77 499 l 1,7,-1
 77 710 l 1,8,-1
 608 710 l 1,9,-1
 608 615 l 1,10,-1
 145 23 l 1,11,-1
 125 87 l 1,12,-1
 421 87 l 2,13,14
 462 87 462 87 483 90.5 c 128,-1,15
 504 94 504 94 512.5 104 c 128,-1,16
 521 114 521 114 523 132 c 2,17,-1
 538 236 l 1,18,-1
 624 236 l 1,19,-1
 624 0 l 1,20,-1
 62 0 l 1,21,-1
 62 98 l 1,22,-1
 512 674 l 1,23,-1
 536 623 l 1,24,-1
 274 623 l 2,0,1
EndSplineSet
EndChar

StartChar: Zcaron
Encoding: 381 381 219
Width: 687
GlyphClass: 1
Flags: W
LayerCount: 2
Fore
SplineSet
299 803 m 1,0,-1
 380 803 l 1,1,-1
 517 958 l 1,2,-1
 517 983 l 1,3,-1
 458 983 l 1,4,-1
 273 844 l 1,5,-1
 412 848 l 1,6,-1
 230 983 l 1,7,-1
 161 983 l 1,8,-1
 161 958 l 1,9,-1
 299 803 l 1,0,-1
274 623 m 2,10,11
 244 623 244 623 225 621 c 128,-1,12
 206 619 206 619 196 614 c 128,-1,13
 186 609 186 609 181 600.5 c 128,-1,14
 176 592 176 592 174 578 c 2,15,-1
 162 499 l 1,16,-1
 77 499 l 1,17,-1
 77 710 l 1,18,-1
 608 710 l 1,19,-1
 608 615 l 1,20,-1
 145 23 l 1,21,-1
 125 87 l 1,22,-1
 421 87 l 2,23,24
 462 87 462 87 483 90.5 c 128,-1,25
 504 94 504 94 512.5 104 c 128,-1,26
 521 114 521 114 523 132 c 2,27,-1
 538 236 l 1,28,-1
 624 236 l 1,29,-1
 624 0 l 1,30,-1
 62 0 l 1,31,-1
 62 98 l 1,32,-1
 512 674 l 1,33,-1
 536 623 l 1,34,-1
 274 623 l 2,10,11
EndSplineSet
EndChar

StartChar: AE
Encoding: 198 198 221
Width: 1106
GlyphClass: 2
Flags: W
AnchorPoint: "Anchor-0" 682 741 basechar 0
LayerCount: 2
Fore
SplineSet
239 305 m 1,0,-1
 574 305 l 1,1,-1
 591 219 l 1,2,-1
 221 219 l 1,3,-1
 239 305 l 1,0,-1
629 406 m 1,4,5
 675 408 675 408 722 410 c 128,-1,6
 769 412 769 412 818 415.5 c 128,-1,7
 867 419 867 419 916 423 c 1,8,-1
 916 307 l 1,9,10
 869 309 869 309 821 311.5 c 128,-1,11
 773 314 773 314 725 317.5 c 128,-1,12
 677 321 677 321 629 324 c 1,13,-1
 629 406 l 1,4,5
449 0 m 1,14,-1
 449 87 l 1,15,-1
 456 87 l 2,16,17
 482 87 482 87 500 90 c 128,-1,18
 518 93 518 93 527 99 c 128,-1,19
 536 105 536 105 536 112 c 2,20,-1
 536 648 l 1,21,-1
 513 630 l 1,22,-1
 187 110 l 2,23,24
 187 104 187 104 193.5 98.5 c 128,-1,25
 200 93 200 93 215 90 c 128,-1,26
 230 87 230 87 257 87 c 2,27,-1
 266 87 l 1,28,-1
 266 0 l 1,29,-1
 5 0 l 1,30,-1
 5 87 l 1,31,-1
 11 87 l 2,32,33
 32 87 32 87 47 93.5 c 128,-1,34
 62 100 62 100 76 114 c 128,-1,35
 90 128 90 128 104 151 c 2,36,-1
 381 592 l 1,37,38
 381 607 381 607 376 613 c 128,-1,39
 371 619 371 619 359 621 c 128,-1,40
 347 623 347 623 324 623 c 2,41,-1
 314 623 l 1,42,-1
 314 710 l 1,43,-1
 1015 710 l 1,44,-1
 1015 508 l 1,45,-1
 930 508 l 1,46,-1
 918 578 l 2,47,48
 914 596 914 596 902 605.5 c 128,-1,49
 890 615 890 615 864.5 619 c 128,-1,50
 839 623 839 623 799 623 c 2,51,-1
 651 623 l 1,52,-1
 651 87 l 1,53,-1
 813 87 l 2,54,55
 844 87 844 87 866 89 c 128,-1,56
 888 91 888 91 902 96 c 128,-1,57
 916 101 916 101 923 110 c 128,-1,58
 930 119 930 119 932 132 c 2,59,-1
 947 227 l 1,60,-1
 1034 227 l 1,61,-1
 1034 0 l 1,62,-1
 449 0 l 1,14,-1
EndSplineSet
EndChar

StartChar: Eth
Encoding: 208 208 223
Width: 819
GlyphClass: 1
Flags: W
LayerCount: 2
Fore
SplineSet
49 404 m 1,0,-1
 459 404 l 1,1,-1
 459 317 l 1,2,-1
 49 317 l 1,3,-1
 49 404 l 1,0,-1
58 623 m 1,4,-1
 58 710 l 1,5,-1
 377 710 l 2,6,7
 467 710 467 710 538 688.5 c 128,-1,8
 609 667 609 667 658 623.5 c 128,-1,9
 707 580 707 580 733 514 c 128,-1,10
 759 448 759 448 759 359 c 0,11,12
 759 271 759 271 733 203.5 c 128,-1,13
 707 136 707 136 658 91 c 128,-1,14
 609 46 609 46 538 23 c 128,-1,15
 467 0 467 0 377 0 c 2,16,-1
 58 0 l 1,17,-1
 58 87 l 1,18,-1
 69 87 l 2,19,20
 97 87 97 87 119 94 c 128,-1,21
 141 101 141 101 141 123 c 2,22,-1
 141 587 l 2,23,24
 141 609 141 609 119 616 c 128,-1,25
 97 623 97 623 69 623 c 2,26,-1
 58 623 l 1,4,-1
374 623 m 2,27,-1
 257 623 l 1,28,-1
 257 87 l 1,29,-1
 374 87 l 2,30,31
 441 87 441 87 490 103.5 c 128,-1,32
 539 120 539 120 571.5 154 c 128,-1,33
 604 188 604 188 619.5 239 c 128,-1,34
 635 290 635 290 635 359 c 256,35,36
 635 428 635 428 619.5 477.5 c 128,-1,37
 604 527 604 527 571.5 559.5 c 128,-1,38
 539 592 539 592 490 607.5 c 128,-1,39
 441 623 441 623 374 623 c 2,27,-1
EndSplineSet
EndChar

StartChar: Oslash
Encoding: 216 216 224
Width: 833
GlyphClass: 2
Flags: W
AnchorPoint: "Anchor-0" 415 731 basechar 0
LayerCount: 2
Fore
SplineSet
416 645 m 256,0,1
 358 645 358 645 314.5 628 c 128,-1,2
 271 611 271 611 242 575 c 128,-1,3
 213 539 213 539 198.5 484.5 c 128,-1,4
 184 430 184 430 184 355 c 0,5,6
 184 275 184 275 198.5 219 c 128,-1,7
 213 163 213 163 242 129.5 c 128,-1,8
 271 96 271 96 315 80.5 c 128,-1,9
 359 65 359 65 416 65 c 0,10,11
 475 65 475 65 518.5 82 c 128,-1,12
 562 99 562 99 590.5 134.5 c 128,-1,13
 619 170 619 170 634 224.5 c 128,-1,14
 649 279 649 279 649 355 c 0,15,16
 649 435 649 435 634.5 491 c 128,-1,17
 620 547 620 547 591 580.5 c 128,-1,18
 562 614 562 614 518 629.5 c 128,-1,19
 474 645 474 645 416 645 c 256,0,1
416 -25 m 0,20,21
 337 -25 337 -25 271.5 2 c 128,-1,22
 206 29 206 29 159 79.5 c 128,-1,23
 112 130 112 130 86 200 c 128,-1,24
 60 270 60 270 60 355 c 0,25,26
 60 448 60 448 85.5 518.5 c 128,-1,27
 111 589 111 589 158.5 637.5 c 128,-1,28
 206 686 206 686 271.5 710.5 c 128,-1,29
 337 735 337 735 416 735 c 0,30,31
 496 735 496 735 561.5 708 c 128,-1,32
 627 681 627 681 674 630.5 c 128,-1,33
 721 580 721 580 747 510 c 128,-1,34
 773 440 773 440 773 355 c 0,35,36
 773 263 773 263 747.5 192 c 128,-1,37
 722 121 722 121 675 72.5 c 128,-1,38
 628 24 628 24 562.5 -0.5 c 128,-1,39
 497 -25 497 -25 416 -25 c 0,20,21
-2 -25 m 1,40,-1
 735 735 l 1,41,-1
 835 735 l 1,42,-1
 98 -25 l 1,43,-1
 -2 -25 l 1,40,-1
EndSplineSet
EndChar

StartChar: Thorn
Encoding: 222 222 226
Width: 732
GlyphClass: 1
Flags: W
LayerCount: 2
Fore
SplineSet
368 710 m 1,0,-1
 58 710 l 1,1,-1
 58 624 l 1,2,-1
 69 624 l 2,3,4
 104 624 104 624 122.5 617 c 128,-1,5
 141 610 141 610 141 588 c 2,6,-1
 141 122 l 2,7,8
 141 100 141 100 122.5 93 c 128,-1,9
 104 86 104 86 69 86 c 2,10,-1
 58 86 l 1,11,-1
 58 0 l 1,12,-1
 368 0 l 1,13,-1
 368 87 l 1,14,-1
 348 87 l 2,15,16
 331 87 331 87 314.5 87.5 c 128,-1,17
 298 88 298 88 285.5 89.5 c 128,-1,18
 273 91 273 91 265 92.5 c 128,-1,19
 257 94 257 94 257 97 c 2,20,-1
 257 613 l 2,21,22
 257 616 257 616 265 617.5 c 128,-1,23
 273 619 273 619 285.5 620.5 c 128,-1,24
 298 622 298 622 314.5 622.5 c 128,-1,25
 331 623 331 623 348 623 c 2,26,-1
 368 623 l 1,27,-1
 368 710 l 1,0,-1
674 366 m 0,28,29
 674 430 674 430 644.5 471 c 128,-1,30
 615 512 615 512 561 531.5 c 128,-1,31
 507 551 507 551 430 551 c 2,32,-1
 222 551 l 1,33,-1
 223 466 l 1,34,-1
 423 466 l 2,35,36
 470 466 470 466 498.5 456 c 128,-1,37
 527 446 527 446 539.5 424 c 128,-1,38
 552 402 552 402 552 365 c 256,39,40
 552 328 552 328 539.5 305 c 128,-1,41
 527 282 527 282 498.5 271.5 c 128,-1,42
 470 261 470 261 422 261 c 2,43,-1
 226 261 l 1,44,-1
 226 176 l 1,45,-1
 429 176 l 2,46,47
 503 176 503 176 557.5 197 c 128,-1,48
 612 218 612 218 643 260.5 c 128,-1,49
 674 303 674 303 674 366 c 0,28,29
EndSplineSet
EndChar

StartChar: Hbar
Encoding: 294 294 228
Width: 871
GlyphClass: 1
Flags: W
LayerCount: 2
Fore
SplineSet
226 373 m 1,0,-1
 641 373 l 1,1,-1
 641 295 l 1,2,-1
 226 295 l 1,3,-1
 226 373 l 1,0,-1
58 0 m 1,4,-1
 58 87 l 1,5,-1
 69 87 l 2,6,7
 97 87 97 87 119 94 c 128,-1,8
 141 101 141 101 141 123 c 2,9,-1
 141 587 l 2,10,11
 141 609 141 609 119 616 c 128,-1,12
 97 623 97 623 69 623 c 2,13,-1
 58 623 l 1,14,-1
 58 710 l 1,15,-1
 349 710 l 1,16,-1
 349 623 l 1,17,-1
 340 623 l 2,18,19
 327 623 327 623 312 622.5 c 128,-1,20
 297 622 297 622 284.5 620.5 c 128,-1,21
 272 619 272 619 264.5 617.5 c 128,-1,22
 257 616 257 616 257 613 c 2,23,-1
 257 97 l 2,24,25
 257 94 257 94 264.5 92.5 c 128,-1,26
 272 91 272 91 284.5 89.5 c 128,-1,27
 297 88 297 88 312 87.5 c 128,-1,28
 327 87 327 87 340 87 c 2,29,-1
 349 87 l 1,30,-1
 349 0 l 1,31,-1
 58 0 l 1,4,-1
523 0 m 1,32,-1
 523 87 l 1,33,-1
 531 87 l 2,34,35
 545 87 545 87 559.5 87.5 c 128,-1,36
 574 88 574 88 586.5 89.5 c 128,-1,37
 599 91 599 91 606.5 92.5 c 128,-1,38
 614 94 614 94 614 97 c 2,39,-1
 614 613 l 2,40,41
 614 616 614 616 606.5 617.5 c 128,-1,42
 599 619 599 619 586.5 620.5 c 128,-1,43
 574 622 574 622 559.5 622.5 c 128,-1,44
 545 623 545 623 531 623 c 2,45,-1
 523 623 l 1,46,-1
 523 710 l 1,47,-1
 814 710 l 1,48,-1
 814 623 l 1,49,-1
 803 623 l 2,50,51
 774 623 774 623 752 616 c 128,-1,52
 730 609 730 609 730 587 c 2,53,-1
 730 123 l 2,54,55
 730 101 730 101 752 94 c 128,-1,56
 774 87 774 87 803 87 c 2,57,-1
 814 87 l 1,58,-1
 814 0 l 1,59,-1
 523 0 l 1,32,-1
47 464 m 1,60,-1
 47 542 l 1,61,-1
 825 542 l 1,62,-1
 825 464 l 1,63,-1
 47 464 l 1,60,-1
EndSplineSet
EndChar

StartChar: Ldot
Encoding: 319 319 230
Width: 672
GlyphClass: 1
Flags: W
LayerCount: 2
Fore
SplineSet
361 710 m 1,0,-1
 58 710 l 1,1,-1
 58 623 l 1,2,-1
 69 623 l 2,3,4
 97 623 97 623 119 616 c 128,-1,5
 141 609 141 609 141 587 c 2,6,-1
 141 123 l 2,7,8
 141 101 141 101 119 94 c 128,-1,9
 97 87 97 87 69 87 c 2,10,-1
 58 87 l 1,11,-1
 58 0 l 1,12,-1
 620 0 l 1,13,-1
 620 225 l 1,14,-1
 533 225 l 1,15,-1
 518 132 l 2,16,17
 516 114 516 114 503.5 104 c 128,-1,18
 491 94 491 94 465.5 90.5 c 128,-1,19
 440 87 440 87 398 87 c 2,20,-1
 257 87 l 1,21,-1
 257 587 l 2,22,23
 257 609 257 609 282 616 c 128,-1,24
 307 623 307 623 345 623 c 2,25,-1
 361 623 l 1,26,-1
 361 710 l 1,0,-1
555 337 m 0,27,28
 512 337 512 337 483.5 362.5 c 128,-1,29
 455 388 455 388 455 431 c 256,30,31
 455 474 455 474 483.5 499 c 128,-1,32
 512 524 512 524 555 524 c 0,33,34
 599 524 599 524 627.5 499 c 128,-1,35
 656 474 656 474 656 431 c 0,36,37
 656 389 656 389 627.5 363 c 128,-1,38
 599 337 599 337 555 337 c 0,27,28
EndSplineSet
Ligature2: "Ligature Substitution lookup 5 subtable" L periodcentered
EndChar

StartChar: Lslash
Encoding: 321 321 231
Width: 671
GlyphClass: 1
Flags: W
LayerCount: 2
Fore
SplineSet
30 177 m 1,0,-1
 521 465 l 1,1,-1
 521 557 l 1,2,-1
 30 269 l 1,3,-1
 30 177 l 1,0,-1
363 710 m 1,4,-1
 59 710 l 1,5,-1
 59 623 l 1,6,-1
 70 623 l 2,7,8
 98 623 98 623 120.5 616 c 128,-1,9
 143 609 143 609 143 587 c 2,10,-1
 143 123 l 2,11,12
 143 101 143 101 120.5 94 c 128,-1,13
 98 87 98 87 70 87 c 2,14,-1
 59 87 l 1,15,-1
 59 0 l 1,16,-1
 622 0 l 1,17,-1
 622 240 l 1,18,-1
 535 240 l 1,19,-1
 520 132 l 2,20,21
 518 114 518 114 506 104 c 128,-1,22
 494 94 494 94 468 90.5 c 128,-1,23
 442 87 442 87 400 87 c 2,24,-1
 259 87 l 1,25,-1
 259 587 l 2,26,27
 259 609 259 609 284 616 c 128,-1,28
 309 623 309 623 346 623 c 2,29,-1
 363 623 l 1,30,-1
 363 710 l 1,4,-1
EndSplineSet
EndChar

StartChar: Eng
Encoding: 330 330 232
Width: 846
GlyphClass: 1
Flags: W
LayerCount: 2
Fore
SplineSet
716 -13 m 2,0,1
 716 -76 716 -76 697.5 -121.5 c 128,-1,2
 679 -167 679 -167 646.5 -195 c 128,-1,3
 614 -223 614 -223 570.5 -236.5 c 128,-1,4
 527 -250 527 -250 475 -250 c 0,5,6
 431 -250 431 -250 399.5 -244.5 c 128,-1,7
 368 -239 368 -239 349 -231 c 1,8,-1
 349 -137 l 1,9,10
 363 -143 363 -143 381.5 -148 c 128,-1,11
 400 -153 400 -153 422 -156 c 128,-1,12
 444 -159 444 -159 470 -159 c 0,13,14
 522 -159 522 -159 555 -145.5 c 128,-1,15
 588 -132 588 -132 604 -97 c 128,-1,16
 620 -62 620 -62 620 -1 c 2,17,-1
 620 67 l 1,18,-1
 639 -38 l 1,19,-1
 198 666 l 1,20,-1
 237 667 l 1,21,-1
 237 97 l 2,22,23
 237 94 237 94 247 91.5 c 128,-1,24
 257 89 257 89 273 88 c 128,-1,25
 289 87 289 87 304 87 c 2,26,-1
 318 87 l 1,27,-1
 318 0 l 1,28,-1
 59 0 l 1,29,-1
 59 87 l 1,30,-1
 70 87 l 2,31,32
 94 87 94 87 110 90 c 128,-1,33
 126 93 126 93 134 101 c 128,-1,34
 142 109 142 109 142 123 c 2,35,-1
 142 587 l 2,36,37
 142 602 142 602 134 609.5 c 128,-1,38
 126 617 126 617 110 620 c 128,-1,39
 94 623 94 623 70 623 c 2,40,-1
 59 623 l 1,41,-1
 59 710 l 1,42,-1
 298 710 l 1,43,-1
 678 95 l 1,44,-1
 620 96 l 1,45,-1
 620 613 l 2,46,47
 620 617 620 617 610 619 c 128,-1,48
 600 621 600 621 585 622 c 128,-1,49
 570 623 570 623 553 623 c 2,50,-1
 539 623 l 1,51,-1
 539 710 l 1,52,-1
 797 710 l 1,53,-1
 797 623 l 1,54,-1
 786 623 l 2,55,56
 763 623 763 623 747 620 c 128,-1,57
 731 617 731 617 723.5 609.5 c 128,-1,58
 716 602 716 602 716 587 c 2,59,-1
 716 -13 l 2,0,1
EndSplineSet
Substitution2: "'ss07' Style Set 7 lookup 67 subtable" Eng.afr
EndChar

StartChar: OE
Encoding: 338 338 233
Width: 1126
GlyphClass: 1
Flags: W
LayerCount: 2
Fore
SplineSet
650 406 m 1,0,1
 697 409 697 409 745 411.5 c 128,-1,2
 793 414 793 414 840.5 417 c 128,-1,3
 888 420 888 420 935 422 c 1,4,-1
 935 308 l 1,5,6
 888 311 888 311 840.5 314 c 128,-1,7
 793 317 793 317 745 319.5 c 128,-1,8
 697 322 697 322 650 324 c 1,9,-1
 650 406 l 1,0,1
445 87 m 2,10,-1
 557 87 l 1,11,-1
 557 623 l 1,12,-1
 445 623 l 2,13,14
 379 623 379 623 329.5 607.5 c 128,-1,15
 280 592 280 592 248 559.5 c 128,-1,16
 216 527 216 527 199.5 475.5 c 128,-1,17
 183 424 183 424 183 351 c 0,18,19
 183 279 183 279 199.5 228.5 c 128,-1,20
 216 178 216 178 248 146.5 c 128,-1,21
 280 115 280 115 329.5 101 c 128,-1,22
 379 87 379 87 445 87 c 2,10,-1
441 0 m 2,23,24
 352 0 352 0 281 21.5 c 128,-1,25
 210 43 210 43 160.5 86.5 c 128,-1,26
 111 130 111 130 85.5 196 c 128,-1,27
 60 262 60 262 60 351 c 256,28,29
 60 440 60 440 85.5 507 c 128,-1,30
 111 574 111 574 160.5 619 c 128,-1,31
 210 664 210 664 281 687 c 128,-1,32
 352 710 352 710 441 710 c 2,33,-1
 1035 710 l 1,34,-1
 1035 508 l 1,35,-1
 948 508 l 1,36,-1
 937 578 l 2,37,38
 935 596 935 596 925.5 605.5 c 128,-1,39
 916 615 916 615 894 619 c 128,-1,40
 872 623 872 623 831 623 c 2,41,-1
 673 623 l 1,42,-1
 673 87 l 1,43,-1
 843 87 l 2,44,45
 875 87 875 87 895 89 c 128,-1,46
 915 91 915 91 927 96 c 128,-1,47
 939 101 939 101 944 110 c 128,-1,48
 949 119 949 119 951 132 c 2,49,-1
 965 227 l 1,50,-1
 1054 227 l 1,51,-1
 1054 0 l 1,52,-1
 441 0 l 2,23,24
EndSplineSet
EndChar

StartChar: Tbar
Encoding: 358 358 234
Width: 744
GlyphClass: 1
Flags: W
LayerCount: 2
Fore
SplineSet
137 344 m 1,0,-1
 604 344 l 1,1,-1
 604 258 l 1,2,-1
 137 258 l 1,3,-1
 137 344 l 1,0,-1
314 123 m 2,4,-1
 314 622 l 1,5,-1
 251 622 l 2,6,7
 209 622 209 622 188 616 c 128,-1,8
 167 610 167 610 159 597.5 c 128,-1,9
 151 585 151 585 149 565 c 2,10,-1
 138 463 l 1,11,-1
 53 463 l 1,12,-1
 53 710 l 1,13,-1
 691 710 l 1,14,-1
 691 463 l 1,15,-1
 606 463 l 1,16,-1
 595 565 l 2,17,18
 593 585 593 585 585.5 597.5 c 128,-1,19
 578 610 578 610 556.5 616 c 128,-1,20
 535 622 535 622 493 622 c 2,21,-1
 430 622 l 1,22,-1
 430 123 l 2,23,24
 430 101 430 101 455 94 c 128,-1,25
 480 87 480 87 512 87 c 2,26,-1
 532 87 l 1,27,-1
 532 0 l 1,28,-1
 212 0 l 1,29,-1
 212 87 l 1,30,-1
 232 87 l 2,31,32
 264 87 264 87 289 94 c 128,-1,33
 314 101 314 101 314 123 c 2,4,-1
EndSplineSet
EndChar

StartChar: Bhook
Encoding: 385 385 235
Width: 796
GlyphClass: 2
Flags: W
AnchorPoint: "Anchor-1" 430 0 basechar 0
AnchorPoint: "Anchor-0" 398 741 basechar 0
LayerCount: 2
Fore
SplineSet
279 414 m 1,0,-1
 465 414 l 2,1,2
 507 414 507 414 531.5 426 c 128,-1,3
 556 438 556 438 567.5 462 c 128,-1,4
 579 486 579 486 579 523 c 0,5,6
 579 555 579 555 568 577 c 128,-1,7
 557 599 557 599 532.5 611 c 128,-1,8
 508 623 508 623 467 623 c 2,9,-1
 322 623 l 1,10,-1
 322 87 l 1,11,-1
 476 87 l 2,12,13
 523 87 523 87 551.5 101 c 128,-1,14
 580 115 580 115 593.5 142 c 128,-1,15
 607 169 607 169 607 207 c 256,16,17
 607 245 607 245 592.5 272.5 c 128,-1,18
 578 300 578 300 546.5 315 c 128,-1,19
 515 330 515 330 465 330 c 2,20,-1
 279 330 l 1,21,-1
 279 414 l 1,0,-1
187 710 m 2,22,-1
 475 710 l 2,23,24
 529 710 529 710 570.5 699 c 128,-1,25
 612 688 612 688 640.5 666 c 128,-1,26
 669 644 669 644 683.5 610.5 c 128,-1,27
 698 577 698 577 698 532 c 0,28,29
 698 486 698 486 676.5 451 c 128,-1,30
 655 416 655 416 612 396 c 128,-1,31
 569 376 569 376 504 376 c 1,32,-1
 514 394 l 1,33,-1
 514 348 l 1,34,-1
 504 371 l 1,35,36
 578 367 578 367 627.5 346 c 128,-1,37
 677 325 677 325 702.5 288 c 128,-1,38
 728 251 728 251 728 199 c 0,39,40
 728 148 728 148 712 110.5 c 128,-1,41
 696 73 696 73 665 49 c 128,-1,42
 634 25 634 25 588.5 12.5 c 128,-1,43
 543 0 543 0 485 0 c 2,44,-1
 123 0 l 1,45,-1
 123 87 l 1,46,-1
 134 87 l 2,47,48
 162 87 162 87 184 94 c 128,-1,49
 206 101 206 101 206 123 c 2,50,-1
 206 623 l 1,51,-1
 187 623 l 2,52,53
 160 623 160 623 142 614.5 c 128,-1,54
 124 606 124 606 115.5 588 c 128,-1,55
 107 570 107 570 107 538 c 0,56,57
 107 517 107 517 109.5 499 c 128,-1,58
 112 481 112 481 116 462 c 1,59,-1
 12 462 l 1,60,61
 9 478 9 478 7.5 497.5 c 128,-1,62
 6 517 6 517 6 536 c 0,63,64
 6 593 6 593 25.5 631.5 c 128,-1,65
 45 670 45 670 85 690 c 128,-1,66
 125 710 125 710 187 710 c 2,22,-1
EndSplineSet
EndChar

StartChar: Dhook
Encoding: 394 394 236
Width: 884
GlyphClass: 2
Flags: W
AnchorPoint: "Anchor-1" 442 0 basechar 0
AnchorPoint: "Anchor-0" 415 741 basechar 0
LayerCount: 2
Fore
SplineSet
187 710 m 2,0,-1
 442 710 l 2,1,2
 532 710 532 710 603 688.5 c 128,-1,3
 674 667 674 667 723.5 623.5 c 128,-1,4
 773 580 773 580 798.5 514 c 128,-1,5
 824 448 824 448 824 359 c 0,6,7
 824 271 824 271 798.5 203.5 c 128,-1,8
 773 136 773 136 723.5 91 c 128,-1,9
 674 46 674 46 603 23 c 128,-1,10
 532 0 532 0 442 0 c 2,11,-1
 123 0 l 1,12,-1
 123 88 l 1,13,-1
 134 88 l 2,14,15
 162 88 162 88 184 95 c 128,-1,16
 206 102 206 102 206 124 c 2,17,-1
 206 623 l 1,18,-1
 186 623 l 2,19,20
 160 623 160 623 142 614.5 c 128,-1,21
 124 606 124 606 115.5 588 c 128,-1,22
 107 570 107 570 107 538 c 0,23,24
 107 517 107 517 109.5 499 c 128,-1,25
 112 481 112 481 116 462 c 1,26,-1
 12 462 l 1,27,28
 9 478 9 478 7.5 498 c 128,-1,29
 6 518 6 518 6 536 c 0,30,31
 6 593 6 593 25.5 631.5 c 128,-1,32
 45 670 45 670 85 690 c 128,-1,33
 125 710 125 710 187 710 c 2,0,-1
439 623 m 2,34,-1
 322 623 l 1,35,-1
 322 87 l 1,36,-1
 439 87 l 2,37,38
 506 87 506 87 555 103.5 c 128,-1,39
 604 120 604 120 636.5 154 c 128,-1,40
 669 188 669 188 685 239 c 128,-1,41
 701 290 701 290 701 359 c 256,42,43
 701 428 701 428 685 477.5 c 128,-1,44
 669 527 669 527 636.5 559.5 c 128,-1,45
 604 592 604 592 555 607.5 c 128,-1,46
 506 623 506 623 439 623 c 2,34,-1
EndSplineSet
EndChar

StartChar: Schwa
Encoding: 399 399 237
Width: 776
GlyphClass: 1
Flags: W
LayerCount: 2
Fore
SplineSet
373 749 m 0,0,1
 478 749 478 749 555 706.5 c 128,-1,2
 632 664 632 664 674 579.5 c 128,-1,3
 716 495 716 495 716 368 c 0,4,5
 716 278 716 278 692 206 c 128,-1,6
 668 134 668 134 623.5 82.5 c 128,-1,7
 579 31 579 31 516.5 3 c 128,-1,8
 454 -25 454 -25 376 -25 c 0,9,10
 265 -25 265 -25 197 22.5 c 128,-1,11
 129 70 129 70 97.5 164.5 c 128,-1,12
 66 259 66 259 63 401 c 1,13,-1
 644 401 l 1,14,-1
 644 312 l 1,15,-1
 161 312 l 1,16,-1
 185 339 l 1,17,18
 189 258 189 258 201 205 c 128,-1,19
 213 152 213 152 235.5 121 c 128,-1,20
 258 90 258 90 292.5 77.5 c 128,-1,21
 327 65 327 65 375 65 c 0,22,23
 427 65 427 65 467.5 81 c 128,-1,24
 508 97 508 97 535.5 132.5 c 128,-1,25
 563 168 563 168 577.5 226.5 c 128,-1,26
 592 285 592 285 592 369 c 0,27,28
 592 460 592 460 576.5 516.5 c 128,-1,29
 561 573 561 573 532 604 c 128,-1,30
 503 635 503 635 462 647 c 128,-1,31
 421 659 421 659 371 659 c 0,32,33
 314 659 314 659 273 647.5 c 128,-1,34
 232 636 232 636 199.5 608.5 c 128,-1,35
 167 581 167 581 136 532 c 1,36,-1
 62 583 l 1,37,38
 92 633 92 633 136 670 c 128,-1,39
 180 707 180 707 239.5 728 c 128,-1,40
 299 749 299 749 373 749 c 0,0,1
EndSplineSet
EndChar

StartChar: Khook
Encoding: 408 408 238
Width: 807
GlyphClass: 2
Flags: W
AnchorPoint: "Anchor-1" 411 0 basechar 0
AnchorPoint: "Anchor-0" 460 741 basechar 0
LayerCount: 2
Fore
SplineSet
58 0 m 1,0,-1
 58 87 l 1,1,-1
 69 87 l 2,2,3
 97 87 97 87 119 94 c 128,-1,4
 141 101 141 101 141 123 c 2,5,-1
 141 587 l 2,6,7
 141 609 141 609 119 616 c 128,-1,8
 97 623 97 623 69 623 c 2,9,-1
 58 623 l 1,10,-1
 58 710 l 1,11,-1
 346 710 l 1,12,-1
 346 623 l 1,13,-1
 336 623 l 2,14,15
 324 623 324 623 310 622.5 c 128,-1,16
 296 622 296 622 284 620.5 c 128,-1,17
 272 619 272 619 264.5 617.5 c 128,-1,18
 257 616 257 616 257 613 c 2,19,-1
 257 97 l 2,20,21
 257 94 257 94 264.5 92.5 c 128,-1,22
 272 91 272 91 284 89.5 c 128,-1,23
 296 88 296 88 309.5 87.5 c 128,-1,24
 323 87 323 87 335 87 c 2,25,-1
 343 87 l 1,26,-1
 343 0 l 1,27,-1
 58 0 l 1,0,-1
716 719 m 0,28,29
 747 719 747 719 768.5 705.5 c 128,-1,30
 790 692 790 692 802 663 c 128,-1,31
 814 634 814 634 814 590 c 0,32,33
 814 554 814 554 809 519 c 128,-1,34
 804 484 804 484 797 465 c 1,35,-1
 691 465 l 1,36,37
 696 477 696 477 701 495 c 128,-1,38
 706 513 706 513 709.5 534.5 c 128,-1,39
 713 556 713 556 713 577 c 256,40,41
 713 598 713 598 705 607.5 c 128,-1,42
 697 617 697 617 681 617 c 0,43,44
 670 617 670 617 659 611 c 128,-1,45
 648 605 648 605 626.5 585 c 128,-1,46
 605 565 605 565 563 523 c 2,47,-1
 396 356 l 1,48,-1
 395 406 l 1,49,-1
 693 108 l 2,50,51
 703 100 703 100 712.5 95 c 128,-1,52
 722 90 722 90 733 88.5 c 128,-1,53
 744 87 744 87 755 87 c 2,54,-1
 772 87 l 1,55,-1
 772 0 l 1,56,-1
 464 0 l 1,57,-1
 464 87 l 1,58,-1
 474 87 l 2,59,60
 493 87 493 87 511 88 c 128,-1,61
 529 89 529 89 540 91.5 c 128,-1,62
 551 94 551 94 551 97 c 2,63,-1
 305 344 l 1,64,-1
 305 373 l 1,65,-1
 511 578 l 2,66,67
 558 625 558 625 589 653 c 128,-1,68
 620 681 620 681 641.5 695 c 128,-1,69
 663 709 663 709 680 714 c 128,-1,70
 697 719 697 719 716 719 c 0,28,29
EndSplineSet
EndChar

StartChar: Yhook
Encoding: 435 435 239
Width: 778
GlyphClass: 2
Flags: W
AnchorPoint: "Anchor-1" 365 0 basechar 0
AnchorPoint: "Anchor-0" 397 741 basechar 0
LayerCount: 2
Fore
SplineSet
516 578 m 2,0,1
 546 628 546 628 572 659 c 128,-1,2
 598 690 598 690 624.5 704.5 c 128,-1,3
 651 719 651 719 684 719 c 0,4,5
 726 719 726 719 750.5 700.5 c 128,-1,6
 775 682 775 682 785.5 651 c 128,-1,7
 796 620 796 620 796 583 c 0,8,9
 796 551 796 551 791 517 c 128,-1,10
 786 483 786 483 780 465 c 1,11,-1
 673 465 l 1,12,13
 678 478 678 478 683 494.5 c 128,-1,14
 688 511 688 511 691.5 529.5 c 128,-1,15
 695 548 695 548 695 566 c 0,16,17
 695 590 695 590 689 602.5 c 128,-1,18
 683 615 683 615 665 615 c 0,19,20
 653 615 653 615 642.5 607.5 c 128,-1,21
 632 600 632 600 620.5 584.5 c 128,-1,22
 609 569 609 569 593 545 c 2,23,-1
 415 259 l 1,24,-1
 424 306 l 1,25,-1
 424 123 l 2,26,27
 424 101 424 101 447.5 94 c 128,-1,28
 471 87 471 87 504 87 c 2,29,-1
 525 87 l 1,30,-1
 525 0 l 1,31,-1
 207 0 l 1,32,-1
 207 87 l 1,33,-1
 228 87 l 2,34,35
 262 87 262 87 285 94 c 128,-1,36
 308 101 308 101 308 123 c 2,37,-1
 308 306 l 1,38,-1
 316 261 l 1,39,-1
 109 586 l 2,40,41
 99 601 99 601 89 609.5 c 128,-1,42
 79 618 79 618 67.5 620.5 c 128,-1,43
 56 623 56 623 42 623 c 2,44,-1
 29 623 l 1,45,-1
 29 710 l 1,46,-1
 292 710 l 1,47,-1
 292 623 l 1,48,-1
 276 623 l 2,49,50
 261 623 261 623 247 621.5 c 128,-1,51
 233 620 233 620 224 618 c 128,-1,52
 215 616 215 616 215 612 c 2,53,-1
 401 306 l 1,54,-1
 356 305 l 1,55,-1
 516 578 l 2,0,1
EndSplineSet
EndChar

StartChar: Germandbls
Encoding: 7838 7838 240
Width: 890
GlyphClass: 1
Flags: W
LayerCount: 2
Fore
SplineSet
611 68 m 0,0,1
 654 68 654 68 676 80 c 128,-1,2
 698 92 698 92 705.5 117.5 c 128,-1,3
 713 143 713 143 713 184 c 0,4,5
 713 227 713 227 701.5 253.5 c 128,-1,6
 690 280 690 280 665 296.5 c 128,-1,7
 640 313 640 313 599 327 c 128,-1,8
 558 341 558 341 498 359 c 1,9,-1
 498 443 l 1,10,-1
 649 663 l 1,11,-1
 681 622 l 1,12,-1
 408 622 l 2,13,14
 365 622 365 622 335.5 612 c 128,-1,15
 306 602 306 602 287.5 582 c 128,-1,16
 269 562 269 562 261.5 532 c 128,-1,17
 254 502 254 502 254 461 c 2,18,-1
 254 0 l 1,19,-1
 50 0 l 1,20,-1
 50 87 l 1,21,-1
 61 87 l 2,22,23
 96 87 96 87 117 94 c 128,-1,24
 138 101 138 101 138 123 c 2,25,-1
 138 459 l 2,26,27
 138 520 138 520 152 566.5 c 128,-1,28
 166 613 166 613 196.5 645 c 128,-1,29
 227 677 227 677 276.5 693.5 c 128,-1,30
 326 710 326 710 398 710 c 2,31,-1
 742 710 l 1,32,-1
 742 622 l 1,33,-1
 589 398 l 1,34,-1
 554 424 l 1,35,36
 615 407 615 407 666 390 c 128,-1,37
 717 373 717 373 754 348 c 128,-1,38
 791 323 791 323 811 284 c 128,-1,39
 831 245 831 245 831 186 c 0,40,41
 831 124 831 124 808.5 79 c 128,-1,42
 786 34 786 34 739.5 10 c 128,-1,43
 693 -14 693 -14 619 -14 c 0,44,45
 557 -14 557 -14 518 7.5 c 128,-1,46
 479 29 479 29 459.5 74 c 128,-1,47
 440 119 440 119 435 188 c 1,48,-1
 455 138 l 1,49,-1
 440 0 l 1,50,-1
 359 0 l 1,51,-1
 359 232 l 1,52,-1
 450 232 l 1,53,54
 460 193 460 193 471.5 163 c 128,-1,55
 483 133 483 133 500 112 c 128,-1,56
 517 91 517 91 543.5 79.5 c 128,-1,57
 570 68 570 68 611 68 c 0,0,1
EndSplineSet
EndChar

StartChar: Delta
Encoding: 916 916 241
Width: 773
GlyphClass: 1
Flags: W
LayerCount: 2
Fore
SplineSet
54 0 m 1,0,-1
 54 95 l 1,1,-1
 326 710 l 1,2,-1
 448 710 l 1,3,-1
 719 95 l 1,4,-1
 719 0 l 1,5,-1
 54 0 l 1,0,-1
617 63 m 1,6,-1
 345 692 l 1,7,-1
 410 696 l 1,8,-1
 134 61 l 1,9,-1
 85 100 l 1,10,-1
 658 100 l 1,11,-1
 617 63 l 1,6,-1
EndSplineSet
EndChar

StartChar: Omega
Encoding: 937 937 242
Width: 890
GlyphClass: 1
Flags: W
LayerCount: 2
Fore
SplineSet
445 735 m 0,0,1
 368 735 368 735 306 718.5 c 128,-1,2
 244 702 244 702 200.5 668.5 c 128,-1,3
 157 635 157 635 134 585 c 128,-1,4
 111 535 111 535 111 469 c 0,5,6
 111 432 111 432 120.5 396.5 c 128,-1,7
 130 361 130 361 148.5 325.5 c 128,-1,8
 167 290 167 290 195.5 250.5 c 128,-1,9
 224 211 224 211 262.5 165 c 128,-1,10
 301 119 301 119 348 64 c 1,11,-1
 358 80 l 1,12,-1
 253 80 l 2,13,14
 211 80 211 80 189 84.5 c 128,-1,15
 167 89 167 89 157.5 100 c 128,-1,16
 148 111 148 111 145 129 c 2,17,-1
 130 219 l 1,18,-1
 51 219 l 1,19,-1
 51 0 l 1,20,-1
 398 0 l 1,21,-1
 398 130 l 1,22,23
 360 178 360 178 329.5 218 c 128,-1,24
 299 258 299 258 277 295 c 128,-1,25
 255 332 255 332 242.5 371 c 128,-1,26
 230 410 230 410 230 457 c 0,27,28
 230 529 230 529 254 571 c 128,-1,29
 278 613 278 613 326 631.5 c 128,-1,30
 374 650 374 650 445 650 c 0,31,32
 517 650 517 650 564.5 631.5 c 128,-1,33
 612 613 612 613 635.5 571 c 128,-1,34
 659 529 659 529 659 457 c 0,35,36
 659 410 659 410 647 371 c 128,-1,37
 635 332 635 332 612.5 295 c 128,-1,38
 590 258 590 258 559.5 218 c 128,-1,39
 529 178 529 178 491 130 c 1,40,-1
 491 0 l 1,41,-1
 838 0 l 1,42,-1
 838 219 l 1,43,-1
 759 219 l 1,44,-1
 745 129 l 2,45,46
 742 111 742 111 732 100 c 128,-1,47
 722 89 722 89 700 84.5 c 128,-1,48
 678 80 678 80 637 80 c 2,49,-1
 532 80 l 1,50,-1
 541 64 l 1,51,52
 589 119 589 119 627 165 c 128,-1,53
 665 211 665 211 693.5 250.5 c 128,-1,54
 722 290 722 290 741 325.5 c 128,-1,55
 760 361 760 361 769.5 396.5 c 128,-1,56
 779 432 779 432 779 469 c 0,57,58
 779 535 779 535 755.5 585 c 128,-1,59
 732 635 732 635 688.5 668.5 c 128,-1,60
 645 702 645 702 583 718.5 c 128,-1,61
 521 735 521 735 445 735 c 0,0,1
EndSplineSet
EndChar

StartChar: Djecyr
Encoding: 1026 1026 244
Width: 893
GlyphClass: 2
Flags: W
AnchorPoint: "Anchor-0" 348 741 basechar 0
LayerCount: 2
Fore
SplineSet
831 201 m 0,0,1
 831 146 831 146 814 103.5 c 128,-1,2
 797 61 797 61 764.5 32 c 128,-1,3
 732 3 732 3 685 -11 c 128,-1,4
 638 -25 638 -25 579 -25 c 1,5,-1
 579 62 l 1,6,7
 621 62 621 62 650 76 c 128,-1,8
 679 90 679 90 694 120.5 c 128,-1,9
 709 151 709 151 709 200 c 0,10,11
 709 259 709 259 673 298 c 128,-1,12
 637 337 637 337 565 337 c 0,13,14
 507 337 507 337 461 324.5 c 128,-1,15
 415 312 415 312 363 282 c 1,16,-1
 363 369 l 1,17,18
 411 395 411 395 463 409.5 c 128,-1,19
 515 424 515 424 576 424 c 0,20,21
 663 424 663 424 719.5 396 c 128,-1,22
 776 368 776 368 803.5 318 c 128,-1,23
 831 268 831 268 831 201 c 0,0,1
193 0 m 1,24,-1
 193 87 l 1,25,-1
 213 87 l 2,26,27
 247 87 247 87 271 94 c 128,-1,28
 295 101 295 101 295 123 c 2,29,-1
 295 622 l 1,30,-1
 251 622 l 2,31,32
 209 622 209 622 188 616 c 128,-1,33
 167 610 167 610 159 597.5 c 128,-1,34
 151 585 151 585 149 565 c 2,35,-1
 138 463 l 1,36,-1
 53 463 l 1,37,-1
 53 710 l 1,38,-1
 692 710 l 1,39,-1
 692 488 l 1,40,-1
 607 488 l 1,41,-1
 596 565 l 2,42,43
 594 585 594 585 586 597.5 c 128,-1,44
 578 610 578 610 557 616 c 128,-1,45
 536 622 536 622 495 622 c 2,46,-1
 411 622 l 1,47,-1
 411 97 l 2,48,49
 411 94 411 94 421.5 91.5 c 128,-1,50
 432 89 432 89 448.5 88 c 128,-1,51
 465 87 465 87 483 87 c 2,52,-1
 494 87 l 1,53,-1
 494 0 l 1,54,-1
 193 0 l 1,24,-1
EndSplineSet
EndChar

StartChar: Eukrcyr
Encoding: 1028 1028 245
Width: 792
GlyphClass: 2
Flags: W
AnchorPoint: "Anchor-1" 412 0 basechar 0
AnchorPoint: "Anchor-0" 412 741 basechar 0
LayerCount: 2
Fore
SplineSet
148 406 m 1,0,1
 178 407 178 407 208 408.5 c 128,-1,2
 238 410 238 410 268.5 411 c 128,-1,3
 299 412 299 412 329.5 413.5 c 128,-1,4
 360 415 360 415 390 416.5 c 128,-1,5
 420 418 420 418 450 419.5 c 128,-1,6
 480 421 480 421 510 422 c 1,7,-1
 510 308 l 1,8,9
 480 309 480 309 450 310.5 c 128,-1,10
 420 312 420 312 390 313.5 c 128,-1,11
 360 315 360 315 329.5 316.5 c 128,-1,12
 299 318 299 318 268.5 319 c 128,-1,13
 238 320 238 320 208 321.5 c 128,-1,14
 178 323 178 323 148 324 c 1,15,-1
 148 406 l 1,0,1
405 645 m 0,16,17
 347 645 347 645 305.5 628.5 c 128,-1,18
 264 612 264 612 237 577 c 128,-1,19
 210 542 210 542 196.5 487 c 128,-1,20
 183 432 183 432 183 355 c 256,21,22
 183 278 183 278 197 222.5 c 128,-1,23
 211 167 211 167 239.5 131.5 c 128,-1,24
 268 96 268 96 311.5 79.5 c 128,-1,25
 355 63 355 63 416 63 c 0,26,27
 488 63 488 63 534.5 88.5 c 128,-1,28
 581 114 581 114 609 156.5 c 128,-1,29
 637 199 637 199 654 247 c 1,30,-1
 735 216 l 1,31,32
 712 140 712 140 668 86.5 c 128,-1,33
 624 33 624 33 559.5 4 c 128,-1,34
 495 -25 495 -25 409 -25 c 0,35,36
 330 -25 330 -25 266 -1 c 128,-1,37
 202 23 202 23 155.5 71 c 128,-1,38
 109 119 109 119 84.5 190 c 128,-1,39
 60 261 60 261 60 355 c 0,40,41
 60 451 60 451 85 522 c 128,-1,42
 110 593 110 593 155.5 640 c 128,-1,43
 201 687 201 687 263.5 711 c 128,-1,44
 326 735 326 735 401 735 c 0,45,46
 470 735 470 735 522 708 c 128,-1,47
 574 681 574 681 605.5 628 c 128,-1,48
 637 575 637 575 644 496 c 1,49,-1
 622 547 l 1,50,-1
 637 720 l 1,51,-1
 720 720 l 1,52,-1
 720 458 l 1,53,-1
 627 458 l 1,54,55
 612 513 612 513 583 555 c 128,-1,56
 554 597 554 597 510 621 c 128,-1,57
 466 645 466 645 405 645 c 0,16,17
EndSplineSet
Substitution2: "'ss01' Style Set 1 lookup 61 subtable" Ieukran.alt1
EndChar

StartChar: Yukrcyr
Encoding: 1031 1031 248
Width: 425
GlyphClass: 2
Flags: W
AnchorPoint: "Anchor-1" 213 0 basechar 0
AnchorPoint: "Anchor-0" 213 924 basechar 0
LayerCount: 2
Fore
SplineSet
183 859 m 256,0,1
 183 820 183 820 162 802 c 128,-1,2
 141 784 141 784 106 784 c 256,3,4
 71 784 71 784 50.5 802 c 128,-1,5
 30 820 30 820 30 859 c 256,6,7
 30 898 30 898 50.5 916 c 128,-1,8
 71 934 71 934 106 934 c 256,9,10
 141 934 141 934 162 916 c 128,-1,11
 183 898 183 898 183 859 c 256,0,1
395 859 m 256,12,13
 395 820 395 820 374 802 c 128,-1,14
 353 784 353 784 319 784 c 0,15,16
 284 784 284 784 263 802 c 128,-1,17
 242 820 242 820 242 859 c 256,18,19
 242 898 242 898 263 916 c 128,-1,20
 284 934 284 934 318 934 c 0,21,22
 353 934 353 934 374 916 c 128,-1,23
 395 898 395 898 395 859 c 256,12,13
155 123 m 2,24,-1
 155 587 l 2,25,26
 155 609 155 609 132 616 c 128,-1,27
 109 623 109 623 78 623 c 2,28,-1
 58 623 l 1,29,-1
 58 710 l 1,30,-1
 368 710 l 1,31,-1
 368 623 l 1,32,-1
 348 623 l 2,33,34
 316 623 316 623 293.5 616 c 128,-1,35
 271 609 271 609 271 587 c 2,36,-1
 271 123 l 2,37,38
 271 101 271 101 293.5 94 c 128,-1,39
 316 87 316 87 348 87 c 2,40,-1
 368 87 l 1,41,-1
 368 0 l 1,42,-1
 58 0 l 1,43,-1
 58 87 l 1,44,-1
 78 87 l 2,45,46
 109 87 109 87 132 94 c 128,-1,47
 155 101 155 101 155 123 c 2,24,-1
EndSplineSet
EndChar

StartChar: Ljecyr
Encoding: 1033 1033 250
Width: 1084
GlyphClass: 2
Flags: W
AnchorPoint: "Anchor-0" 434 741 basechar 0
LayerCount: 2
Fore
SplineSet
267 710 m 1,0,-1
 579 710 l 1,1,-1
 579 623 l 1,2,-1
 267 623 l 1,3,-1
 267 710 l 1,0,-1
184 279 m 2,4,-1
 209 587 l 2,5,6
 211 609 211 609 189.5 616 c 128,-1,7
 168 623 168 623 139 623 c 2,8,-1
 128 623 l 1,9,-1
 128 710 l 1,10,-1
 317 710 l 1,11,-1
 282 274 l 2,12,13
 275 173 275 173 251.5 109 c 128,-1,14
 228 45 228 45 187 15 c 128,-1,15
 146 -15 146 -15 85 -15 c 0,16,17
 60 -15 60 -15 43 -10 c 128,-1,18
 26 -5 26 -5 15 0 c 1,19,-1
 15 112 l 1,20,21
 22 109 22 109 39 103 c 128,-1,22
 56 97 56 97 81 97 c 0,23,24
 111 97 111 97 131.5 115.5 c 128,-1,25
 152 134 152 134 165.5 173.5 c 128,-1,26
 179 213 179 213 184 279 c 2,4,-1
781 0 m 2,27,-1
 437 0 l 1,28,-1
 437 87 l 1,29,-1
 445 87 l 2,30,31
 463 87 463 87 481 88 c 128,-1,32
 499 89 499 89 511 91.5 c 128,-1,33
 523 94 523 94 523 97 c 2,34,-1
 523 710 l 1,35,-1
 735 710 l 1,36,-1
 735 627 l 1,37,-1
 706 627 l 2,38,39
 679 627 679 627 659 620 c 128,-1,40
 639 613 639 613 639 591 c 2,41,-1
 639 87 l 1,42,-1
 777 87 l 2,43,44
 824 87 824 87 852.5 100.5 c 128,-1,45
 881 114 881 114 893.5 143 c 128,-1,46
 906 172 906 172 906 216 c 0,47,48
 906 263 906 263 893.5 293.5 c 128,-1,49
 881 324 881 324 852.5 338.5 c 128,-1,50
 824 353 824 353 776 353 c 2,51,-1
 590 353 l 1,52,-1
 590 440 l 1,53,-1
 782 440 l 2,54,55
 859 440 859 440 914 417 c 128,-1,56
 969 394 969 394 998.5 344.5 c 128,-1,57
 1028 295 1028 295 1028 216 c 0,58,59
 1028 146 1028 146 997 98 c 128,-1,60
 966 50 966 50 910.5 25 c 128,-1,61
 855 0 855 0 781 0 c 2,27,-1
EndSplineSet
EndChar

StartChar: Njecyr
Encoding: 1034 1034 251
Width: 1130
GlyphClass: 2
Flags: W
AnchorPoint: "Anchor-0" 418 741 basechar 0
LayerCount: 2
Fore
SplineSet
226 432 m 1,0,-1
 600 432 l 1,1,-1
 600 345 l 1,2,-1
 226 345 l 1,3,-1
 226 432 l 1,0,-1
58 0 m 1,4,-1
 58 87 l 1,5,-1
 69 87 l 2,6,7
 97 87 97 87 119 94 c 128,-1,8
 141 101 141 101 141 123 c 2,9,-1
 141 587 l 2,10,11
 141 609 141 609 119 616 c 128,-1,12
 97 623 97 623 69 623 c 2,13,-1
 58 623 l 1,14,-1
 58 710 l 1,15,-1
 349 710 l 1,16,-1
 349 623 l 1,17,-1
 340 623 l 2,18,19
 322 623 322 623 303 622 c 128,-1,20
 284 621 284 621 270.5 619 c 128,-1,21
 257 617 257 617 257 613 c 2,22,-1
 257 97 l 2,23,24
 257 94 257 94 270.5 91.5 c 128,-1,25
 284 89 284 89 303 88 c 128,-1,26
 322 87 322 87 340 87 c 2,27,-1
 349 87 l 1,28,-1
 349 0 l 1,29,-1
 58 0 l 1,4,-1
481 0 m 1,30,-1
 481 87 l 1,31,-1
 490 87 l 2,32,33
 507 87 507 87 525 88 c 128,-1,34
 543 89 543 89 555.5 91.5 c 128,-1,35
 568 94 568 94 568 97 c 2,36,-1
 568 613 l 2,37,38
 568 617 568 617 555.5 619 c 128,-1,39
 543 621 543 621 525 622 c 128,-1,40
 507 623 507 623 490 623 c 2,41,-1
 481 623 l 1,42,-1
 481 710 l 1,43,-1
 790 710 l 1,44,-1
 790 623 l 1,45,-1
 761 623 l 2,46,47
 742 623 742 623 724 620 c 128,-1,48
 706 617 706 617 695 609.5 c 128,-1,49
 684 602 684 602 684 587 c 2,50,-1
 684 87 l 1,51,-1
 822 87 l 2,52,53
 866 87 866 87 895 100 c 128,-1,54
 924 113 924 113 938 141.5 c 128,-1,55
 952 170 952 170 952 212 c 0,56,57
 952 257 952 257 937.5 286.5 c 128,-1,58
 923 316 923 316 894.5 330.5 c 128,-1,59
 866 345 866 345 822 345 c 2,60,-1
 648 345 l 1,61,-1
 648 432 l 1,62,-1
 827 432 l 2,63,64
 905 432 905 432 959.5 408.5 c 128,-1,65
 1014 385 1014 385 1043.5 336 c 128,-1,66
 1073 287 1073 287 1073 212 c 0,67,68
 1073 144 1073 144 1042 96.5 c 128,-1,69
 1011 49 1011 49 956 24.5 c 128,-1,70
 901 0 901 0 827 0 c 2,71,-1
 481 0 l 1,30,-1
EndSplineSet
EndChar

StartChar: Tshecyr
Encoding: 1035 1035 252
Width: 942
GlyphClass: 2
Flags: W
AnchorPoint: "Anchor-0" 340 741 basechar 0
LayerCount: 2
Fore
SplineSet
581 424 m 0,0,1
 670 424 670 424 722.5 399.5 c 128,-1,2
 775 375 775 375 797.5 325.5 c 128,-1,3
 820 276 820 276 820 197 c 2,4,-1
 820 123 l 2,5,6
 820 101 820 101 841 94 c 128,-1,7
 862 87 862 87 893 87 c 2,8,-1
 904 87 l 1,9,-1
 904 0 l 1,10,-1
 704 0 l 1,11,-1
 704 191 l 2,12,13
 704 248 704 248 687.5 280 c 128,-1,14
 671 312 671 312 641.5 324.5 c 128,-1,15
 612 337 612 337 571 337 c 0,16,17
 519 337 519 337 466 325 c 128,-1,18
 413 313 413 313 363 282 c 1,19,-1
 363 369 l 1,20,21
 414 398 414 398 470 411 c 128,-1,22
 526 424 526 424 581 424 c 0,0,1
193 0 m 1,23,-1
 193 87 l 1,24,-1
 213 87 l 2,25,26
 247 87 247 87 271 94 c 128,-1,27
 295 101 295 101 295 123 c 2,28,-1
 295 622 l 1,29,-1
 251 622 l 2,30,31
 209 622 209 622 188 616 c 128,-1,32
 167 610 167 610 159 597.5 c 128,-1,33
 151 585 151 585 149 565 c 2,34,-1
 138 463 l 1,35,-1
 53 463 l 1,36,-1
 53 710 l 1,37,-1
 692 710 l 1,38,-1
 692 488 l 1,39,-1
 607 488 l 1,40,-1
 596 565 l 2,41,42
 594 585 594 585 586 597.5 c 128,-1,43
 578 610 578 610 557 616 c 128,-1,44
 536 622 536 622 495 622 c 2,45,-1
 411 622 l 1,46,-1
 411 97 l 2,47,48
 411 94 411 94 422.5 91.5 c 128,-1,49
 434 89 434 89 453 88 c 128,-1,50
 472 87 472 87 492 87 c 2,51,-1
 513 87 l 1,52,-1
 513 0 l 1,53,-1
 193 0 l 1,23,-1
EndSplineSet
EndChar

StartChar: Dzhecyr
Encoding: 1039 1039 253
Width: 861
GlyphClass: 2
Flags: W
AnchorPoint: "Anchor-0" 431 741 basechar 0
LayerCount: 2
Fore
SplineSet
58 710 m 1,0,-1
 349 710 l 1,1,-1
 349 623 l 1,2,-1
 340 623 l 2,3,4
 322 623 322 623 303 622 c 128,-1,5
 284 621 284 621 270.5 619 c 128,-1,6
 257 617 257 617 257 613 c 2,7,-1
 257 0 l 1,8,-1
 58 0 l 1,9,-1
 58 87 l 1,10,-1
 69 87 l 2,11,12
 97 87 97 87 119 94 c 128,-1,13
 141 101 141 101 141 123 c 2,14,-1
 141 587 l 2,15,16
 141 609 141 609 119 616 c 128,-1,17
 97 623 97 623 69 623 c 2,18,-1
 58 623 l 1,19,-1
 58 710 l 1,0,-1
513 710 m 1,20,-1
 804 710 l 1,21,-1
 804 623 l 1,22,-1
 793 623 l 2,23,24
 764 623 764 623 742 616 c 128,-1,25
 720 609 720 609 720 587 c 2,26,-1
 720 123 l 2,27,28
 720 101 720 101 742 94 c 128,-1,29
 764 87 764 87 793 87 c 2,30,-1
 804 87 l 1,31,-1
 804 0 l 1,32,-1
 604 0 l 1,33,-1
 604 613 l 2,34,35
 604 617 604 617 590.5 619 c 128,-1,36
 577 621 577 621 558 622 c 128,-1,37
 539 623 539 623 521 623 c 2,38,-1
 513 623 l 1,39,-1
 513 710 l 1,20,-1
206 0 m 1,40,-1
 206 87 l 1,41,-1
 655 87 l 1,42,-1
 655 0 l 1,43,-1
 616 0 l 2,44,45
 569 0 569 0 541 -5.5 c 128,-1,46
 513 -11 513 -11 500 -23 c 128,-1,47
 487 -35 487 -35 485 -53 c 2,48,-1
 473 -189 l 1,49,-1
 389 -189 l 1,50,-1
 376 -53 l 2,51,52
 375 -35 375 -35 361.5 -23 c 128,-1,53
 348 -11 348 -11 320 -5.5 c 128,-1,54
 292 0 292 0 245 0 c 2,55,-1
 206 0 l 1,40,-1
EndSplineSet
EndChar

StartChar: Becyr
Encoding: 1041 1041 257
Width: 714
GlyphClass: 2
Flags: W
AnchorPoint: "Anchor-0" 364 741 basechar 0
LayerCount: 2
Fore
SplineSet
58 710 m 1,0,-1
 607 710 l 1,1,-1
 607 504 l 1,2,-1
 523 504 l 1,3,-1
 512 578 l 2,4,5
 510 596 510 596 497 605.5 c 128,-1,6
 484 615 484 615 457.5 619 c 128,-1,7
 431 623 431 623 388 623 c 2,8,-1
 258 623 l 1,9,-1
 258 87 l 1,10,-1
 399 87 l 2,11,12
 447 87 447 87 475.5 100 c 128,-1,13
 504 113 504 113 516.5 140.5 c 128,-1,14
 529 168 529 168 529 211 c 0,15,16
 529 255 529 255 516.5 284.5 c 128,-1,17
 504 314 504 314 475.5 328 c 128,-1,18
 447 342 447 342 399 342 c 2,19,-1
 204 342 l 1,20,-1
 204 429 l 1,21,-1
 405 429 l 2,22,23
 482 429 482 429 537 407 c 128,-1,24
 592 385 592 385 622 337 c 128,-1,25
 652 289 652 289 652 211 c 0,26,27
 652 142 652 142 621 95 c 128,-1,28
 590 48 590 48 534 24 c 128,-1,29
 478 0 478 0 404 0 c 2,30,-1
 58 0 l 1,31,-1
 58 86 l 1,32,-1
 69 86 l 2,33,34
 97 86 97 86 119 93 c 128,-1,35
 141 100 141 100 141 122 c 2,36,-1
 141 589 l 2,37,38
 141 609 141 609 119 616.5 c 128,-1,39
 97 624 97 624 69 624 c 2,40,-1
 58 624 l 1,41,-1
 58 710 l 1,0,-1
EndSplineSet
EndChar

StartChar: Gecyr
Encoding: 1043 1043 259
Width: 672
GlyphClass: 2
Flags: W
AnchorPoint: "Anchor-0" 343 741 basechar 0
LayerCount: 2
Fore
SplineSet
257 623 m 1,0,-1
 257 123 l 2,1,2
 257 109 257 109 267.5 101 c 128,-1,3
 278 93 278 93 297 90 c 128,-1,4
 316 87 316 87 339 87 c 2,5,-1
 369 87 l 1,6,-1
 369 0 l 1,7,-1
 58 0 l 1,8,-1
 58 87 l 1,9,-1
 69 87 l 2,10,11
 97 87 97 87 119 94 c 128,-1,12
 141 101 141 101 141 123 c 2,13,-1
 141 587 l 2,14,15
 141 609 141 609 119 616 c 128,-1,16
 97 623 97 623 69 623 c 2,17,-1
 58 623 l 1,18,-1
 58 710 l 1,19,-1
 619 710 l 1,20,-1
 619 463 l 1,21,-1
 534 463 l 1,22,-1
 523 565 l 2,23,24
 521 587 521 587 511 599.5 c 128,-1,25
 501 612 501 612 477 617.5 c 128,-1,26
 453 623 453 623 410 623 c 2,27,-1
 257 623 l 1,0,-1
EndSplineSet
EndChar

StartChar: Decyr
Encoding: 1044 1044 261
Width: 840
GlyphClass: 2
Flags: W
AnchorPoint: "Anchor-0" 454 741 basechar 0
LayerCount: 2
Fore
SplineSet
251 710 m 1,0,-1
 639 710 l 1,1,-1
 639 623 l 1,2,-1
 251 623 l 1,3,-1
 251 710 l 1,0,-1
697 0 m 1,4,-1
 581 0 l 1,5,-1
 581 710 l 1,6,-1
 781 710 l 1,7,-1
 781 623 l 1,8,-1
 770 623 l 2,9,10
 739 623 739 623 718 616 c 128,-1,11
 697 609 697 609 697 587 c 2,12,-1
 697 0 l 1,4,-1
695 -52 m 2,13,14
 694 -35 694 -35 681 -23.5 c 128,-1,15
 668 -12 668 -12 640 -6 c 128,-1,16
 612 0 612 0 566 0 c 2,17,-1
 260 0 l 2,18,19
 214 0 214 0 186.5 -6 c 128,-1,20
 159 -12 159 -12 146 -23 c 128,-1,21
 133 -34 133 -34 131 -50 c 2,22,-1
 118 -189 l 1,23,-1
 33 -189 l 1,24,-1
 33 87 l 1,25,-1
 793 87 l 1,26,-1
 793 -189 l 1,27,-1
 708 -189 l 1,28,-1
 695 -52 l 2,13,14
190 34 m 1,29,-1
 77 34 l 1,30,31
 99 62 99 62 116 92 c 128,-1,32
 133 122 133 122 145.5 161 c 128,-1,33
 158 200 158 200 167 252.5 c 128,-1,34
 176 305 176 305 181 377 c 2,35,-1
 199 587 l 2,36,37
 201 609 201 609 180 616 c 128,-1,38
 159 623 159 623 129 623 c 2,39,-1
 118 623 l 1,40,-1
 118 710 l 1,41,-1
 307 710 l 1,42,-1
 281 376 l 2,43,44
 273 283 273 283 261 219 c 128,-1,45
 249 155 249 155 231.5 111 c 128,-1,46
 214 67 214 67 190 34 c 1,29,-1
EndSplineSet
Substitution2: "'locl' Localized Forms in Cyrillic lookup 12 subtable" De.bgr
EndChar

StartChar: Zhecyr
Encoding: 1046 1046 266
Width: 1155
GlyphClass: 2
Flags: W
AnchorPoint: "Anchor-1" 567 0 basechar 0
AnchorPoint: "Anchor-0" 567 741 basechar 0
LayerCount: 2
Fore
SplineSet
821 0 m 1,0,-1
 821 87 l 1,1,-1
 830 87 l 2,2,3
 850 87 850 87 868 88 c 128,-1,4
 886 89 886 89 897 91.5 c 128,-1,5
 908 94 908 94 908 97 c 2,6,-1
 681 344 l 1,7,-1
 681 373 l 1,8,-1
 921 612 l 2,9,10
 921 616 921 616 910 618 c 128,-1,11
 899 620 899 620 882.5 621.5 c 128,-1,12
 866 623 866 623 847 623 c 2,13,-1
 837 623 l 1,14,-1
 837 710 l 1,15,-1
 1100 710 l 1,16,-1
 1100 623 l 1,17,-1
 1071 623 l 2,18,19
 1062 623 1062 623 1052 620 c 128,-1,20
 1042 617 1042 617 1031 610.5 c 128,-1,21
 1020 604 1020 604 1009 593 c 2,22,-1
 770 357 l 1,23,-1
 770 406 l 1,24,-1
 1048 106 l 2,25,26
 1056 98 1056 98 1065 93.5 c 128,-1,27
 1074 89 1074 89 1085.5 88 c 128,-1,28
 1097 87 1097 87 1109 87 c 2,29,-1
 1126 87 l 1,30,-1
 1126 0 l 1,31,-1
 821 0 l 1,0,-1
329 0 m 1,32,-1
 29 0 l 1,33,-1
 29 87 l 1,34,-1
 47 87 l 2,35,36
 59 87 59 87 70 88 c 128,-1,37
 81 89 81 89 91 93.5 c 128,-1,38
 101 98 101 98 108 106 c 2,39,-1
 386 406 l 1,40,-1
 377 357 l 1,41,-1
 139 593 l 2,42,43
 128 604 128 604 117 610.5 c 128,-1,44
 106 617 106 617 96 620 c 128,-1,45
 86 623 86 623 76 623 c 2,46,-1
 47 623 l 1,47,-1
 47 710 l 1,48,-1
 313 710 l 1,49,-1
 313 623 l 1,50,-1
 303 623 l 2,51,52
 285 623 285 623 268 621 c 128,-1,53
 251 619 251 619 240 617.5 c 128,-1,54
 229 616 229 616 229 612 c 2,55,-1
 469 373 l 1,56,-1
 469 344 l 1,57,-1
 242 97 l 2,58,59
 242 94 242 94 253.5 91.5 c 128,-1,60
 265 89 265 89 283 88 c 128,-1,61
 301 87 301 87 319 87 c 2,62,-1
 329 87 l 1,63,-1
 329 0 l 1,32,-1
430 0 m 1,64,-1
 430 87 l 1,65,-1
 439 87 l 2,66,67
 452 87 452 87 465.5 87.5 c 128,-1,68
 479 88 479 88 490.5 89.5 c 128,-1,69
 502 91 502 91 509.5 92.5 c 128,-1,70
 517 94 517 94 517 97 c 2,71,-1
 517 613 l 2,72,73
 517 616 517 616 510 617.5 c 128,-1,74
 503 619 503 619 491 620.5 c 128,-1,75
 479 622 479 622 465.5 622.5 c 128,-1,76
 452 623 452 623 439 623 c 2,77,-1
 430 623 l 1,78,-1
 430 710 l 1,79,-1
 720 710 l 1,80,-1
 720 623 l 1,81,-1
 712 623 l 2,82,83
 699 623 699 623 685 622.5 c 128,-1,84
 671 622 671 622 659.5 620.5 c 128,-1,85
 648 619 648 619 640.5 617.5 c 128,-1,86
 633 616 633 616 633 613 c 2,87,-1
 633 97 l 2,88,89
 633 94 633 94 640 92.5 c 128,-1,90
 647 91 647 91 659 89.5 c 128,-1,91
 671 88 671 88 685 87.5 c 128,-1,92
 699 87 699 87 712 87 c 2,93,-1
 720 87 l 1,94,-1
 720 0 l 1,95,-1
 430 0 l 1,64,-1
EndSplineSet
EndChar

StartChar: Zecyr
Encoding: 1047 1047 269
Width: 733
GlyphClass: 2
Flags: W
AnchorPoint: "Anchor-1" 396 0 basechar 0
AnchorPoint: "Anchor-0" 396 741 basechar 0
LayerCount: 2
Fore
SplineSet
413 -25 m 0,0,1
 337 -25 337 -25 284.5 -0.5 c 128,-1,2
 232 24 232 24 202 74.5 c 128,-1,3
 172 125 172 125 164 203 c 1,4,-1
 187 162 l 1,5,-1
 172 -10 l 1,6,-1
 89 -10 l 1,7,-1
 89 242 l 1,8,-1
 181 242 l 1,9,10
 198 190 198 190 227 150 c 128,-1,11
 256 110 256 110 300.5 87.5 c 128,-1,12
 345 65 345 65 407 65 c 0,13,14
 454 65 454 65 484.5 79 c 128,-1,15
 515 93 515 93 529.5 121 c 128,-1,16
 544 149 544 149 544 190 c 0,17,18
 544 225 544 225 530 253.5 c 128,-1,19
 516 282 516 282 483.5 298 c 128,-1,20
 451 314 451 314 392 311 c 0,21,22
 377 310 377 310 362 309.5 c 128,-1,23
 347 309 347 309 331 308.5 c 128,-1,24
 315 308 315 308 301 307 c 1,25,-1
 301 421 l 1,26,27
 316 420 316 420 331.5 419.5 c 128,-1,28
 347 419 347 419 362 418.5 c 128,-1,29
 377 418 377 418 393 417 c 0,30,31
 441 414 441 414 470 430 c 128,-1,32
 499 446 499 446 511.5 474.5 c 128,-1,33
 524 503 524 503 524 539 c 0,34,35
 524 570 524 570 512.5 594.5 c 128,-1,36
 501 619 501 619 476 633 c 128,-1,37
 451 647 451 647 409 647 c 0,38,39
 352 647 352 647 309 626.5 c 128,-1,40
 266 606 266 606 236.5 566.5 c 128,-1,41
 207 527 207 527 191 468 c 1,42,-1
 98 468 l 1,43,-1
 98 720 l 1,44,-1
 182 720 l 1,45,-1
 196 548 l 1,46,-1
 175 506 l 1,47,48
 180 564 180 564 199 607.5 c 128,-1,49
 218 651 218 651 249 679 c 128,-1,50
 280 707 280 707 321.5 721 c 128,-1,51
 363 735 363 735 413 735 c 0,52,53
 491 735 491 735 542.5 710 c 128,-1,54
 594 685 594 685 619.5 642.5 c 128,-1,55
 645 600 645 600 645 546 c 0,56,57
 645 496 645 496 619 456 c 128,-1,58
 593 416 593 416 549 393 c 128,-1,59
 505 370 505 370 452 370 c 1,60,-1
 461 389 l 1,61,-1
 461 342 l 1,62,-1
 452 365 l 1,63,64
 515 365 515 365 563 342 c 128,-1,65
 611 319 611 319 638 278 c 128,-1,66
 665 237 665 237 665 183 c 0,67,68
 665 136 665 136 648 97.5 c 128,-1,69
 631 59 631 59 598 31.5 c 128,-1,70
 565 4 565 4 518.5 -10.5 c 128,-1,71
 472 -25 472 -25 413 -25 c 0,0,1
EndSplineSet
EndChar

StartChar: Icyr
Encoding: 1048 1048 270
Width: 890
GlyphClass: 2
Flags: W
AnchorPoint: "Anchor-0" 446 741 basechar 0
LayerCount: 2
Fore
SplineSet
205 202 m 1,0,-1
 633 582 l 1,1,-1
 685 519 l 1,2,-1
 257 139 l 1,3,-1
 205 202 l 1,0,-1
58 0 m 1,4,-1
 58 87 l 1,5,-1
 69 87 l 2,6,7
 97 87 97 87 119 94 c 128,-1,8
 141 101 141 101 141 123 c 2,9,-1
 141 587 l 2,10,11
 141 609 141 609 119 616 c 128,-1,12
 97 623 97 623 69 623 c 2,13,-1
 58 623 l 1,14,-1
 58 710 l 1,15,-1
 349 710 l 1,16,-1
 349 623 l 1,17,-1
 340 623 l 2,18,19
 322 623 322 623 303 622 c 128,-1,20
 284 621 284 621 270.5 619 c 128,-1,21
 257 617 257 617 257 613 c 2,22,-1
 257 97 l 2,23,24
 257 94 257 94 270.5 91.5 c 128,-1,25
 284 89 284 89 303 88 c 128,-1,26
 322 87 322 87 340 87 c 2,27,-1
 349 87 l 1,28,-1
 349 0 l 1,29,-1
 58 0 l 1,4,-1
542 0 m 1,30,-1
 542 87 l 1,31,-1
 550 87 l 2,32,33
 568 87 568 87 587 88 c 128,-1,34
 606 89 606 89 619.5 91.5 c 128,-1,35
 633 94 633 94 633 97 c 2,36,-1
 633 613 l 2,37,38
 633 617 633 617 619.5 619 c 128,-1,39
 606 621 606 621 587 622 c 128,-1,40
 568 623 568 623 550 623 c 2,41,-1
 542 623 l 1,42,-1
 542 710 l 1,43,-1
 833 710 l 1,44,-1
 833 623 l 1,45,-1
 822 623 l 2,46,47
 793 623 793 623 771 616 c 128,-1,48
 749 609 749 609 749 587 c 2,49,-1
 749 123 l 2,50,51
 749 101 749 101 771 94 c 128,-1,52
 793 87 793 87 822 87 c 2,53,-1
 833 87 l 1,54,-1
 833 0 l 1,55,-1
 542 0 l 1,30,-1
EndSplineSet
EndChar

StartChar: Elcyr
Encoding: 1051 1051 276
Width: 822
GlyphClass: 2
Flags: W
AnchorPoint: "Anchor-0" 452 741 basechar 0
LayerCount: 2
Fore
SplineSet
269 710 m 1,0,-1
 620 710 l 1,1,-1
 620 623 l 1,2,-1
 269 623 l 1,3,-1
 269 710 l 1,0,-1
473 0 m 1,4,-1
 473 87 l 1,5,-1
 482 87 l 2,6,7
 500 87 500 87 519 88 c 128,-1,8
 538 89 538 89 551.5 91.5 c 128,-1,9
 565 94 565 94 565 97 c 2,10,-1
 565 710 l 1,11,-1
 764 710 l 1,12,-1
 764 623 l 1,13,-1
 753 623 l 2,14,15
 725 623 725 623 703 616 c 128,-1,16
 681 609 681 609 681 587 c 2,17,-1
 681 123 l 2,18,19
 681 101 681 101 703 94 c 128,-1,20
 725 87 725 87 753 87 c 2,21,-1
 764 87 l 1,22,-1
 764 0 l 1,23,-1
 473 0 l 1,4,-1
184 279 m 2,24,-1
 209 587 l 2,25,26
 211 609 211 609 189.5 616 c 128,-1,27
 168 623 168 623 139 623 c 2,28,-1
 128 623 l 1,29,-1
 128 710 l 1,30,-1
 317 710 l 1,31,-1
 282 274 l 2,32,33
 275 173 275 173 251.5 109 c 128,-1,34
 228 45 228 45 187 15 c 128,-1,35
 146 -15 146 -15 85 -15 c 0,36,37
 60 -15 60 -15 43 -10 c 128,-1,38
 26 -5 26 -5 15 0 c 1,39,-1
 15 112 l 1,40,41
 22 109 22 109 39 103 c 128,-1,42
 56 97 56 97 81 97 c 0,43,44
 111 97 111 97 131.5 115.5 c 128,-1,45
 152 134 152 134 165.5 173.5 c 128,-1,46
 179 213 179 213 184 279 c 2,24,-1
EndSplineSet
Substitution2: "'locl' Localized Forms in Cyrillic lookup 12 subtable" El.bgr
EndChar

StartChar: Pecyr
Encoding: 1055 1055 281
Width: 861
GlyphClass: 2
Flags: W
AnchorPoint: "Anchor-0" 431 741 basechar 0
LayerCount: 2
Fore
SplineSet
198 710 m 1,0,-1
 660 710 l 1,1,-1
 660 623 l 1,2,-1
 198 623 l 1,3,-1
 198 710 l 1,0,-1
58 0 m 1,4,-1
 58 87 l 1,5,-1
 69 87 l 2,6,7
 97 87 97 87 119 94 c 128,-1,8
 141 101 141 101 141 123 c 2,9,-1
 141 587 l 2,10,11
 141 609 141 609 119 616 c 128,-1,12
 97 623 97 623 69 623 c 2,13,-1
 58 623 l 1,14,-1
 58 710 l 1,15,-1
 257 710 l 1,16,-1
 257 97 l 2,17,18
 257 94 257 94 270.5 91.5 c 128,-1,19
 284 89 284 89 303 88 c 128,-1,20
 322 87 322 87 340 87 c 2,21,-1
 349 87 l 1,22,-1
 349 0 l 1,23,-1
 58 0 l 1,4,-1
513 0 m 1,24,-1
 513 87 l 1,25,-1
 521 87 l 2,26,27
 539 87 539 87 558 88 c 128,-1,28
 577 89 577 89 590.5 91.5 c 128,-1,29
 604 94 604 94 604 97 c 2,30,-1
 604 710 l 1,31,-1
 804 710 l 1,32,-1
 804 623 l 1,33,-1
 793 623 l 2,34,35
 764 623 764 623 742 616 c 128,-1,36
 720 609 720 609 720 587 c 2,37,-1
 720 123 l 2,38,39
 720 101 720 101 742 94 c 128,-1,40
 764 87 764 87 793 87 c 2,41,-1
 804 87 l 1,42,-1
 804 0 l 1,43,-1
 513 0 l 1,24,-1
EndSplineSet
EndChar

StartChar: Ucyr
Encoding: 1059 1059 285
Width: 725
GlyphClass: 2
Flags: W
AnchorPoint: "Anchor-1" 239 0 basechar 0
AnchorPoint: "Anchor-0" 369 741 basechar 0
LayerCount: 2
Fore
SplineSet
429 199 m 2,0,1
 398 136 398 136 372.5 94 c 128,-1,2
 347 52 347 52 323 28.5 c 128,-1,3
 299 5 299 5 273 -5 c 128,-1,4
 247 -15 247 -15 214 -15 c 0,5,6
 187 -15 187 -15 169 -10 c 128,-1,7
 151 -5 151 -5 140 0 c 1,8,-1
 140 108 l 1,9,10
 147 104 147 104 166.5 98 c 128,-1,11
 186 92 186 92 211 92 c 0,12,13
 240 92 240 92 263.5 103 c 128,-1,14
 287 114 287 114 309 143.5 c 128,-1,15
 331 173 331 173 356 228 c 2,16,-1
 531 601 l 2,17,18
 531 607 531 607 522 612 c 128,-1,19
 513 617 513 617 500 620 c 128,-1,20
 487 623 487 623 475 623 c 2,21,-1
 464 623 l 1,22,-1
 464 710 l 1,23,-1
 695 710 l 1,24,-1
 695 623 l 1,25,-1
 683 623 l 2,26,27
 667 623 667 623 654.5 617 c 128,-1,28
 642 611 642 611 631.5 600.5 c 128,-1,29
 621 590 621 590 613 574 c 2,30,-1
 429 199 l 2,0,1
397 231 m 1,31,-1
 331 139 l 1,32,-1
 109 586 l 2,33,34
 101 601 101 601 92 609 c 128,-1,35
 83 617 83 617 70.5 620 c 128,-1,36
 58 623 58 623 42 623 c 2,37,-1
 29 623 l 1,38,-1
 29 710 l 1,39,-1
 292 710 l 1,40,-1
 292 623 l 1,41,-1
 276 623 l 2,42,43
 262 623 262 623 247 621.5 c 128,-1,44
 232 620 232 620 222 618 c 128,-1,45
 212 616 212 616 212 612 c 2,46,-1
 397 231 l 1,31,-1
EndSplineSet
EndChar

StartChar: Efcyr
Encoding: 1060 1060 290
Width: 935
GlyphClass: 2
Flags: W
AnchorPoint: "Anchor-1" 468 0 basechar 0
AnchorPoint: "Anchor-0" 468 741 basechar 0
LayerCount: 2
Fore
SplineSet
414 97 m 2,0,-1
 414 612 l 2,1,2
 414 635 414 635 391 642 c 128,-1,3
 368 649 368 649 333 649 c 2,4,-1
 313 649 l 1,5,-1
 313 735 l 1,6,-1
 623 735 l 1,7,-1
 623 649 l 1,8,-1
 603 649 l 2,9,10
 567 649 567 649 544 642 c 128,-1,11
 521 635 521 635 521 613 c 2,12,-1
 521 98 l 2,13,14
 521 75 521 75 544 68 c 128,-1,15
 567 61 567 61 603 61 c 2,16,-1
 623 61 l 1,17,-1
 623 -25 l 1,18,-1
 313 -25 l 1,19,-1
 313 61 l 1,20,-1
 333 61 l 2,21,22
 368 61 368 61 391 68 c 128,-1,23
 414 75 414 75 414 97 c 2,0,-1
428 601 m 1,24,-1
 428 511 l 1,25,26
 334 511 334 511 277.5 494.5 c 128,-1,27
 221 478 221 478 196 444.5 c 128,-1,28
 171 411 171 411 171 360 c 0,29,30
 171 308 171 308 196 274.5 c 128,-1,31
 221 241 221 241 277.5 224.5 c 128,-1,32
 334 208 334 208 428 208 c 1,33,-1
 428 118 l 1,34,35
 300 118 300 118 215.5 146.5 c 128,-1,36
 131 175 131 175 89.5 229.5 c 128,-1,37
 48 284 48 284 48 360 c 256,38,39
 48 436 48 436 89.5 490 c 128,-1,40
 131 544 131 544 215.5 572.5 c 128,-1,41
 300 601 300 601 428 601 c 1,24,-1
507 118 m 1,42,-1
 507 208 l 1,43,44
 602 208 602 208 658 224.5 c 128,-1,45
 714 241 714 241 739 274.5 c 128,-1,46
 764 308 764 308 764 359 c 0,47,48
 764 411 764 411 739 444.5 c 128,-1,49
 714 478 714 478 658 494.5 c 128,-1,50
 602 511 602 511 507 511 c 1,51,-1
 507 601 l 1,52,53
 635 601 635 601 720 572.5 c 128,-1,54
 805 544 805 544 846 490 c 128,-1,55
 887 436 887 436 887 359 c 0,56,57
 887 284 887 284 846 229.5 c 128,-1,58
 805 175 805 175 720 146.5 c 128,-1,59
 635 118 635 118 507 118 c 1,42,-1
EndSplineSet
EndChar

StartChar: Tsecyr
Encoding: 1062 1062 292
Width: 863
GlyphClass: 2
Flags: W
AnchorPoint: "Anchor-0" 432 741 basechar 0
LayerCount: 2
Fore
SplineSet
213 0 m 1,0,-1
 213 87 l 1,1,-1
 652 87 l 1,2,-1
 652 0 l 1,3,-1
 213 0 l 1,0,-1
58 710 m 1,4,-1
 349 710 l 1,5,-1
 349 623 l 1,6,-1
 340 623 l 2,7,8
 322 623 322 623 303 622 c 128,-1,9
 284 621 284 621 270.5 619 c 128,-1,10
 257 617 257 617 257 613 c 2,11,-1
 257 0 l 1,12,-1
 58 0 l 1,13,-1
 58 87 l 1,14,-1
 69 87 l 2,15,16
 97 87 97 87 119 94 c 128,-1,17
 141 101 141 101 141 123 c 2,18,-1
 141 587 l 2,19,20
 141 609 141 609 119 616 c 128,-1,21
 97 623 97 623 69 623 c 2,22,-1
 58 623 l 1,23,-1
 58 710 l 1,4,-1
513 710 m 1,24,-1
 804 710 l 1,25,-1
 804 623 l 1,26,-1
 793 623 l 2,27,28
 764 623 764 623 742 616 c 128,-1,29
 720 609 720 609 720 587 c 2,30,-1
 720 0 l 1,31,-1
 604 0 l 1,32,-1
 604 613 l 2,33,34
 604 617 604 617 591 619 c 128,-1,35
 578 621 578 621 558.5 622 c 128,-1,36
 539 623 539 623 521 623 c 2,37,-1
 513 623 l 1,38,-1
 513 710 l 1,24,-1
555 0 m 1,39,-1
 555 87 l 1,40,-1
 816 87 l 1,41,-1
 816 -189 l 1,42,-1
 731 -189 l 1,43,-1
 718 -53 l 2,44,45
 717 -35 717 -35 704 -23 c 128,-1,46
 691 -11 691 -11 662.5 -5.5 c 128,-1,47
 634 0 634 0 586 0 c 2,48,-1
 555 0 l 1,39,-1
EndSplineSet
EndChar

StartChar: Checyr
Encoding: 1063 1063 293
Width: 815
GlyphClass: 2
Flags: W
AnchorPoint: "Anchor-0" 399 741 basechar 0
LayerCount: 2
Fore
SplineSet
467 0 m 1,0,-1
 467 87 l 1,1,-1
 475 87 l 2,2,3
 493 87 493 87 512 88 c 128,-1,4
 531 89 531 89 544.5 91.5 c 128,-1,5
 558 94 558 94 558 97 c 2,6,-1
 558 613 l 2,7,8
 558 617 558 617 544.5 619 c 128,-1,9
 531 621 531 621 512 622 c 128,-1,10
 493 623 493 623 475 623 c 2,11,-1
 467 623 l 1,12,-1
 467 710 l 1,13,-1
 758 710 l 1,14,-1
 758 623 l 1,15,-1
 747 623 l 2,16,17
 718 623 718 623 696 616 c 128,-1,18
 674 609 674 609 674 587 c 2,19,-1
 674 123 l 2,20,21
 674 101 674 101 696 94 c 128,-1,22
 718 87 718 87 747 87 c 2,23,-1
 758 87 l 1,24,-1
 758 0 l 1,25,-1
 467 0 l 1,0,-1
370 268 m 0,26,27
 280 268 280 268 225.5 290 c 128,-1,28
 171 312 171 312 146.5 362.5 c 128,-1,29
 122 413 122 413 122 496 c 2,30,-1
 122 587 l 2,31,32
 122 609 122 609 100 616 c 128,-1,33
 78 623 78 623 50 623 c 2,34,-1
 39 623 l 1,35,-1
 39 710 l 1,36,-1
 330 710 l 1,37,-1
 330 623 l 1,38,-1
 321 623 l 2,39,40
 303 623 303 623 284 622 c 128,-1,41
 265 621 265 621 251.5 619 c 128,-1,42
 238 617 238 617 238 613 c 2,43,-1
 238 502 l 2,44,45
 238 447 238 447 251.5 415 c 128,-1,46
 265 383 265 383 296 369 c 128,-1,47
 327 355 327 355 380 355 c 0,48,49
 435 355 435 355 493 366.5 c 128,-1,50
 551 378 551 378 602 409 c 1,51,-1
 602 321 l 1,52,53
 550 293 550 293 489 280.5 c 128,-1,54
 428 268 428 268 370 268 c 0,26,27
EndSplineSet
EndChar

StartChar: Shacyr
Encoding: 1064 1064 294
Width: 1194
GlyphClass: 2
Flags: W
AnchorPoint: "Anchor-0" 586 741 basechar 0
LayerCount: 2
Fore
SplineSet
970 0 m 1,0,-1
 220 0 l 1,1,-1
 220 87 l 1,2,-1
 970 87 l 1,3,-1
 970 0 l 1,0,-1
1137 710 m 1,4,-1
 1137 623 l 1,5,-1
 1126 623 l 2,6,7
 1098 623 1098 623 1075.5 616 c 128,-1,8
 1053 609 1053 609 1053 587 c 2,9,-1
 1053 123 l 2,10,11
 1053 101 1053 101 1075.5 94 c 128,-1,12
 1098 87 1098 87 1126 87 c 2,13,-1
 1137 87 l 1,14,-1
 1137 0 l 1,15,-1
 937 0 l 1,16,-1
 937 613 l 2,17,18
 937 617 937 617 924 619 c 128,-1,19
 911 621 911 621 892 622 c 128,-1,20
 873 623 873 623 855 623 c 2,21,-1
 846 623 l 1,22,-1
 846 710 l 1,23,-1
 1137 710 l 1,4,-1
349 710 m 1,24,-1
 349 623 l 1,25,-1
 340 623 l 2,26,27
 322 623 322 623 303 622 c 128,-1,28
 284 621 284 621 270.5 619 c 128,-1,29
 257 617 257 617 257 613 c 2,30,-1
 257 0 l 1,31,-1
 58 0 l 1,32,-1
 58 87 l 1,33,-1
 69 87 l 2,34,35
 97 87 97 87 119 94 c 128,-1,36
 141 101 141 101 141 123 c 2,37,-1
 141 587 l 2,38,39
 141 609 141 609 119 616 c 128,-1,40
 97 623 97 623 69 623 c 2,41,-1
 58 623 l 1,42,-1
 58 710 l 1,43,-1
 349 710 l 1,24,-1
452 710 m 1,44,-1
 742 710 l 1,45,-1
 742 623 l 1,46,-1
 734 623 l 2,47,48
 716 623 716 623 698 622 c 128,-1,49
 680 621 680 621 667.5 619 c 128,-1,50
 655 617 655 617 655 613 c 2,51,-1
 655 0 l 1,52,-1
 539 0 l 1,53,-1
 539 613 l 2,54,55
 539 617 539 617 526.5 619 c 128,-1,56
 514 621 514 621 496 622 c 128,-1,57
 478 623 478 623 461 623 c 2,58,-1
 452 623 l 1,59,-1
 452 710 l 1,44,-1
EndSplineSet
EndChar

StartChar: Shchacyr
Encoding: 1065 1065 295
Width: 1196
GlyphClass: 2
Flags: W
AnchorPoint: "Anchor-0" 587 741 basechar 0
LayerCount: 2
Fore
SplineSet
989 0 m 1,0,-1
 220 0 l 1,1,-1
 220 87 l 1,2,-1
 989 87 l 1,3,-1
 989 0 l 1,0,-1
349 710 m 1,4,-1
 349 623 l 1,5,-1
 340 623 l 2,6,7
 322 623 322 623 303 622 c 128,-1,8
 284 621 284 621 270.5 619 c 128,-1,9
 257 617 257 617 257 613 c 2,10,-1
 257 0 l 1,11,-1
 58 0 l 1,12,-1
 58 87 l 1,13,-1
 69 87 l 2,14,15
 97 87 97 87 119 94 c 128,-1,16
 141 101 141 101 141 123 c 2,17,-1
 141 587 l 2,18,19
 141 609 141 609 119 616 c 128,-1,20
 97 623 97 623 69 623 c 2,21,-1
 58 623 l 1,22,-1
 58 710 l 1,23,-1
 349 710 l 1,4,-1
846 710 m 1,24,-1
 1137 710 l 1,25,-1
 1137 623 l 1,26,-1
 1126 623 l 2,27,28
 1098 623 1098 623 1075.5 616 c 128,-1,29
 1053 609 1053 609 1053 587 c 2,30,-1
 1053 0 l 1,31,-1
 937 0 l 1,32,-1
 937 613 l 2,33,34
 937 617 937 617 924 619 c 128,-1,35
 911 621 911 621 892 622 c 128,-1,36
 873 623 873 623 855 623 c 2,37,-1
 846 623 l 1,38,-1
 846 710 l 1,24,-1
922 0 m 2,39,-1
 888 0 l 1,40,-1
 888 87 l 1,41,-1
 1149 87 l 1,42,-1
 1149 -189 l 1,43,-1
 1064 -189 l 1,44,-1
 1051 -52 l 2,45,46
 1050 -35 1050 -35 1037 -23.5 c 128,-1,47
 1024 -12 1024 -12 996 -6 c 128,-1,48
 968 0 968 0 922 0 c 2,39,-1
452 710 m 1,49,-1
 742 710 l 1,50,-1
 742 623 l 1,51,-1
 734 623 l 2,52,53
 716 623 716 623 698 622 c 128,-1,54
 680 621 680 621 667.5 619 c 128,-1,55
 655 617 655 617 655 613 c 2,56,-1
 655 0 l 1,57,-1
 539 0 l 1,58,-1
 539 613 l 2,59,60
 539 617 539 617 526.5 619 c 128,-1,61
 514 621 514 621 496 622 c 128,-1,62
 478 623 478 623 461 623 c 2,63,-1
 452 623 l 1,64,-1
 452 710 l 1,49,-1
EndSplineSet
EndChar

StartChar: Hardcyr
Encoding: 1066 1066 296
Width: 839
GlyphClass: 2
Flags: W
AnchorPoint: "Anchor-0" 293 741 basechar 0
LayerCount: 2
Fore
SplineSet
536 0 m 2,0,-1
 189 0 l 1,1,-1
 189 86 l 1,2,-1
 200 86 l 2,3,4
 228 86 228 86 250 93 c 128,-1,5
 272 100 272 100 272 122 c 2,6,-1
 272 622 l 1,7,-1
 251 622 l 2,8,9
 209 622 209 622 188 616 c 128,-1,10
 167 610 167 610 159 597.5 c 128,-1,11
 151 585 151 585 149 565 c 2,12,-1
 138 463 l 1,13,-1
 53 463 l 1,14,-1
 53 710 l 1,15,-1
 500 710 l 1,16,-1
 500 623 l 1,17,-1
 479 623 l 2,18,19
 456 623 456 623 435.5 622 c 128,-1,20
 415 621 415 621 402.5 619 c 128,-1,21
 390 617 390 617 390 613 c 2,22,-1
 390 87 l 1,23,-1
 531 87 l 2,24,25
 578 87 578 87 606.5 100.5 c 128,-1,26
 635 114 635 114 647.5 143 c 128,-1,27
 660 172 660 172 660 217 c 0,28,29
 660 263 660 263 647.5 293.5 c 128,-1,30
 635 324 635 324 606.5 338.5 c 128,-1,31
 578 353 578 353 531 353 c 2,32,-1
 335 353 l 1,33,-1
 335 440 l 1,34,-1
 536 440 l 2,35,36
 614 440 614 440 668.5 417 c 128,-1,37
 723 394 723 394 752.5 344.5 c 128,-1,38
 782 295 782 295 782 216 c 0,39,40
 782 146 782 146 751 98 c 128,-1,41
 720 50 720 50 664.5 25 c 128,-1,42
 609 0 609 0 536 0 c 2,0,-1
EndSplineSet
EndChar

StartChar: Ylongcyr
Encoding: 1067 1067 297
Width: 1037
GlyphClass: 2
Flags: W
AnchorPoint: "Anchor-1" 508 0 basechar 0
AnchorPoint: "Anchor-0" 508 741 basechar 0
LayerCount: 2
Fore
SplineSet
780 97 m 2,0,-1
 780 613 l 2,1,2
 780 617 780 617 766.5 619 c 128,-1,3
 753 621 753 621 734 622 c 128,-1,4
 715 623 715 623 697 623 c 2,5,-1
 688 623 l 1,6,-1
 688 710 l 1,7,-1
 979 710 l 1,8,-1
 979 623 l 1,9,-1
 968 623 l 2,10,11
 940 623 940 623 918 616 c 128,-1,12
 896 609 896 609 896 587 c 2,13,-1
 896 123 l 2,14,15
 896 101 896 101 918 94 c 128,-1,16
 940 87 940 87 968 87 c 2,17,-1
 979 87 l 1,18,-1
 979 0 l 1,19,-1
 688 0 l 1,20,-1
 688 87 l 1,21,-1
 697 87 l 2,22,23
 715 87 715 87 734 88 c 128,-1,24
 753 89 753 89 766.5 91.5 c 128,-1,25
 780 94 780 94 780 97 c 2,0,-1
404 0 m 2,26,-1
 58 0 l 1,27,-1
 58 86 l 1,28,-1
 69 86 l 2,29,30
 97 86 97 86 119 93 c 128,-1,31
 141 100 141 100 141 122 c 2,32,-1
 141 588 l 2,33,34
 141 610 141 610 119 617 c 128,-1,35
 97 624 97 624 69 624 c 2,36,-1
 58 624 l 1,37,-1
 58 710 l 1,38,-1
 368 710 l 1,39,-1
 368 623 l 1,40,-1
 348 623 l 2,41,42
 325 623 325 623 304.5 622 c 128,-1,43
 284 621 284 621 271 619 c 128,-1,44
 258 617 258 617 258 613 c 2,45,-1
 258 87 l 1,46,-1
 400 87 l 2,47,48
 447 87 447 87 476 100.5 c 128,-1,49
 505 114 505 114 517.5 143 c 128,-1,50
 530 172 530 172 530 216 c 0,51,52
 530 263 530 263 517.5 293.5 c 128,-1,53
 505 324 505 324 476 338.5 c 128,-1,54
 447 353 447 353 399 353 c 2,55,-1
 232 353 l 1,56,-1
 232 440 l 1,57,-1
 405 440 l 2,58,59
 482 440 482 440 537 417 c 128,-1,60
 592 394 592 394 621.5 344.5 c 128,-1,61
 651 295 651 295 651 216 c 0,62,63
 651 146 651 146 620 98 c 128,-1,64
 589 50 589 50 533.5 25 c 128,-1,65
 478 0 478 0 404 0 c 2,26,-1
EndSplineSet
EndChar

StartChar: Softcyr
Encoding: 1068 1068 298
Width: 707
GlyphClass: 2
Flags: W
AnchorPoint: "Anchor-0" 205 741 basechar 0
LayerCount: 2
Fore
SplineSet
404 0 m 2,0,-1
 58 0 l 1,1,-1
 58 86 l 1,2,-1
 69 86 l 2,3,4
 97 86 97 86 119 93 c 128,-1,5
 141 100 141 100 141 122 c 2,6,-1
 141 588 l 2,7,8
 141 610 141 610 119 617 c 128,-1,9
 97 624 97 624 69 624 c 2,10,-1
 58 624 l 1,11,-1
 58 710 l 1,12,-1
 368 710 l 1,13,-1
 368 623 l 1,14,-1
 348 623 l 2,15,16
 325 623 325 623 304.5 622 c 128,-1,17
 284 621 284 621 271 619 c 128,-1,18
 258 617 258 617 258 613 c 2,19,-1
 258 87 l 1,20,-1
 400 87 l 2,21,22
 447 87 447 87 476 100.5 c 128,-1,23
 505 114 505 114 517.5 143 c 128,-1,24
 530 172 530 172 530 216 c 0,25,26
 530 263 530 263 517.5 293.5 c 128,-1,27
 505 324 505 324 476 338.5 c 128,-1,28
 447 353 447 353 399 353 c 2,29,-1
 232 353 l 1,30,-1
 232 440 l 1,31,-1
 405 440 l 2,32,33
 482 440 482 440 537 417 c 128,-1,34
 592 394 592 394 621.5 344.5 c 128,-1,35
 651 295 651 295 651 216 c 0,36,37
 651 146 651 146 620 98 c 128,-1,38
 589 50 589 50 533.5 25 c 128,-1,39
 478 0 478 0 404 0 c 2,0,-1
EndSplineSet
EndChar

StartChar: Ereversedcyr
Encoding: 1069 1069 299
Width: 809
GlyphClass: 2
Flags: W
AnchorPoint: "Anchor-1" 388 0 basechar 0
AnchorPoint: "Anchor-0" 388 741 basechar 0
LayerCount: 2
Fore
SplineSet
661 405 m 1,0,-1
 661 323 l 1,1,2
 616 321 616 321 571 319 c 128,-1,3
 526 317 526 317 481 315 c 128,-1,4
 436 313 436 313 391 311 c 128,-1,5
 346 309 346 309 301 307 c 1,6,-1
 301 421 l 1,7,8
 346 419 346 419 391 417 c 128,-1,9
 436 415 436 415 481 413 c 128,-1,10
 526 411 526 411 571 409 c 128,-1,11
 616 407 616 407 661 405 c 1,0,-1
414 -25 m 0,12,13
 341 -25 341 -25 287.5 0.5 c 128,-1,14
 234 26 234 26 203 76.5 c 128,-1,15
 172 127 172 127 164 204 c 1,16,-1
 187 162 l 1,17,-1
 172 -10 l 1,18,-1
 89 -10 l 1,19,-1
 89 242 l 1,20,-1
 181 242 l 1,21,22
 197 190 197 190 226.5 150 c 128,-1,23
 256 110 256 110 302 87.5 c 128,-1,24
 348 65 348 65 410 65 c 0,25,26
 466 65 466 65 506.5 81 c 128,-1,27
 547 97 547 97 573.5 132 c 128,-1,28
 600 167 600 167 612.5 222 c 128,-1,29
 625 277 625 277 625 355 c 256,30,31
 625 433 625 433 609.5 488 c 128,-1,32
 594 543 594 543 566 578 c 128,-1,33
 538 613 538 613 499 629 c 128,-1,34
 460 645 460 645 414 645 c 0,35,36
 349 645 349 645 302 623 c 128,-1,37
 255 601 255 601 225.5 561.5 c 128,-1,38
 196 522 196 522 181 468 c 1,39,-1
 89 468 l 1,40,-1
 89 720 l 1,41,-1
 172 720 l 1,42,-1
 187 548 l 1,43,-1
 165 506 l 1,44,45
 173 582 173 582 204.5 632.5 c 128,-1,46
 236 683 236 683 290 709 c 128,-1,47
 344 735 344 735 414 735 c 0,48,49
 486 735 486 735 547 711.5 c 128,-1,50
 608 688 608 688 653 641.5 c 128,-1,51
 698 595 698 595 723.5 523.5 c 128,-1,52
 749 452 749 452 749 355 c 0,53,54
 749 264 749 264 723.5 193 c 128,-1,55
 698 122 698 122 653 73.5 c 128,-1,56
 608 25 608 25 546.5 0 c 128,-1,57
 485 -25 485 -25 414 -25 c 0,12,13
EndSplineSet
Substitution2: "'ss01' Style Set 1 lookup 61 subtable" Ecyr.alt1
EndChar

StartChar: Yucyr
Encoding: 1070 1070 300
Width: 1149
GlyphClass: 2
Flags: W
AnchorPoint: "Anchor-1" 597 0 basechar 0
AnchorPoint: "Anchor-0" 597 741 basechar 0
LayerCount: 2
Fore
SplineSet
217 410 m 1,0,-1
 449 410 l 1,1,-1
 449 322 l 1,2,-1
 217 322 l 1,3,-1
 217 410 l 1,0,-1
58 0 m 1,4,-1
 58 87 l 1,5,-1
 69 87 l 2,6,7
 97 87 97 87 119 94 c 128,-1,8
 141 101 141 101 141 123 c 2,9,-1
 141 587 l 2,10,11
 141 609 141 609 119 616 c 128,-1,12
 97 623 97 623 69 623 c 2,13,-1
 58 623 l 1,14,-1
 58 710 l 1,15,-1
 349 710 l 1,16,-1
 349 623 l 1,17,-1
 340 623 l 2,18,19
 327 623 327 623 312 622.5 c 128,-1,20
 297 622 297 622 284.5 620.5 c 128,-1,21
 272 619 272 619 264.5 617.5 c 128,-1,22
 257 616 257 616 257 613 c 2,23,-1
 257 97 l 2,24,25
 257 94 257 94 264.5 92.5 c 128,-1,26
 272 91 272 91 284.5 89.5 c 128,-1,27
 297 88 297 88 312 87.5 c 128,-1,28
 327 87 327 87 340 87 c 2,29,-1
 349 87 l 1,30,-1
 349 0 l 1,31,-1
 58 0 l 1,4,-1
743 -25 m 0,32,33
 665 -25 665 -25 601.5 0 c 128,-1,34
 538 25 538 25 491.5 73 c 128,-1,35
 445 121 445 121 420.5 192 c 128,-1,36
 396 263 396 263 396 356 c 0,37,38
 396 448 396 448 420.5 518.5 c 128,-1,39
 445 589 445 589 491.5 637.5 c 128,-1,40
 538 686 538 686 601.5 710.5 c 128,-1,41
 665 735 665 735 743 735 c 0,42,43
 820 735 820 735 884 710.5 c 128,-1,44
 948 686 948 686 994 637.5 c 128,-1,45
 1040 589 1040 589 1064.5 518.5 c 128,-1,46
 1089 448 1089 448 1089 356 c 0,47,48
 1089 263 1089 263 1064.5 192 c 128,-1,49
 1040 121 1040 121 994 73 c 128,-1,50
 948 25 948 25 884 0 c 128,-1,51
 820 -25 820 -25 743 -25 c 0,32,33
743 65 m 0,52,53
 798 65 798 65 839.5 82 c 128,-1,54
 881 99 881 99 909 134.5 c 128,-1,55
 937 170 937 170 951.5 224.5 c 128,-1,56
 966 279 966 279 966 355 c 256,57,58
 966 431 966 431 951.5 485.5 c 128,-1,59
 937 540 937 540 909 575.5 c 128,-1,60
 881 611 881 611 839.5 628 c 128,-1,61
 798 645 798 645 743 645 c 0,62,63
 687 645 687 645 645 628 c 128,-1,64
 603 611 603 611 575.5 575.5 c 128,-1,65
 548 540 548 540 534 485.5 c 128,-1,66
 520 431 520 431 520 355 c 256,67,68
 520 279 520 279 534 224.5 c 128,-1,69
 548 170 548 170 576 134.5 c 128,-1,70
 604 99 604 99 645.5 82 c 128,-1,71
 687 65 687 65 743 65 c 0,52,53
EndSplineSet
EndChar

StartChar: Yacyr
Encoding: 1071 1071 301
Width: 775
GlyphClass: 2
Flags: W
AnchorPoint: "Anchor-1" 388 0 basechar 0
AnchorPoint: "Anchor-0" 427 741 basechar 0
LayerCount: 2
Fore
SplineSet
375 321 m 1,0,-1
 195 0 l 1,1,-1
 35 0 l 1,2,-1
 35 87 l 1,3,-1
 45 87 l 2,4,5
 68 87 68 87 87 91.5 c 128,-1,6
 106 96 106 96 122 109.5 c 128,-1,7
 138 123 138 123 153 148 c 2,8,-1
 283 371 l 1,9,-1
 375 321 l 1,0,-1
518 97 m 2,10,-1
 518 623 l 1,11,-1
 377 623 l 2,12,13
 331 623 331 623 299 609 c 128,-1,14
 267 595 267 595 251 568.5 c 128,-1,15
 235 542 235 542 235 503 c 0,16,17
 235 463 235 463 250.5 433.5 c 128,-1,18
 266 404 266 404 298.5 388 c 128,-1,19
 331 372 331 372 380 372 c 2,20,-1
 531 372 l 1,21,-1
 531 285 l 1,22,-1
 336 285 l 1,23,-1
 311 294 l 1,24,25
 254 302 254 302 211 329.5 c 128,-1,26
 168 357 168 357 144.5 401.5 c 128,-1,27
 121 446 121 446 121 504 c 0,28,29
 121 571 121 571 150.5 616.5 c 128,-1,30
 180 662 180 662 235.5 686 c 128,-1,31
 291 710 291 710 368 710 c 2,32,-1
 718 710 l 1,33,-1
 718 623 l 1,34,-1
 707 623 l 2,35,36
 679 623 679 623 656.5 616 c 128,-1,37
 634 609 634 609 634 587 c 2,38,-1
 634 123 l 2,39,40
 634 101 634 101 656.5 94 c 128,-1,41
 679 87 679 87 707 87 c 2,42,-1
 718 87 l 1,43,-1
 718 0 l 1,44,-1
 408 0 l 1,45,-1
 408 87 l 1,46,-1
 428 87 l 2,47,48
 445 87 445 87 461 87.5 c 128,-1,49
 477 88 477 88 490 89.5 c 128,-1,50
 503 91 503 91 510.5 92.5 c 128,-1,51
 518 94 518 94 518 97 c 2,10,-1
EndSplineSet
EndChar

StartChar: Geupcyr
Encoding: 1168 1168 302
Width: 667
GlyphClass: 2
Flags: W
AnchorPoint: "Anchor-0" 314 741 basechar 0
LayerCount: 2
Fore
SplineSet
257 623 m 1,0,-1
 257 123 l 2,1,2
 257 109 257 109 267.5 101 c 128,-1,3
 278 93 278 93 297 90 c 128,-1,4
 316 87 316 87 339 87 c 2,5,-1
 369 87 l 1,6,-1
 369 0 l 1,7,-1
 58 0 l 1,8,-1
 58 87 l 1,9,-1
 69 87 l 2,10,11
 97 87 97 87 119 94 c 128,-1,12
 141 101 141 101 141 123 c 2,13,-1
 141 587 l 2,14,15
 141 609 141 609 119 616 c 128,-1,16
 97 623 97 623 69 623 c 2,17,-1
 58 623 l 1,18,-1
 58 710 l 1,19,-1
 390 710 l 2,20,21
 436 710 436 710 464 715.5 c 128,-1,22
 492 721 492 721 505.5 733 c 128,-1,23
 519 745 519 745 521 764 c 2,24,-1
 534 899 l 1,25,-1
 619 899 l 1,26,-1
 619 623 l 1,27,-1
 257 623 l 1,0,-1
EndSplineSet
EndChar

StartChar: Gestrokecyr
Encoding: 1170 1170 303
Width: 672
GlyphClass: 2
Flags: W
AnchorPoint: "Anchor-0" 343 741 basechar 0
LayerCount: 2
Fore
SplineSet
58 404 m 1,0,-1
 432 404 l 1,1,-1
 432 317 l 1,2,-1
 58 317 l 1,3,-1
 58 404 l 1,0,-1
257 623 m 1,4,-1
 257 123 l 2,5,6
 257 109 257 109 267.5 101 c 128,-1,7
 278 93 278 93 297 90 c 128,-1,8
 316 87 316 87 339 87 c 2,9,-1
 369 87 l 1,10,-1
 369 0 l 1,11,-1
 58 0 l 1,12,-1
 58 87 l 1,13,-1
 69 87 l 2,14,15
 97 87 97 87 119 94 c 128,-1,16
 141 101 141 101 141 123 c 2,17,-1
 141 587 l 2,18,19
 141 609 141 609 119 616 c 128,-1,20
 97 623 97 623 69 623 c 2,21,-1
 58 623 l 1,22,-1
 58 710 l 1,23,-1
 619 710 l 1,24,-1
 619 479 l 1,25,-1
 534 479 l 1,26,-1
 523 570 l 2,27,28
 521 590 521 590 511 601.5 c 128,-1,29
 501 613 501 613 477 618 c 128,-1,30
 453 623 453 623 410 623 c 2,31,-1
 257 623 l 1,4,-1
EndSplineSet
EndChar

StartChar: Zhetailcyr
Encoding: 1174 1174 304
Width: 1156
GlyphClass: 2
Flags: W
AnchorPoint: "Anchor-0" 567 741 basechar 0
LayerCount: 2
Fore
SplineSet
821 0 m 1,0,-1
 821 87 l 1,1,-1
 830 87 l 2,2,3
 850 87 850 87 868 88 c 128,-1,4
 886 89 886 89 897 91.5 c 128,-1,5
 908 94 908 94 908 97 c 2,6,-1
 681 344 l 1,7,-1
 681 373 l 1,8,-1
 921 612 l 2,9,10
 921 616 921 616 910 618 c 128,-1,11
 899 620 899 620 882.5 621.5 c 128,-1,12
 866 623 866 623 847 623 c 2,13,-1
 837 623 l 1,14,-1
 837 710 l 1,15,-1
 1100 710 l 1,16,-1
 1100 623 l 1,17,-1
 1071 623 l 2,18,19
 1062 623 1062 623 1052 620 c 128,-1,20
 1042 617 1042 617 1031 610.5 c 128,-1,21
 1020 604 1020 604 1009 593 c 2,22,-1
 770 357 l 1,23,-1
 770 406 l 1,24,-1
 1065 87 l 1,25,-1
 1065 0 l 1,26,-1
 821 0 l 1,0,-1
329 0 m 1,27,-1
 29 0 l 1,28,-1
 29 87 l 1,29,-1
 47 87 l 2,30,31
 59 87 59 87 70 88 c 128,-1,32
 81 89 81 89 91 93.5 c 128,-1,33
 101 98 101 98 108 106 c 2,34,-1
 386 406 l 1,35,-1
 377 357 l 1,36,-1
 139 593 l 2,37,38
 128 604 128 604 117 610.5 c 128,-1,39
 106 617 106 617 96 620 c 128,-1,40
 86 623 86 623 76 623 c 2,41,-1
 47 623 l 1,42,-1
 47 710 l 1,43,-1
 313 710 l 1,44,-1
 313 623 l 1,45,-1
 303 623 l 2,46,47
 285 623 285 623 268 621 c 128,-1,48
 251 619 251 619 240 617.5 c 128,-1,49
 229 616 229 616 229 612 c 2,50,-1
 469 373 l 1,51,-1
 469 344 l 1,52,-1
 242 97 l 2,53,54
 242 94 242 94 253.5 91.5 c 128,-1,55
 265 89 265 89 283 88 c 128,-1,56
 301 87 301 87 319 87 c 2,57,-1
 329 87 l 1,58,-1
 329 0 l 1,27,-1
919 0 m 2,59,-1
 902 0 l 1,60,-1
 920 87 l 1,61,-1
 1146 87 l 1,62,-1
 1146 -189 l 1,63,-1
 1061 -189 l 1,64,-1
 1048 -52 l 2,65,66
 1047 -35 1047 -35 1034 -23.5 c 128,-1,67
 1021 -12 1021 -12 993 -6 c 128,-1,68
 965 0 965 0 919 0 c 2,59,-1
430 0 m 1,69,-1
 430 87 l 1,70,-1
 439 87 l 2,71,72
 452 87 452 87 465.5 87.5 c 128,-1,73
 479 88 479 88 490.5 89.5 c 128,-1,74
 502 91 502 91 509.5 92.5 c 128,-1,75
 517 94 517 94 517 97 c 2,76,-1
 517 613 l 2,77,78
 517 616 517 616 510 617.5 c 128,-1,79
 503 619 503 619 491 620.5 c 128,-1,80
 479 622 479 622 465.5 622.5 c 128,-1,81
 452 623 452 623 439 623 c 2,82,-1
 430 623 l 1,83,-1
 430 710 l 1,84,-1
 720 710 l 1,85,-1
 720 623 l 1,86,-1
 712 623 l 2,87,88
 699 623 699 623 685 622.5 c 128,-1,89
 671 622 671 622 659.5 620.5 c 128,-1,90
 648 619 648 619 640.5 617.5 c 128,-1,91
 633 616 633 616 633 613 c 2,92,-1
 633 97 l 2,93,94
 633 94 633 94 640 92.5 c 128,-1,95
 647 91 647 91 659 89.5 c 128,-1,96
 671 88 671 88 685 87.5 c 128,-1,97
 699 87 699 87 712 87 c 2,98,-1
 720 87 l 1,99,-1
 720 0 l 1,100,-1
 430 0 l 1,69,-1
EndSplineSet
EndChar

StartChar: Katailcyr
Encoding: 1178 1178 306
Width: 803
GlyphClass: 2
Flags: W
AnchorPoint: "Anchor-0" 409 741 basechar 0
LayerCount: 2
Fore
SplineSet
58 0 m 1,0,-1
 58 87 l 1,1,-1
 69 87 l 2,2,3
 97 87 97 87 119 94 c 128,-1,4
 141 101 141 101 141 123 c 2,5,-1
 141 587 l 2,6,7
 141 609 141 609 119 616 c 128,-1,8
 97 623 97 623 69 623 c 2,9,-1
 58 623 l 1,10,-1
 58 710 l 1,11,-1
 346 710 l 1,12,-1
 346 623 l 1,13,-1
 336 623 l 2,14,15
 324 623 324 623 310 622.5 c 128,-1,16
 296 622 296 622 284 620.5 c 128,-1,17
 272 619 272 619 264.5 617.5 c 128,-1,18
 257 616 257 616 257 613 c 2,19,-1
 257 97 l 2,20,21
 257 94 257 94 264.5 92.5 c 128,-1,22
 272 91 272 91 284 89.5 c 128,-1,23
 296 88 296 88 309.5 87.5 c 128,-1,24
 323 87 323 87 335 87 c 2,25,-1
 343 87 l 1,26,-1
 343 0 l 1,27,-1
 58 0 l 1,0,-1
464 0 m 1,28,-1
 464 87 l 1,29,-1
 474 87 l 2,30,31
 493 87 493 87 511 88 c 128,-1,32
 529 89 529 89 540 91.5 c 128,-1,33
 551 94 551 94 551 97 c 2,34,-1
 305 344 l 1,35,-1
 305 373 l 1,36,-1
 563 612 l 2,37,38
 563 616 563 616 552.5 618 c 128,-1,39
 542 620 542 620 525.5 621.5 c 128,-1,40
 509 623 509 623 490 623 c 2,41,-1
 480 623 l 1,42,-1
 480 710 l 1,43,-1
 745 710 l 1,44,-1
 745 623 l 1,45,-1
 721 623 l 2,46,47
 711 623 711 623 700.5 620 c 128,-1,48
 690 617 690 617 678.5 611 c 128,-1,49
 667 605 667 605 655 593 c 2,50,-1
 396 356 l 1,51,-1
 395 406 l 1,52,-1
 715 87 l 1,53,-1
 715 0 l 1,54,-1
 464 0 l 1,28,-1
565 0 m 2,55,-1
 549 0 l 1,56,-1
 567 87 l 1,57,-1
 792 87 l 1,58,-1
 792 -189 l 1,59,-1
 707 -189 l 1,60,-1
 694 -52 l 2,61,62
 693 -35 693 -35 680 -23.5 c 128,-1,63
 667 -12 667 -12 639.5 -6 c 128,-1,64
 612 0 612 0 565 0 c 2,55,-1
EndSplineSet
EndChar

StartChar: Kaverticalstrokecyr
Encoding: 1180 1180 307
Width: 881
GlyphClass: 2
Flags: W
AnchorPoint: "Anchor-0" 458 741 basechar 0
LayerCount: 2
Fore
SplineSet
329 171 m 1,0,-1
 329 544 l 1,1,-1
 417 544 l 1,2,-1
 417 171 l 1,3,-1
 329 171 l 1,0,-1
58 0 m 1,4,-1
 58 87 l 1,5,-1
 69 87 l 2,6,7
 97 87 97 87 119 94 c 128,-1,8
 141 101 141 101 141 123 c 2,9,-1
 141 587 l 2,10,11
 141 609 141 609 119 616 c 128,-1,12
 97 623 97 623 69 623 c 2,13,-1
 58 623 l 1,14,-1
 58 710 l 1,15,-1
 346 710 l 1,16,-1
 346 623 l 1,17,-1
 336 623 l 2,18,19
 324 623 324 623 310 622.5 c 128,-1,20
 296 622 296 622 284 620.5 c 128,-1,21
 272 619 272 619 264.5 617.5 c 128,-1,22
 257 616 257 616 257 613 c 2,23,-1
 257 97 l 2,24,25
 257 94 257 94 264.5 92.5 c 128,-1,26
 272 91 272 91 284 89.5 c 128,-1,27
 296 88 296 88 309.5 87.5 c 128,-1,28
 323 87 323 87 335 87 c 2,29,-1
 343 87 l 1,30,-1
 343 0 l 1,31,-1
 58 0 l 1,4,-1
554 0 m 1,32,-1
 554 87 l 1,33,-1
 563 87 l 2,34,35
 585 87 585 87 603 88 c 128,-1,36
 621 89 621 89 632 91.5 c 128,-1,37
 643 94 643 94 643 97 c 2,38,-1
 452 344 l 1,39,-1
 452 373 l 1,40,-1
 660 612 l 2,41,42
 661 616 661 616 650 618 c 128,-1,43
 639 620 639 620 620 621.5 c 128,-1,44
 601 623 601 623 580 623 c 2,45,-1
 570 623 l 1,46,-1
 570 710 l 1,47,-1
 830 710 l 1,48,-1
 830 623 l 1,49,-1
 801 623 l 2,50,51
 790 623 790 623 775 616.5 c 128,-1,52
 760 610 760 610 745 593 c 2,53,-1
 536 357 l 1,54,-1
 541 404 l 1,55,-1
 770 108 l 2,56,57
 777 99 777 99 787.5 94.5 c 128,-1,58
 798 90 798 90 810.5 88.5 c 128,-1,59
 823 87 823 87 834 87 c 2,60,-1
 851 87 l 1,61,-1
 851 0 l 1,62,-1
 554 0 l 1,32,-1
EndSplineSet
EndChar

StartChar: Kabashkcyr
Encoding: 1184 1184 308
Width: 952
GlyphClass: 2
Flags: W
AnchorPoint: "Anchor-0" 562 741 basechar 0
LayerCount: 2
Fore
SplineSet
614 0 m 1,0,-1
 614 87 l 1,1,-1
 624 87 l 2,2,3
 644 87 644 87 661.5 88 c 128,-1,4
 679 89 679 89 690.5 91.5 c 128,-1,5
 702 94 702 94 702 97 c 2,6,-1
 455 344 l 1,7,-1
 455 373 l 1,8,-1
 714 612 l 2,9,10
 714 616 714 616 703 618 c 128,-1,11
 692 620 692 620 675 621.5 c 128,-1,12
 658 623 658 623 640 623 c 2,13,-1
 630 623 l 1,14,-1
 630 710 l 1,15,-1
 896 710 l 1,16,-1
 896 623 l 1,17,-1
 871 623 l 2,18,19
 861 623 861 623 850.5 620 c 128,-1,20
 840 617 840 617 828.5 611 c 128,-1,21
 817 605 817 605 805 593 c 2,22,-1
 546 356 l 1,23,-1
 545 406 l 1,24,-1
 844 108 l 2,25,26
 853 100 853 100 863 95 c 128,-1,27
 873 90 873 90 883.5 88.5 c 128,-1,28
 894 87 894 87 905 87 c 2,29,-1
 923 87 l 1,30,-1
 923 0 l 1,31,-1
 614 0 l 1,0,-1
208 0 m 1,32,-1
 208 87 l 1,33,-1
 219 87 l 2,34,35
 247 87 247 87 269 94 c 128,-1,36
 291 101 291 101 291 123 c 2,37,-1
 291 622 l 1,38,-1
 251 622 l 2,39,40
 209 622 209 622 188 616 c 128,-1,41
 167 610 167 610 159 597.5 c 128,-1,42
 151 585 151 585 149 565 c 2,43,-1
 138 463 l 1,44,-1
 53 463 l 1,45,-1
 53 710 l 1,46,-1
 496 710 l 1,47,-1
 496 623 l 1,48,-1
 487 623 l 2,49,50
 471 623 471 623 452 622 c 128,-1,51
 433 621 433 621 420.5 619 c 128,-1,52
 408 617 408 617 408 613 c 2,53,-1
 408 97 l 2,54,55
 408 94 408 94 420.5 91.5 c 128,-1,56
 433 89 433 89 451.5 88 c 128,-1,57
 470 87 470 87 485 87 c 2,58,-1
 494 87 l 1,59,-1
 494 0 l 1,60,-1
 208 0 l 1,32,-1
EndSplineSet
EndChar

StartChar: Entailcyr
Encoding: 1186 1186 309
Width: 873
GlyphClass: 2
Flags: W
AnchorPoint: "Anchor-0" 437 741 basechar 0
LayerCount: 2
Fore
SplineSet
226 410 m 1,0,-1
 641 410 l 1,1,-1
 641 322 l 1,2,-1
 226 322 l 1,3,-1
 226 410 l 1,0,-1
58 0 m 1,4,-1
 58 87 l 1,5,-1
 69 87 l 2,6,7
 97 87 97 87 119 94 c 128,-1,8
 141 101 141 101 141 123 c 2,9,-1
 141 587 l 2,10,11
 141 609 141 609 119 616 c 128,-1,12
 97 623 97 623 69 623 c 2,13,-1
 58 623 l 1,14,-1
 58 710 l 1,15,-1
 349 710 l 1,16,-1
 349 623 l 1,17,-1
 340 623 l 2,18,19
 327 623 327 623 312 622.5 c 128,-1,20
 297 622 297 622 284.5 620.5 c 128,-1,21
 272 619 272 619 264.5 617.5 c 128,-1,22
 257 616 257 616 257 613 c 2,23,-1
 257 97 l 2,24,25
 257 94 257 94 264.5 92.5 c 128,-1,26
 272 91 272 91 284.5 89.5 c 128,-1,27
 297 88 297 88 312 87.5 c 128,-1,28
 327 87 327 87 340 87 c 2,29,-1
 349 87 l 1,30,-1
 349 0 l 1,31,-1
 58 0 l 1,4,-1
523 0 m 1,32,-1
 523 87 l 1,33,-1
 531 87 l 2,34,35
 545 87 545 87 559.5 87.5 c 128,-1,36
 574 88 574 88 586.5 89.5 c 128,-1,37
 599 91 599 91 606.5 92.5 c 128,-1,38
 614 94 614 94 614 97 c 2,39,-1
 614 613 l 2,40,41
 614 616 614 616 606.5 617.5 c 128,-1,42
 599 619 599 619 586.5 620.5 c 128,-1,43
 574 622 574 622 559.5 622.5 c 128,-1,44
 545 623 545 623 531 623 c 2,45,-1
 523 623 l 1,46,-1
 523 710 l 1,47,-1
 814 710 l 1,48,-1
 814 623 l 1,49,-1
 803 623 l 2,50,51
 774 623 774 623 752 616 c 128,-1,52
 730 609 730 609 730 587 c 2,53,-1
 730 0 l 1,54,-1
 523 0 l 1,32,-1
599 0 m 2,55,-1
 592 0 l 1,56,-1
 610 87 l 1,57,-1
 826 87 l 1,58,-1
 826 -189 l 1,59,-1
 741 -189 l 1,60,-1
 728 -52 l 2,61,62
 727 -35 727 -35 714 -23.5 c 128,-1,63
 701 -12 701 -12 673 -6 c 128,-1,64
 645 0 645 0 599 0 c 2,55,-1
EndSplineSet
EndChar

StartChar: Tetailcyr
Encoding: 1196 1196 311
Width: 744
GlyphClass: 2
Flags: W
AnchorPoint: "Anchor-0" 364 741 basechar 0
LayerCount: 2
Fore
SplineSet
314 123 m 2,0,-1
 314 622 l 1,1,-1
 251 622 l 2,2,3
 209 622 209 622 188 616 c 128,-1,4
 167 610 167 610 159 597.5 c 128,-1,5
 151 585 151 585 149 565 c 2,6,-1
 138 463 l 1,7,-1
 53 463 l 1,8,-1
 53 710 l 1,9,-1
 691 710 l 1,10,-1
 691 463 l 1,11,-1
 606 463 l 1,12,-1
 595 565 l 2,13,14
 593 585 593 585 585.5 597.5 c 128,-1,15
 578 610 578 610 556.5 616 c 128,-1,16
 535 622 535 622 493 622 c 2,17,-1
 430 622 l 1,18,-1
 430 0 l 1,19,-1
 212 0 l 1,20,-1
 212 87 l 1,21,-1
 232 87 l 2,22,23
 264 87 264 87 289 94 c 128,-1,24
 314 101 314 101 314 123 c 2,0,-1
313 0 m 2,25,-1
 301 0 l 1,26,-1
 328 87 l 1,27,-1
 540 87 l 1,28,-1
 540 -189 l 1,29,-1
 455 -189 l 1,30,-1
 442 -52 l 2,31,32
 441 -35 441 -35 427.5 -23.5 c 128,-1,33
 414 -12 414 -12 387 -6 c 128,-1,34
 360 0 360 0 313 0 c 2,25,-1
EndSplineSet
EndChar

StartChar: Ustraightstrokecyr
Encoding: 1200 1200 313
Width: 725
GlyphClass: 2
Flags: W
AnchorPoint: "Anchor-1" 362 0 basechar 0
AnchorPoint: "Anchor-0" 362 741 basechar 0
LayerCount: 2
Fore
SplineSet
170 278 m 1,0,-1
 562 278 l 1,1,-1
 562 190 l 1,2,-1
 170 190 l 1,3,-1
 170 278 l 1,0,-1
308 313 m 1,4,-1
 314 267 l 1,5,-1
 109 586 l 2,6,7
 99 601 99 601 89 609 c 128,-1,8
 79 617 79 617 67.5 620 c 128,-1,9
 56 623 56 623 42 623 c 2,10,-1
 29 623 l 1,11,-1
 29 710 l 1,12,-1
 292 710 l 1,13,-1
 292 623 l 1,14,-1
 276 623 l 2,15,16
 261 623 261 623 247 621.5 c 128,-1,17
 233 620 233 620 224 618 c 128,-1,18
 215 616 215 616 215 612 c 2,19,-1
 400 313 l 1,20,-1
 357 312 l 1,21,-1
 529 600 l 2,22,23
 529 607 529 607 519.5 612 c 128,-1,24
 510 617 510 617 497.5 620 c 128,-1,25
 485 623 485 623 476 623 c 2,26,-1
 464 623 l 1,27,-1
 464 710 l 1,28,-1
 695 710 l 1,29,-1
 695 623 l 1,30,-1
 683 623 l 2,31,32
 671 623 671 623 658.5 618.5 c 128,-1,33
 646 614 646 614 634.5 603.5 c 128,-1,34
 623 593 623 593 612 574 c 2,35,-1
 416 266 l 1,36,-1
 424 313 l 1,37,-1
 424 123 l 2,38,39
 424 101 424 101 447.5 94 c 128,-1,40
 471 87 471 87 504 87 c 2,41,-1
 525 87 l 1,42,-1
 525 0 l 1,43,-1
 207 0 l 1,44,-1
 207 87 l 1,45,-1
 228 87 l 2,46,47
 262 87 262 87 285 94 c 128,-1,48
 308 101 308 101 308 123 c 2,49,-1
 308 313 l 1,4,-1
EndSplineSet
EndChar

StartChar: Xatailcyr
Encoding: 1202 1202 314
Width: 773
GlyphClass: 2
Flags: W
AnchorPoint: "Anchor-0" 395 741 basechar 0
LayerCount: 2
Fore
SplineSet
42 623 m 1,0,-1
 42 710 l 1,1,-1
 333 710 l 1,2,-1
 333 623 l 1,3,-1
 316 623 l 2,4,5
 299 623 299 623 283.5 622 c 128,-1,6
 268 621 268 621 258.5 619 c 128,-1,7
 249 617 249 617 249 613 c 2,8,-1
 426 392 l 1,9,-1
 440 389 l 1,10,-1
 678 87 l 1,11,-1
 678 0 l 1,12,-1
 446 0 l 1,13,-1
 446 87 l 1,14,-1
 463 87 l 2,15,16
 480 87 480 87 495.5 88 c 128,-1,17
 511 89 511 89 520.5 91.5 c 128,-1,18
 530 94 530 94 530 97 c 2,19,-1
 340 337 l 1,20,-1
 326 341 l 1,21,-1
 130 588 l 2,22,23
 112 612 112 612 94.5 617.5 c 128,-1,24
 77 623 77 623 56 623 c 2,25,-1
 42 623 l 1,0,-1
30 0 m 1,26,-1
 30 87 l 1,27,-1
 49 87 l 2,28,29
 68 87 68 87 85 96.5 c 128,-1,30
 102 106 102 106 123 133 c 2,31,-1
 316 381 l 1,32,-1
 389 336 l 1,33,-1
 209 104 l 2,34,35
 209 100 209 100 219 96 c 128,-1,36
 229 92 229 92 244 89.5 c 128,-1,37
 259 87 259 87 271 87 c 2,38,-1
 289 87 l 1,39,-1
 289 0 l 1,40,-1
 30 0 l 1,26,-1
451 352 m 1,41,-1
 381 398 l 1,42,-1
 549 605 l 2,43,44
 549 611 549 611 538.5 615 c 128,-1,45
 528 619 528 619 513 621 c 128,-1,46
 498 623 498 623 485 623 c 2,47,-1
 471 623 l 1,48,-1
 471 710 l 1,49,-1
 726 710 l 1,50,-1
 726 623 l 1,51,-1
 712 623 l 2,52,53
 693 623 693 623 675.5 614 c 128,-1,54
 658 605 658 605 635 578 c 2,55,-1
 451 352 l 1,41,-1
536 0 m 2,56,-1
 528 0 l 1,57,-1
 546 87 l 1,58,-1
 763 87 l 1,59,-1
 763 -189 l 1,60,-1
 678 -189 l 1,61,-1
 665 -52 l 2,62,63
 664 -35 664 -35 651 -23.5 c 128,-1,64
 638 -12 638 -12 610 -6 c 128,-1,65
 582 0 582 0 536 0 c 2,56,-1
EndSplineSet
EndChar

StartChar: Chetailcyr
Encoding: 1206 1206 315
Width: 817
GlyphClass: 2
Flags: W
AnchorPoint: "Anchor-0" 400 741 basechar 0
LayerCount: 2
Fore
SplineSet
370 268 m 0,0,1
 280 268 280 268 225.5 290 c 128,-1,2
 171 312 171 312 146.5 362.5 c 128,-1,3
 122 413 122 413 122 496 c 2,4,-1
 122 587 l 2,5,6
 122 609 122 609 100 616 c 128,-1,7
 78 623 78 623 50 623 c 2,8,-1
 39 623 l 1,9,-1
 39 710 l 1,10,-1
 330 710 l 1,11,-1
 330 623 l 1,12,-1
 321 623 l 2,13,14
 303 623 303 623 284 622 c 128,-1,15
 265 621 265 621 251.5 619 c 128,-1,16
 238 617 238 617 238 613 c 2,17,-1
 238 502 l 2,18,19
 238 448 238 448 251.5 415.5 c 128,-1,20
 265 383 265 383 296 369 c 128,-1,21
 327 355 327 355 380 355 c 0,22,23
 435 355 435 355 492.5 366.5 c 128,-1,24
 550 378 550 378 602 411 c 1,25,-1
 602 323 l 1,26,27
 549 294 549 294 488.5 281 c 128,-1,28
 428 268 428 268 370 268 c 0,0,1
467 0 m 1,29,-1
 467 87 l 1,30,-1
 475 87 l 2,31,32
 493 87 493 87 512 88 c 128,-1,33
 531 89 531 89 544.5 91.5 c 128,-1,34
 558 94 558 94 558 97 c 2,35,-1
 558 613 l 2,36,37
 558 617 558 617 544.5 619 c 128,-1,38
 531 621 531 621 512 622 c 128,-1,39
 493 623 493 623 475 623 c 2,40,-1
 467 623 l 1,41,-1
 467 710 l 1,42,-1
 758 710 l 1,43,-1
 758 623 l 1,44,-1
 747 623 l 2,45,46
 719 623 719 623 696.5 616 c 128,-1,47
 674 609 674 609 674 587 c 2,48,-1
 674 0 l 1,49,-1
 467 0 l 1,29,-1
543 0 m 2,50,-1
 536 0 l 1,51,-1
 554 87 l 1,52,-1
 770 87 l 1,53,-1
 770 -189 l 1,54,-1
 685 -189 l 1,55,-1
 672 -52 l 2,56,57
 671 -35 671 -35 658 -23.5 c 128,-1,58
 645 -12 645 -12 617 -6 c 128,-1,59
 589 0 589 0 543 0 c 2,50,-1
EndSplineSet
EndChar

StartChar: Chevertcyr
Encoding: 1208 1208 316
Width: 839
GlyphClass: 2
Flags: W
AnchorPoint: "Anchor-0" 411 741 basechar 0
LayerCount: 2
Fore
SplineSet
490 0 m 1,0,-1
 490 87 l 1,1,-1
 499 87 l 2,2,3
 517 87 517 87 536 88 c 128,-1,4
 555 89 555 89 568.5 91.5 c 128,-1,5
 582 94 582 94 582 97 c 2,6,-1
 582 613 l 2,7,8
 582 617 582 617 568.5 619 c 128,-1,9
 555 621 555 621 536 622 c 128,-1,10
 517 623 517 623 499 623 c 2,11,-1
 490 623 l 1,12,-1
 490 710 l 1,13,-1
 782 710 l 1,14,-1
 782 623 l 1,15,-1
 771 623 l 2,16,17
 742 623 742 623 720 616 c 128,-1,18
 698 609 698 609 698 587 c 2,19,-1
 698 123 l 2,20,21
 698 101 698 101 720 94 c 128,-1,22
 742 87 742 87 771 87 c 2,23,-1
 782 87 l 1,24,-1
 782 0 l 1,25,-1
 490 0 l 1,0,-1
382 268 m 0,26,27
 288 268 288 268 231 290 c 128,-1,28
 174 312 174 312 148 362.5 c 128,-1,29
 122 413 122 413 122 496 c 2,30,-1
 122 587 l 2,31,32
 122 609 122 609 100 616 c 128,-1,33
 78 623 78 623 50 623 c 2,34,-1
 39 623 l 1,35,-1
 39 710 l 1,36,-1
 330 710 l 1,37,-1
 330 623 l 1,38,-1
 321 623 l 2,39,40
 303 623 303 623 284 622 c 128,-1,41
 265 621 265 621 251.5 619 c 128,-1,42
 238 617 238 617 238 613 c 2,43,-1
 238 502 l 2,44,45
 238 448 238 448 253 415.5 c 128,-1,46
 268 383 268 383 302 369 c 128,-1,47
 336 355 336 355 392 355 c 0,48,49
 450 355 450 355 511 366 c 128,-1,50
 572 377 572 377 626 411 c 1,51,-1
 626 323 l 1,52,53
 572 293 572 293 507.5 280.5 c 128,-1,54
 443 268 443 268 382 268 c 0,26,27
368 158 m 1,55,-1
 368 531 l 1,56,-1
 455 531 l 1,57,-1
 455 158 l 1,58,-1
 368 158 l 1,55,-1
EndSplineSet
EndChar

StartChar: Shhacyr
Encoding: 1210 1210 317
Width: 815
GlyphClass: 1
Flags: W
LayerCount: 2
Fore
SplineSet
349 710 m 1,0,-1
 349 623 l 1,1,-1
 340 623 l 2,2,3
 322 623 322 623 303 622 c 128,-1,4
 284 621 284 621 270.5 619 c 128,-1,5
 257 617 257 617 257 613 c 2,6,-1
 257 97 l 2,7,8
 257 94 257 94 270.5 91.5 c 128,-1,9
 284 89 284 89 303 88 c 128,-1,10
 322 87 322 87 340 87 c 2,11,-1
 349 87 l 1,12,-1
 349 0 l 1,13,-1
 58 0 l 1,14,-1
 58 87 l 1,15,-1
 69 87 l 2,16,17
 97 87 97 87 119 94 c 128,-1,18
 141 101 141 101 141 123 c 2,19,-1
 141 587 l 2,20,21
 141 609 141 609 119 616 c 128,-1,22
 97 623 97 623 69 623 c 2,23,-1
 58 623 l 1,24,-1
 58 710 l 1,25,-1
 349 710 l 1,0,-1
446 442 m 0,26,27
 535 442 535 442 589.5 420 c 128,-1,28
 644 398 644 398 668.5 348 c 128,-1,29
 693 298 693 298 693 214 c 2,30,-1
 693 123 l 2,31,32
 693 101 693 101 715 94 c 128,-1,33
 737 87 737 87 766 87 c 2,34,-1
 777 87 l 1,35,-1
 777 0 l 1,36,-1
 486 0 l 1,37,-1
 486 87 l 1,38,-1
 494 87 l 2,39,40
 512 87 512 87 531 88 c 128,-1,41
 550 89 550 89 563.5 91.5 c 128,-1,42
 577 94 577 94 577 97 c 2,43,-1
 577 208 l 2,44,45
 577 263 577 263 563.5 295 c 128,-1,46
 550 327 550 327 518.5 341 c 128,-1,47
 487 355 487 355 435 355 c 0,48,49
 381 355 381 355 323 343.5 c 128,-1,50
 265 332 265 332 214 301 c 1,51,-1
 214 389 l 1,52,53
 265 417 265 417 326 429.5 c 128,-1,54
 387 442 387 442 446 442 c 0,26,27
EndSplineSet
EndChar

StartChar: Obarcyr
Encoding: 1256 1256 320
Width: 833
GlyphClass: 2
Flags: W
AnchorPoint: "Anchor-1" 408 0 basechar 0
AnchorPoint: "Anchor-0" 408 741 basechar 0
LayerCount: 2
Fore
SplineSet
118 410 m 1,0,-1
 715 410 l 1,1,-1
 715 322 l 1,2,-1
 118 322 l 1,3,-1
 118 410 l 1,0,-1
416 -25 m 0,4,5
 337 -25 337 -25 271.5 0 c 128,-1,6
 206 25 206 25 158.5 73 c 128,-1,7
 111 121 111 121 85.5 192 c 128,-1,8
 60 263 60 263 60 355 c 0,9,10
 60 448 60 448 85.5 518.5 c 128,-1,11
 111 589 111 589 158.5 637.5 c 128,-1,12
 206 686 206 686 271.5 710.5 c 128,-1,13
 337 735 337 735 416 735 c 0,14,15
 497 735 497 735 562.5 710.5 c 128,-1,16
 628 686 628 686 675 637.5 c 128,-1,17
 722 589 722 589 747.5 518.5 c 128,-1,18
 773 448 773 448 773 355 c 0,19,20
 773 263 773 263 747.5 192 c 128,-1,21
 722 121 722 121 675 73 c 128,-1,22
 628 25 628 25 562.5 0 c 128,-1,23
 497 -25 497 -25 416 -25 c 0,4,5
416 65 m 0,24,25
 474 65 474 65 518 82 c 128,-1,26
 562 99 562 99 591 134.5 c 128,-1,27
 620 170 620 170 635 224.5 c 128,-1,28
 650 279 650 279 650 355 c 256,29,30
 650 431 650 431 635 485.5 c 128,-1,31
 620 540 620 540 591 575.5 c 128,-1,32
 562 611 562 611 518 628 c 128,-1,33
 474 645 474 645 416 645 c 0,34,35
 359 645 359 645 315 628 c 128,-1,36
 271 611 271 611 242 575.5 c 128,-1,37
 213 540 213 540 198 485.5 c 128,-1,38
 183 431 183 431 183 355 c 256,39,40
 183 279 183 279 198 224.5 c 128,-1,41
 213 170 213 170 242.5 134.5 c 128,-1,42
 272 99 272 99 315.5 82 c 128,-1,43
 359 65 359 65 416 65 c 0,24,25
EndSplineSet
EndChar

StartChar: Hastrokecyr
Encoding: 1278 1278 321
Width: 772
GlyphClass: 2
Flags: W
AnchorPoint: "Anchor-1" 363 0 basechar 0
AnchorPoint: "Anchor-0" 394 741 basechar 0
LayerCount: 2
Fore
SplineSet
169 411 m 1,0,-1
 598 411 l 1,1,-1
 598 324 l 1,2,-1
 169 324 l 1,3,-1
 169 411 l 1,0,-1
42 623 m 1,4,-1
 42 710 l 1,5,-1
 333 710 l 1,6,-1
 333 623 l 1,7,-1
 316 623 l 2,8,9
 299 623 299 623 283.5 622 c 128,-1,10
 268 621 268 621 258.5 619 c 128,-1,11
 249 617 249 617 249 613 c 2,12,-1
 426 392 l 1,13,-1
 439 389 l 1,14,-1
 651 122 l 2,15,16
 668 99 668 99 685.5 93 c 128,-1,17
 703 87 703 87 723 87 c 2,18,-1
 743 87 l 1,19,-1
 743 0 l 1,20,-1
 446 0 l 1,21,-1
 446 87 l 1,22,-1
 463 87 l 2,23,24
 480 87 480 87 495.5 88 c 128,-1,25
 511 89 511 89 520.5 91.5 c 128,-1,26
 530 94 530 94 530 97 c 2,27,-1
 340 337 l 1,28,-1
 327 341 l 1,29,-1
 130 588 l 2,30,31
 112 612 112 612 94.5 617.5 c 128,-1,32
 77 623 77 623 56 623 c 2,33,-1
 42 623 l 1,4,-1
30 0 m 1,34,-1
 30 87 l 1,35,-1
 49 87 l 2,36,37
 68 87 68 87 85 96.5 c 128,-1,38
 102 106 102 106 123 133 c 2,39,-1
 317 381 l 1,40,-1
 389 336 l 1,41,-1
 209 104 l 2,42,43
 209 100 209 100 219 96 c 128,-1,44
 229 92 229 92 244 89.5 c 128,-1,45
 259 87 259 87 271 87 c 2,46,-1
 289 87 l 1,47,-1
 289 0 l 1,48,-1
 30 0 l 1,34,-1
450 352 m 1,49,-1
 381 398 l 1,50,-1
 549 605 l 2,51,52
 549 611 549 611 538.5 615 c 128,-1,53
 528 619 528 619 513 621 c 128,-1,54
 498 623 498 623 485 623 c 2,55,-1
 471 623 l 1,56,-1
 471 710 l 1,57,-1
 726 710 l 1,58,-1
 726 623 l 1,59,-1
 712 623 l 2,60,61
 693 623 693 623 675.5 614 c 128,-1,62
 658 605 658 605 635 578 c 2,63,-1
 450 352 l 1,49,-1
EndSplineSet
EndChar

StartChar: a
Encoding: 97 97 322
Width: 629
GlyphClass: 2
Flags: W
AnchorPoint: "Anchor-2" 473 -10 basechar 0
AnchorPoint: "Anchor-1" 324 0 basechar 0
AnchorPoint: "Anchor-0" 292 566 basechar 0
LayerCount: 2
Fore
SplineSet
426 348 m 1,0,-1
 426 278 l 1,1,2
 358 267 358 267 312.5 256.5 c 128,-1,3
 267 246 267 246 239 233.5 c 128,-1,4
 211 221 211 221 197.5 207.5 c 128,-1,5
 184 194 184 194 179 177.5 c 128,-1,6
 174 161 174 161 174 141 c 0,7,8
 174 112 174 112 184 97 c 128,-1,9
 194 82 194 82 212 76 c 128,-1,10
 230 70 230 70 254 70 c 0,11,12
 282 70 282 70 308 82 c 128,-1,13
 334 94 334 94 362.5 122 c 128,-1,14
 391 150 391 150 424 197 c 1,15,-1
 428 133 l 1,16,17
 403 87 403 87 374.5 54.5 c 128,-1,18
 346 22 346 22 312 5 c 128,-1,19
 278 -12 278 -12 236 -12 c 0,20,21
 181 -12 181 -12 142.5 4.5 c 128,-1,22
 104 21 104 21 84 54 c 128,-1,23
 64 87 64 87 64 138 c 0,24,25
 64 180 64 180 81 212 c 128,-1,26
 98 244 98 244 138.5 268.5 c 128,-1,27
 179 293 179 293 248.5 312.5 c 128,-1,28
 318 332 318 332 426 348 c 1,0,-1
441 0 m 1,29,-1
 417 123 l 1,30,-1
 415 131 l 1,31,-1
 415 406 l 2,32,33
 415 432 415 432 407 450 c 128,-1,34
 399 468 399 468 375.5 477.5 c 128,-1,35
 352 487 352 487 303 487 c 0,36,37
 237 487 237 487 192.5 474.5 c 128,-1,38
 148 462 148 462 131 450 c 1,39,40
 131 456 131 456 136.5 466 c 128,-1,41
 142 476 142 476 151.5 487 c 128,-1,42
 161 498 161 498 173.5 505.5 c 128,-1,43
 186 513 186 513 201 513 c 1,44,-1
 201 384 l 1,45,-1
 94 384 l 1,46,-1
 94 526 l 1,47,48
 109 536 109 536 137 547 c 128,-1,49
 165 558 165 558 208 567 c 128,-1,50
 251 576 251 576 307 576 c 0,51,52
 356 576 356 576 396.5 567.5 c 128,-1,53
 437 559 437 559 466 541.5 c 128,-1,54
 495 524 495 524 510.5 496 c 128,-1,55
 526 468 526 468 526 429 c 2,56,-1
 526 137 l 2,57,58
 526 121 526 121 532.5 111.5 c 128,-1,59
 539 102 539 102 554.5 96 c 128,-1,60
 570 90 570 90 594 85 c 2,61,-1
 604 83 l 1,62,-1
 604 0 l 1,63,-1
 441 0 l 1,29,-1
EndSplineSet
Substitution2: "'ss06' Style Set 6 lookup 66 subtable" a.alt
EndChar

StartChar: aogonek
Encoding: 261 261 331
Width: 629
GlyphClass: 1
Flags: W
LayerCount: 2
Fore
SplineSet
268 -160 m 0,0,1
 268 -136 268 -136 277 -117.5 c 128,-1,2
 286 -99 286 -99 308.5 -79 c 128,-1,3
 331 -59 331 -59 371.5 -31 c 128,-1,4
 412 -3 412 -3 474 38 c 1,5,-1
 510 0 l 1,6,7
 473 -31 473 -31 448 -53 c 128,-1,8
 423 -75 423 -75 409.5 -90.5 c 128,-1,9
 396 -106 396 -106 390.5 -118.5 c 128,-1,10
 385 -131 385 -131 385 -146 c 0,11,12
 385 -162 385 -162 395.5 -172 c 128,-1,13
 406 -182 406 -182 429 -182 c 0,14,15
 458 -182 458 -182 478.5 -168 c 128,-1,16
 499 -154 499 -154 512 -139 c 1,17,-1
 557 -182 l 1,18,19
 530 -213 530 -213 494.5 -232.5 c 128,-1,20
 459 -252 459 -252 402 -252 c 0,21,22
 344 -252 344 -252 306 -230 c 128,-1,23
 268 -208 268 -208 268 -160 c 0,0,1
604 0 m 1,24,-1
 443 0 l 1,25,-1
 419 123 l 1,26,-1
 412 131 l 1,27,-1
 412 415 l 2,28,29
 412 439 412 439 404.5 456.5 c 128,-1,30
 397 474 397 474 373.5 483 c 128,-1,31
 350 492 350 492 303 492 c 0,32,33
 236 492 236 492 190.5 482.5 c 128,-1,34
 145 473 145 473 128 462 c 1,35,36
 128 467 128 467 133 475 c 128,-1,37
 138 483 138 483 147.5 492 c 128,-1,38
 157 501 157 501 169.5 507 c 128,-1,39
 182 513 182 513 197 513 c 1,40,-1
 197 384 l 1,41,-1
 91 384 l 1,42,-1
 91 526 l 1,43,44
 107 537 107 537 136 548.5 c 128,-1,45
 165 560 165 560 208 568 c 128,-1,46
 251 576 251 576 307 576 c 0,47,48
 356 576 356 576 395.5 567.5 c 128,-1,49
 435 559 435 559 463.5 541.5 c 128,-1,50
 492 524 492 524 507 496 c 128,-1,51
 522 468 522 468 522 429 c 2,52,-1
 522 128 l 2,53,54
 522 115 522 115 529.5 107.5 c 128,-1,55
 537 100 537 100 552.5 95.5 c 128,-1,56
 568 91 568 91 594 85 c 2,57,-1
 604 83 l 1,58,-1
 604 0 l 1,24,-1
59 138 m 0,59,60
 59 183 59 183 75.5 216 c 128,-1,61
 92 249 92 249 132 273 c 128,-1,62
 172 297 172 297 242.5 315.5 c 128,-1,63
 313 334 313 334 422 350 c 1,64,-1
 422 280 l 1,65,66
 353 269 353 269 307 257.5 c 128,-1,67
 261 246 261 246 233.5 234.5 c 128,-1,68
 206 223 206 223 192 209 c 128,-1,69
 178 195 178 195 173.5 178.5 c 128,-1,70
 169 162 169 162 169 142 c 0,71,72
 169 112 169 112 180 96.5 c 128,-1,73
 191 81 191 81 210 75.5 c 128,-1,74
 229 70 229 70 254 70 c 0,75,76
 281 70 281 70 307 80 c 128,-1,77
 333 90 333 90 360.5 116 c 128,-1,78
 388 142 388 142 420 187 c 1,79,-1
 425 125 l 1,80,81
 402 80 402 80 372.5 49.5 c 128,-1,82
 343 19 343 19 308 3.5 c 128,-1,83
 273 -12 273 -12 230 -12 c 0,84,85
 176 -12 176 -12 137.5 4.5 c 128,-1,86
 99 21 99 21 79 54 c 128,-1,87
 59 87 59 87 59 138 c 0,59,60
EndSplineSet
Substitution2: "'ss06' Style Set 6 lookup 66 subtable" aogonek.alt
EndChar

StartChar: acaron
Encoding: 462 462 332
Width: 629
GlyphClass: 1
Flags: W
LayerCount: 2
Fore
SplineSet
266 649 m 1,0,-1
 341 649 l 1,1,-1
 483 824 l 1,2,-1
 483 847 l 1,3,-1
 421 847 l 1,4,-1
 238 700 l 1,5,-1
 371 705 l 1,6,-1
 190 847 l 1,7,-1
 122 847 l 1,8,-1
 122 824 l 1,9,-1
 266 649 l 1,0,-1
426 348 m 1,10,-1
 426 278 l 1,11,12
 358 267 358 267 312.5 256.5 c 128,-1,13
 267 246 267 246 239 233.5 c 128,-1,14
 211 221 211 221 197.5 207.5 c 128,-1,15
 184 194 184 194 179 177.5 c 128,-1,16
 174 161 174 161 174 141 c 0,17,18
 174 112 174 112 184 97 c 128,-1,19
 194 82 194 82 212 76 c 128,-1,20
 230 70 230 70 254 70 c 0,21,22
 282 70 282 70 308 82 c 128,-1,23
 334 94 334 94 362.5 122 c 128,-1,24
 391 150 391 150 424 197 c 1,25,-1
 428 133 l 1,26,27
 403 87 403 87 374.5 54.5 c 128,-1,28
 346 22 346 22 312 5 c 128,-1,29
 278 -12 278 -12 236 -12 c 0,30,31
 181 -12 181 -12 142.5 4.5 c 128,-1,32
 104 21 104 21 84 54 c 128,-1,33
 64 87 64 87 64 138 c 0,34,35
 64 180 64 180 81 212 c 128,-1,36
 98 244 98 244 138.5 268.5 c 128,-1,37
 179 293 179 293 248.5 312.5 c 128,-1,38
 318 332 318 332 426 348 c 1,10,-1
441 0 m 1,39,-1
 417 123 l 1,40,-1
 415 131 l 1,41,-1
 415 406 l 2,42,43
 415 432 415 432 407 450 c 128,-1,44
 399 468 399 468 375.5 477.5 c 128,-1,45
 352 487 352 487 303 487 c 0,46,47
 237 487 237 487 192.5 474.5 c 128,-1,48
 148 462 148 462 131 450 c 1,49,50
 131 456 131 456 136.5 466 c 128,-1,51
 142 476 142 476 151.5 487 c 128,-1,52
 161 498 161 498 173.5 505.5 c 128,-1,53
 186 513 186 513 201 513 c 1,54,-1
 201 384 l 1,55,-1
 94 384 l 1,56,-1
 94 526 l 1,57,58
 109 536 109 536 137 547 c 128,-1,59
 165 558 165 558 208 567 c 128,-1,60
 251 576 251 576 307 576 c 0,61,62
 356 576 356 576 396.5 567.5 c 128,-1,63
 437 559 437 559 466 541.5 c 128,-1,64
 495 524 495 524 510.5 496 c 128,-1,65
 526 468 526 468 526 429 c 2,66,-1
 526 137 l 2,67,68
 526 121 526 121 532.5 111.5 c 128,-1,69
 539 102 539 102 554.5 96 c 128,-1,70
 570 90 570 90 594 85 c 2,71,-1
 604 83 l 1,72,-1
 604 0 l 1,73,-1
 441 0 l 1,39,-1
EndSplineSet
Substitution2: "'ss06' Style Set 6 lookup 66 subtable" acaron.alt
EndChar

StartChar: adblgrave
Encoding: 513 513 334
Width: 629
GlyphClass: 1
Flags: W
LayerCount: 2
Fore
SplineSet
422 805 m 2,0,-1
 453 692 l 1,1,-1
 451 658 l 1,2,-1
 407 658 l 1,3,-1
 326 739 l 2,4,5
 307 759 307 759 297 776.5 c 128,-1,6
 287 794 287 794 287 815 c 0,7,8
 287 840 287 840 302 856.5 c 128,-1,9
 317 873 317 873 345 873 c 0,10,11
 376 873 376 873 395 853.5 c 128,-1,12
 414 834 414 834 422 805 c 2,0,-1
217 805 m 2,13,-1
 247 692 l 1,14,-1
 247 658 l 1,15,-1
 202 658 l 1,16,-1
 122 739 l 2,17,18
 102 759 102 759 92 776.5 c 128,-1,19
 82 794 82 794 82 815 c 0,20,21
 82 840 82 840 97.5 856.5 c 128,-1,22
 113 873 113 873 140 873 c 0,23,24
 171 873 171 873 190.5 853.5 c 128,-1,25
 210 834 210 834 217 805 c 2,13,-1
426 348 m 1,26,-1
 426 278 l 1,27,28
 358 267 358 267 312.5 256.5 c 128,-1,29
 267 246 267 246 239 233.5 c 128,-1,30
 211 221 211 221 197.5 207.5 c 128,-1,31
 184 194 184 194 179 177.5 c 128,-1,32
 174 161 174 161 174 141 c 0,33,34
 174 112 174 112 184 97 c 128,-1,35
 194 82 194 82 212 76 c 128,-1,36
 230 70 230 70 254 70 c 0,37,38
 282 70 282 70 308 82 c 128,-1,39
 334 94 334 94 362.5 122 c 128,-1,40
 391 150 391 150 424 197 c 1,41,-1
 428 133 l 1,42,43
 403 87 403 87 374.5 54.5 c 128,-1,44
 346 22 346 22 312 5 c 128,-1,45
 278 -12 278 -12 236 -12 c 0,46,47
 181 -12 181 -12 142.5 4.5 c 128,-1,48
 104 21 104 21 84 54 c 128,-1,49
 64 87 64 87 64 138 c 0,50,51
 64 180 64 180 81 212 c 128,-1,52
 98 244 98 244 138.5 268.5 c 128,-1,53
 179 293 179 293 248.5 312.5 c 128,-1,54
 318 332 318 332 426 348 c 1,26,-1
441 0 m 1,55,-1
 417 123 l 1,56,-1
 415 131 l 1,57,-1
 415 406 l 2,58,59
 415 432 415 432 407 450 c 128,-1,60
 399 468 399 468 375.5 477.5 c 128,-1,61
 352 487 352 487 303 487 c 0,62,63
 237 487 237 487 192.5 474.5 c 128,-1,64
 148 462 148 462 131 450 c 1,65,66
 131 456 131 456 136.5 466 c 128,-1,67
 142 476 142 476 151.5 487 c 128,-1,68
 161 498 161 498 173.5 505.5 c 128,-1,69
 186 513 186 513 201 513 c 1,70,-1
 201 384 l 1,71,-1
 94 384 l 1,72,-1
 94 526 l 1,73,74
 109 536 109 536 137 547 c 128,-1,75
 165 558 165 558 208 567 c 128,-1,76
 251 576 251 576 307 576 c 0,77,78
 356 576 356 576 396.5 567.5 c 128,-1,79
 437 559 437 559 466 541.5 c 128,-1,80
 495 524 495 524 510.5 496 c 128,-1,81
 526 468 526 468 526 429 c 2,82,-1
 526 137 l 2,83,84
 526 121 526 121 532.5 111.5 c 128,-1,85
 539 102 539 102 554.5 96 c 128,-1,86
 570 90 570 90 594 85 c 2,87,-1
 604 83 l 1,88,-1
 604 0 l 1,89,-1
 441 0 l 1,55,-1
EndSplineSet
Substitution2: "'ss06' Style Set 6 lookup 66 subtable" adblgrave.alt
EndChar

StartChar: ainvertedbreve
Encoding: 515 515 335
Width: 629
GlyphClass: 1
Flags: W
LayerCount: 2
Fore
SplineSet
298 834 m 256,0,1
 238 834 238 834 200 817.5 c 128,-1,2
 162 801 162 801 144 763.5 c 128,-1,3
 126 726 126 726 126 661 c 1,4,-1
 213 661 l 1,5,6
 215 700 215 700 220.5 718.5 c 128,-1,7
 226 737 226 737 243.5 743 c 128,-1,8
 261 749 261 749 295 749 c 0,9,10
 330 749 330 749 347 743 c 128,-1,11
 364 737 364 737 371 718.5 c 128,-1,12
 378 700 378 700 379 661 c 1,13,-1
 470 661 l 1,14,15
 471 726 471 726 453 763.5 c 128,-1,16
 435 801 435 801 396.5 817.5 c 128,-1,17
 358 834 358 834 298 834 c 256,0,1
426 348 m 1,18,-1
 426 278 l 1,19,20
 358 267 358 267 312.5 256.5 c 128,-1,21
 267 246 267 246 239 233.5 c 128,-1,22
 211 221 211 221 197.5 207.5 c 128,-1,23
 184 194 184 194 179 177.5 c 128,-1,24
 174 161 174 161 174 141 c 0,25,26
 174 112 174 112 184 97 c 128,-1,27
 194 82 194 82 212 76 c 128,-1,28
 230 70 230 70 254 70 c 0,29,30
 282 70 282 70 308 82 c 128,-1,31
 334 94 334 94 362.5 122 c 128,-1,32
 391 150 391 150 424 197 c 1,33,-1
 428 133 l 1,34,35
 403 87 403 87 374.5 54.5 c 128,-1,36
 346 22 346 22 312 5 c 128,-1,37
 278 -12 278 -12 236 -12 c 0,38,39
 181 -12 181 -12 142.5 4.5 c 128,-1,40
 104 21 104 21 84 54 c 128,-1,41
 64 87 64 87 64 138 c 0,42,43
 64 180 64 180 81 212 c 128,-1,44
 98 244 98 244 138.5 268.5 c 128,-1,45
 179 293 179 293 248.5 312.5 c 128,-1,46
 318 332 318 332 426 348 c 1,18,-1
441 0 m 1,47,-1
 417 123 l 1,48,-1
 415 131 l 1,49,-1
 415 406 l 2,50,51
 415 432 415 432 407 450 c 128,-1,52
 399 468 399 468 375.5 477.5 c 128,-1,53
 352 487 352 487 303 487 c 0,54,55
 237 487 237 487 192.5 474.5 c 128,-1,56
 148 462 148 462 131 450 c 1,57,58
 131 456 131 456 136.5 466 c 128,-1,59
 142 476 142 476 151.5 487 c 128,-1,60
 161 498 161 498 173.5 505.5 c 128,-1,61
 186 513 186 513 201 513 c 1,62,-1
 201 384 l 1,63,-1
 94 384 l 1,64,-1
 94 526 l 1,65,66
 109 536 109 536 137 547 c 128,-1,67
 165 558 165 558 208 567 c 128,-1,68
 251 576 251 576 307 576 c 0,69,70
 356 576 356 576 396.5 567.5 c 128,-1,71
 437 559 437 559 466 541.5 c 128,-1,72
 495 524 495 524 510.5 496 c 128,-1,73
 526 468 526 468 526 429 c 2,74,-1
 526 137 l 2,75,76
 526 121 526 121 532.5 111.5 c 128,-1,77
 539 102 539 102 554.5 96 c 128,-1,78
 570 90 570 90 594 85 c 2,79,-1
 604 83 l 1,80,-1
 604 0 l 1,81,-1
 441 0 l 1,47,-1
EndSplineSet
Substitution2: "'ss06' Style Set 6 lookup 66 subtable" ainvertedbreve.alt
EndChar

StartChar: b
Encoding: 98 98 348
Width: 701
GlyphClass: 2
Flags: W
AnchorPoint: "Anchor-1" 349 0 basechar 0
AnchorPoint: "Anchor-0" 329 755 basechar 0
LayerCount: 2
Fore
SplineSet
398 -13 m 0,0,1
 348 -13 348 -13 309 6 c 128,-1,2
 270 25 270 25 240 60 c 128,-1,3
 210 95 210 95 186 141 c 1,4,-1
 192 200 l 1,5,6
 221 160 221 160 249.5 133.5 c 128,-1,7
 278 107 278 107 310.5 94 c 128,-1,8
 343 81 343 81 384 81 c 0,9,10
 421 81 421 81 449.5 93.5 c 128,-1,11
 478 106 478 106 497 131 c 128,-1,12
 516 156 516 156 526 194.5 c 128,-1,13
 536 233 536 233 536 286 c 0,14,15
 536 335 536 335 527.5 371.5 c 128,-1,16
 519 408 519 408 502 432.5 c 128,-1,17
 485 457 485 457 457.5 469.5 c 128,-1,18
 430 482 430 482 392 482 c 0,19,20
 350 482 350 482 315.5 470 c 128,-1,21
 281 458 281 458 251 432.5 c 128,-1,22
 221 407 221 407 190 365 c 1,23,-1
 187 422 l 1,24,25
 213 469 213 469 244.5 503.5 c 128,-1,26
 276 538 276 538 316.5 557 c 128,-1,27
 357 576 357 576 410 576 c 0,28,29
 491 576 491 576 544.5 539 c 128,-1,30
 598 502 598 502 625 437 c 128,-1,31
 652 372 652 372 652 286 c 0,32,33
 652 201 652 201 623 133 c 128,-1,34
 594 65 594 65 537 26 c 128,-1,35
 480 -13 480 -13 398 -13 c 0,0,1
99 652 m 2,36,37
 99 666 99 666 90.5 673.5 c 128,-1,38
 82 681 82 681 67 686 c 128,-1,39
 52 691 52 691 31 695 c 2,40,-1
 21 697 l 1,41,-1
 21 780 l 1,42,-1
 210 780 l 1,43,-1
 210 123 l 1,44,-1
 211 122 l 1,45,-1
 177 -21 l 1,46,-1
 99 -21 l 1,47,-1
 99 652 l 2,36,37
EndSplineSet
EndChar

StartChar: c
Encoding: 99 99 349
Width: 597
GlyphClass: 2
Flags: W
AnchorPoint: "Anchor-1" 330 0 basechar 0
AnchorPoint: "Anchor-0" 319 566 basechar 0
LayerCount: 2
Fore
SplineSet
341 77 m 0,0,1
 382 77 382 77 409.5 87 c 128,-1,2
 437 97 437 97 457 116 c 128,-1,3
 477 135 477 135 494 164 c 1,4,-1
 558 115 l 1,5,6
 540 76 540 76 507 47 c 128,-1,7
 474 18 474 18 430.5 2.5 c 128,-1,8
 387 -13 387 -13 337 -13 c 0,9,10
 246 -13 246 -13 181.5 22 c 128,-1,11
 117 57 117 57 83 123 c 128,-1,12
 49 189 49 189 49 282 c 0,13,14
 49 376 49 376 83 441.5 c 128,-1,15
 117 507 117 507 181 541.5 c 128,-1,16
 245 576 245 576 337 576 c 0,17,18
 392 576 392 576 433 570 c 128,-1,19
 474 564 474 564 500.5 556 c 128,-1,20
 527 548 527 548 538 542 c 1,21,-1
 538 358 l 1,22,-1
 426 358 l 1,23,-1
 426 508 l 1,24,25
 436 508 436 508 446 501 c 128,-1,26
 456 494 456 494 464.5 484.5 c 128,-1,27
 473 475 473 475 478.5 466.5 c 128,-1,28
 484 458 484 458 485 456 c 1,29,30
 461 467 461 467 424 476.5 c 128,-1,31
 387 486 387 486 339 486 c 0,32,33
 277 486 277 486 238.5 463.5 c 128,-1,34
 200 441 200 441 182.5 396 c 128,-1,35
 165 351 165 351 165 282 c 0,36,37
 165 228 165 228 174.5 189 c 128,-1,38
 184 150 184 150 205 125 c 128,-1,39
 226 100 226 100 259.5 88.5 c 128,-1,40
 293 77 293 77 341 77 c 0,0,1
EndSplineSet
EndChar

StartChar: ccaron
Encoding: 269 269 354
Width: 597
GlyphClass: 1
Flags: W
LayerCount: 2
Fore
SplineSet
283 649 m 1,0,-1
 359 649 l 1,1,-1
 501 824 l 1,2,-1
 501 847 l 1,3,-1
 439 847 l 1,4,-1
 255 700 l 1,5,-1
 388 705 l 1,6,-1
 207 847 l 1,7,-1
 140 847 l 1,8,-1
 140 824 l 1,9,-1
 283 649 l 1,0,-1
341 77 m 0,10,11
 382 77 382 77 409.5 87 c 128,-1,12
 437 97 437 97 457 116 c 128,-1,13
 477 135 477 135 494 164 c 1,14,-1
 558 115 l 1,15,16
 540 76 540 76 507 47 c 128,-1,17
 474 18 474 18 430.5 2.5 c 128,-1,18
 387 -13 387 -13 337 -13 c 0,19,20
 246 -13 246 -13 181.5 22 c 128,-1,21
 117 57 117 57 83 123 c 128,-1,22
 49 189 49 189 49 282 c 0,23,24
 49 376 49 376 83 441.5 c 128,-1,25
 117 507 117 507 181 541.5 c 128,-1,26
 245 576 245 576 337 576 c 0,27,28
 392 576 392 576 433 570 c 128,-1,29
 474 564 474 564 500.5 556 c 128,-1,30
 527 548 527 548 538 542 c 1,31,-1
 538 358 l 1,32,-1
 426 358 l 1,33,-1
 426 508 l 1,34,35
 436 508 436 508 446 501 c 128,-1,36
 456 494 456 494 464.5 484.5 c 128,-1,37
 473 475 473 475 478.5 466.5 c 128,-1,38
 484 458 484 458 485 456 c 1,39,40
 461 467 461 467 424 476.5 c 128,-1,41
 387 486 387 486 339 486 c 0,42,43
 277 486 277 486 238.5 463.5 c 128,-1,44
 200 441 200 441 182.5 396 c 128,-1,45
 165 351 165 351 165 282 c 0,46,47
 165 228 165 228 174.5 189 c 128,-1,48
 184 150 184 150 205 125 c 128,-1,49
 226 100 226 100 259.5 88.5 c 128,-1,50
 293 77 293 77 341 77 c 0,10,11
EndSplineSet
EndChar

StartChar: d
Encoding: 100 100 356
Width: 710
GlyphClass: 2
Flags: W
AnchorPoint: "Anchor-2" 673 735 basechar 0
AnchorPoint: "Anchor-1" 331 0 basechar 0
LayerCount: 2
Fore
SplineSet
602 128 m 2,0,1
 602 107 602 107 621 100 c 128,-1,2
 640 93 640 93 670 85 c 2,3,-1
 680 83 l 1,4,-1
 680 0 l 1,5,-1
 523 0 l 1,6,-1
 499 131 l 1,7,-1
 491 120 l 1,8,-1
 491 652 l 2,9,10
 491 666 491 666 482.5 673 c 128,-1,11
 474 680 474 680 456.5 685 c 128,-1,12
 439 690 439 690 414 695 c 2,13,-1
 404 697 l 1,14,-1
 404 780 l 1,15,-1
 602 780 l 1,16,-1
 602 128 l 2,0,1
303 576 m 0,17,18
 352 576 352 576 390.5 557 c 128,-1,19
 429 538 429 538 459.5 503.5 c 128,-1,20
 490 469 490 469 514 421 c 1,21,-1
 508 365 l 1,22,23
 480 405 480 405 451 430.5 c 128,-1,24
 422 456 422 456 390 469 c 128,-1,25
 358 482 358 482 318 482 c 0,26,27
 281 482 281 482 252.5 469.5 c 128,-1,28
 224 457 224 457 204.5 432 c 128,-1,29
 185 407 185 407 175 368.5 c 128,-1,30
 165 330 165 330 165 277 c 0,31,32
 165 228 165 228 173.5 191 c 128,-1,33
 182 154 182 154 199 129.5 c 128,-1,34
 216 105 216 105 243.5 93 c 128,-1,35
 271 81 271 81 308 81 c 0,36,37
 351 81 351 81 385 92.5 c 128,-1,38
 419 104 419 104 450 130 c 128,-1,39
 481 156 481 156 511 197 c 1,40,-1
 514 140 l 1,41,42
 488 94 488 94 456.5 59.5 c 128,-1,43
 425 25 425 25 384.5 6 c 128,-1,44
 344 -13 344 -13 291 -13 c 0,45,46
 210 -13 210 -13 156 24 c 128,-1,47
 102 61 102 61 75.5 126.5 c 128,-1,48
 49 192 49 192 49 277 c 0,49,50
 49 363 49 363 78 430 c 128,-1,51
 107 497 107 497 163.5 536.5 c 128,-1,52
 220 576 220 576 303 576 c 0,17,18
EndSplineSet
EndChar

StartChar: e
Encoding: 101 101 360
Width: 610
GlyphClass: 2
Flags: W
AnchorPoint: "Anchor-2" 483 1 basechar 0
AnchorPoint: "Anchor-1" 335 0 basechar 0
AnchorPoint: "Anchor-0" 312 566 basechar 0
LayerCount: 2
Fore
SplineSet
160 277 m 0,0,1
 160 216 160 216 174 177 c 128,-1,2
 188 138 188 138 213 116 c 128,-1,3
 238 94 238 94 270 85.5 c 128,-1,4
 302 77 302 77 338 77 c 0,5,6
 380 77 380 77 408.5 87 c 128,-1,7
 437 97 437 97 458 116.5 c 128,-1,8
 479 136 479 136 497 163 c 1,9,-1
 564 115 l 1,10,11
 544 77 544 77 509.5 47.5 c 128,-1,12
 475 18 475 18 430 2.5 c 128,-1,13
 385 -13 385 -13 332 -13 c 0,14,15
 251 -13 251 -13 187 19.5 c 128,-1,16
 123 52 123 52 86 116.5 c 128,-1,17
 49 181 49 181 49 276 c 0,18,19
 49 367 49 367 82 434.5 c 128,-1,20
 115 502 115 502 175 539 c 128,-1,21
 235 576 235 576 316 576 c 0,22,23
 379 576 379 576 425 555.5 c 128,-1,24
 471 535 471 535 500.5 493.5 c 128,-1,25
 530 452 530 452 545.5 390 c 128,-1,26
 561 328 561 328 562 245 c 1,27,-1
 111 245 l 1,28,-1
 111 326 l 1,29,-1
 476 326 l 1,30,-1
 452 293 l 1,31,32
 450 350 450 350 441.5 388 c 128,-1,33
 433 426 433 426 417 448.5 c 128,-1,34
 401 471 401 471 376.5 480 c 128,-1,35
 352 489 352 489 316 489 c 0,36,37
 281 489 281 489 252 477.5 c 128,-1,38
 223 466 223 466 202.5 440.5 c 128,-1,39
 182 415 182 415 171 374.5 c 128,-1,40
 160 334 160 334 160 277 c 0,0,1
EndSplineSet
EndChar

StartChar: eogonek
Encoding: 281 281 368
Width: 610
GlyphClass: 1
Flags: W
LayerCount: 2
Fore
SplineSet
421 43 m 1,0,-1
 423 0 l 1,1,2
 402 -6 402 -6 380 -9.5 c 128,-1,3
 358 -13 358 -13 334 -13 c 0,4,5
 252 -13 252 -13 187.5 19.5 c 128,-1,6
 123 52 123 52 86 116.5 c 128,-1,7
 49 181 49 181 49 276 c 0,8,9
 49 367 49 367 82 434.5 c 128,-1,10
 115 502 115 502 175 539 c 128,-1,11
 235 576 235 576 316 576 c 0,12,13
 379 576 379 576 425 555.5 c 128,-1,14
 471 535 471 535 500.5 494 c 128,-1,15
 530 453 530 453 545.5 391.5 c 128,-1,16
 561 330 561 330 562 247 c 1,17,-1
 120 247 l 1,18,-1
 120 326 l 1,19,-1
 476 326 l 1,20,-1
 452 293 l 1,21,22
 450 350 450 350 441.5 388 c 128,-1,23
 433 426 433 426 417 448.5 c 128,-1,24
 401 471 401 471 376.5 480 c 128,-1,25
 352 489 352 489 316 489 c 0,26,27
 281 489 281 489 252 477.5 c 128,-1,28
 223 466 223 466 202.5 440.5 c 128,-1,29
 182 415 182 415 171 374.5 c 128,-1,30
 160 334 160 334 160 277 c 0,31,32
 160 216 160 216 173.5 177 c 128,-1,33
 187 138 187 138 212.5 116 c 128,-1,34
 238 94 238 94 269.5 85.5 c 128,-1,35
 301 77 301 77 337 77 c 0,36,37
 380 77 380 77 409.5 87 c 128,-1,38
 439 97 439 97 460.5 116.5 c 128,-1,39
 482 136 482 136 499 164 c 1,40,-1
 564 115 l 1,41,42
 552 92 552 92 534 71.5 c 128,-1,43
 516 51 516 51 489 32 c 0,44,45
 463 14 463 14 436 -9.5 c 128,-1,46
 409 -33 409 -33 385.5 -57.5 c 128,-1,47
 362 -82 362 -82 347.5 -105 c 128,-1,48
 333 -128 333 -128 333 -146 c 0,49,50
 333 -162 333 -162 343.5 -172 c 128,-1,51
 354 -182 354 -182 376 -182 c 0,52,53
 405 -182 405 -182 426 -168 c 128,-1,54
 447 -154 447 -154 461 -138 c 1,55,-1
 504 -182 l 1,56,57
 478 -213 478 -213 442.5 -232.5 c 128,-1,58
 407 -252 407 -252 351 -252 c 0,59,60
 313 -252 313 -252 282 -242 c 128,-1,61
 251 -232 251 -232 233.5 -212 c 128,-1,62
 216 -192 216 -192 216 -160 c 0,63,64
 216 -136 216 -136 225 -116.5 c 128,-1,65
 234 -97 234 -97 256 -75.5 c 128,-1,66
 278 -54 278 -54 318.5 -26 c 128,-1,67
 359 2 359 2 421 43 c 1,0,-1
EndSplineSet
EndChar

